<?xml version="1.0" encoding="utf-8"?>
<!-- Generator: Adobe Illustrator 21.1.0, SVG Export Plug-In . SVG Version: 6.00 Build 0)  -->
<svg version="1.1" id="Слой_1" xmlns="http://www.w3.org/2000/svg" xmlns:xlink="http://www.w3.org/1999/xlink" x="0px" y="0px"
	 viewBox="0 0 235 549" style="enable-background:new 0 0 235 549;" xml:space="preserve">
<style type="text/css">
	.st0{fill:#572F5D;}
</style>
<path class="st0" d="M176.8,71.4c2.7-0.2,5.3-0.3,8.7-0.5c-2.4-4.4-4.7-8.7-7-13.1c0.6-0.5,1.2-1,1.8-1.5c2.1,1.5,4.1,3,6.5,4.6
	c-1.4-3.8-2.8-7.6-4.1-11.4c0.7-0.5,1.5-0.9,2.2-1.4c3.1,3.7,6.2,7.4,10.5,12.5c-0.9-5.9-1.5-9.9-2.2-14c0.7-0.3,1.4-0.5,2.2-0.8
	c1.8,3.4,3.7,6.7,6.2,11.2c1.2-3.8,2.2-6.5,3.1-9.3c0.4-0.1,0.9-0.2,1.3-0.3c0.6,2.3,1.9,4.6,1.7,6.8c-1.5,21.6,5.6,41.8,9.3,62.5
	c1.5,8.6,1.3,17.5,0.9,26.3c-0.1,3.5-2,7.3-4.1,10.2c-3.9,5.3-7.3,10-5.3,17.3c0.6,2.3-2.2,6.2-4.5,8.2c-5.6,5-11.1,10.7-17.7,13.6
	c-12.9,5.7-18.5,15.5-20.5,28.5c-3.9,25.9-8.1,51.7-15.2,77c-3,10.6-2.1,21.4,3.7,31.3c5,8.4,5.1,17.1,1.1,25.9
	c-3.8,8.5-2.9,16.2,0.3,25.3c5.5,15.5,8.4,31.9,12.2,47.9c1.6,7.1,3,14.2,3.8,21.4c0.5,4.2-0.5,8.6-0.8,12.9
	c-0.9,10.3-1.7,20.6-2.8,30.8c-0.8,8.3-1.2,16.7-3,24.7c-1.7,7.3-8.9,11.2-16.4,10.5c-7.1-0.6-11.5-4.9-11.2-11.9
	c0.2-6.7,1.5-13.4,2.1-20.1c0.2-2.1,0.2-4.4-0.3-6.5c-8.6-39.4-17.2-78.7-26.1-118c-2.1-9.1-5.3-17.9-8.8-26.8
	c-7.2,10.6-10.7,22.2-10.3,34.3c0.8,22.6,2.9,45.2,4.5,67.8c0.3,3.7,1.1,7.5,0.7,11.2c-0.8,6.7-1.2,12.5,4.7,17.8
	c1.8,1.6,1.1,8.3-0.7,11.2c-2.9,4.8-7.7,8.3-11.6,12.5c-4.4,4.8-8.3,10.2-13.1,14.6c-7.3,6.7-15.5,12.4-26.1,12
	c-4.8-0.2-7.1-3.1-5.8-7.5c1.3-4.1,3.6-7.9,6-11.5c2.8-4.1,6.2-7.8,8.3-12.8c-2.6,1.8-5.1,3.5-7.7,5.3c-0.5-0.4-1-0.8-1.5-1.1
	c0.7-1.9,1-4.2,2.2-5.6c5-5.6,5.3-12.4,5.2-19.2c-0.7-36.8-2.1-73.5-2.1-110.3c0-23.7,2.1-47.5,3.4-71.2c0.3-6.4-1.7-11.1-7.7-13.9
	c-2-0.9-3.9-2-5.8-3.1c-12.2-7.5-15.1-17.7-7.1-29.6c5.5-8.1,11.8-16.3,19.3-22.4c15.5-12.7,18.3-29.8,19.8-47.8
	c1-12.4-2.4-23.4-10.2-33.2c-1.1-1.4-1.3-5.4-0.2-6.5c5.8-5.7,4.1-11.5,1.2-17.6c-0.1-0.2-0.2-0.4-0.3-0.6
	c-11.8-19.3-13-25.2,5.6-49.1c3.6-4.7,8.2-8.7,11.6-13.5c7.6-10.5,14.8-21.2,22-32c3.2-4.8,5.5-10.5,13.9-11.4
	c-2.1,3.7-3.6,6.3-5.2,9c0.2,0.3,0.4,0.5,0.6,0.8c4.4-3.1,8.8-6.3,13.2-9.4c0.6,0.7,1.3,1.3,1.9,2c-2,2.8-4,5.6-6.1,8.5
	c3.9-2.2,7.6-4.3,11.4-6.4c0.6,0.8,1.3,1.7,1.9,2.5c-3.2,3.5-6.4,7-10.7,11.8c5.4-1.9,9.3-3.3,14.4-5.1
	c-2.5,10.6-14.8,8.7-18.6,17.2c4.2,0.9,7.6,1.6,11,2.3c0.1,0.8,0.3,1.5,0.4,2.3c-3.9,1.4-8,4.3-11.7,3.9c-12.2-1.3-19.5,4.9-25.6,14
	c-6.4,9.6-12,19.6-12.7,31.5c-0.1,2,1.4,4.8,3,6c4.9,3.6,9.1,6.7,9.7,13.8c0.4,3.8,4.6,7.7,7.7,10.8c4.9,4.9,10.3,9.1,15.2,13.4
	c-2.8-6.1,1-11.2,5.7-16.2c0.8-0.9,1.2-2.3,1.6-3.6c4.4-14.3,18.5-20.9,32.9-15.4c13.1,5,18.5,19.5,12.1,32.8
	c-0.7,1.4-1.8,2.7-2,4.1c-0.4,2.5-0.3,5.2-0.5,7.8c2.5-1,5.2-1.7,7.5-2.9c5.1-2.7,10.1-5.6,15-8.7c1.3-0.8,2.9-2.5,2.9-3.7
	c-0.1-12.7-0.1-25.4-0.9-38.1c-0.4-6.6-4.5-11.6-10.3-15.3c-3.9-2.5-7.2-5.8-10.8-8.8C176.3,72.7,176.6,72.1,176.8,71.4z"/>
</svg>
