<?xml version="1.0" encoding="utf-8"?>
<!-- Generator: Adobe Illustrator 21.1.0, SVG Export Plug-In . SVG Version: 6.00 Build 0)  -->
<svg version="1.1" id="Слой_1" xmlns="http://www.w3.org/2000/svg" xmlns:xlink="http://www.w3.org/1999/xlink" x="0px" y="0px"
	 viewBox="0 0 378.6 479.1" style="enable-background:new 0 0 378.6 479.1;" xml:space="preserve">
<style type="text/css">
	.st0{fill:#572F5D;}
</style>
<g>
	<path class="st0" d="M58.7,444.1c0.1-4.2-3.1-12.4-7.2-18.1c13.5-4.8,26.8-9.8,41-12.2c-0.7-2.2-1.4-4.1-2.1-6.1
		c-0.3-0.9-0.8-0.9-1.6-0.7c-1.9,0.4-3.8,0.9-5.8,1.1c-4.1,0.4-7.6-0.7-10.4-3.9c-3.5-3.9-5.9-8.4-7.7-13.3
		c-3.9-10.6-5.1-21.6-4-32.8c1-10,2.8-20,4.2-30c0.4-3,0.5-6,0.9-9.5c-7,4.1-13.2,8.5-20,11.5c-6.8,2.9-14,4.9-21.3,6.5
		c-0.1-0.1-0.2-0.3-0.3-0.4c1.4-2.1,2.9-4.2,4.3-6.2c0.5-0.8,1.2-1.4,1.8-2.2c3.6-5.5,8.1-9.9,14-13.1c4.9-2.6,9.5-5.9,14.3-8.7
		c1.2-0.7,1.4-1.5,1.2-2.7c-0.3-1.9-0.4-3.9-0.3-5.8c0.2-4.4,3.2-8,7.5-9.1c0.6-0.2,1.3-0.3,1.9-0.4c1.6-7.8,2.7-8.8,10.2-8.8
		c2.8-6.4,5.1-7.5,12-5.5c1.2-3.8,4.2-4.4,7.6-4.2c4,0.2,7.8,1.1,11.6,2.3c0,0.2,0,0.4,0,0.6c-0.6,0-1.3,0.1-1.9,0
		c-3.8-0.5-7.6-1.3-11.4-1.6c-1.2-0.1-2.6,0.7-3.6,1.4c-1.3,1-1,2.1,0.4,2.9c0.3,0.2,0.6,0.3,1,0.4c3.4,1.2,6.9,2.2,10.2,3.6
		c3.5,1.5,7.1,1.8,10.8,1.5c2.1-0.2,3.1-1.9,2.5-4.2c-0.1-0.5-0.4-1-0.7-1.6c6.7-4.4,13.5-8.8,20.2-13.2c-0.1-0.1-0.2-0.3-0.3-0.4
		c-1.8,1-3.6,2-5.3,3c-4.9,2.9-9.7,5.7-14.5,8.7c-1.5,1-2.8,1.1-4.3-0.3c1.1-0.8,2.2-1.5,3-2.1c-2.1-5-4.6-9.8-6.1-14.8
		c-1.5-5.1-1.9-10.4-2.8-15.4c-2,0.9-4.3,2.2-6.7,3c-10.5,3.2-20.1-0.5-25.4-10c-4-7.2-6.1-14.8-4.4-23.1c1.2-5.7,4.6-9.7,10-11.9
		c0.3-0.1,0.6-0.2,0.8-0.3c0.1,0,0.2-0.1,0.4-0.3c-6.5-9.6-8.5-20.7-9.8-32c-1.5,3.2-2.3,6.7-2.2,10.3c-3.2-3.3-4-17.8-2-34
		c-1.8,1.2-2.5,2.6-4.3,7.9c-0.8-3.5-0.7-6.7-0.1-9.9c1.8-9.9,5.6-18.7,12.9-25.9c4.1-4,8.9-6.5,14.6-7.1c0.9-0.1,1.5-0.3,1.7-1.4
		C94,95,98.1,85.7,103.7,77.1c18-27.8,43.4-45.1,75.7-51.9c17-3.6,34.1-3.2,51.1,0c0.5,0.1,1,0.3,1.5,0.4c0,0.2,0.1,0.4,0.1,0.6
		c-5.1,1.9-10.3,3.7-15.4,5.6c11.1-0.8,22-0.2,32.8,2.2c10.8,2.4,21,6.3,29.7,13.5c-5.4-2.8-10.8-1.1-16.2-0.2
		c19.3,5.8,34.4,17.1,44.9,34.4c-3-2.1-6.2-2.8-9.9-2.5c0.2,0.4,0.3,0.6,0.4,0.7c10.1,8.9,15.6,20.3,18.7,33.1
		c3.8,16.1,2.4,31.9-2.3,47.6c-0.2,0.7-0.4,1.4-0.7,2.4c1.3-0.2,2.4-0.4,3.5-0.5c7.1-0.7,12.5,2.3,16.2,8.3c4.7,7.6,6,16,4.2,24.7
		c-1.8,8.9-9.4,15.3-18.8,16.2c-1.5,0.2-3.1,0.2-4.6,0c-1.5-0.2-2.9-0.7-4.4-1.1c0.3,3.6,0.9,7.2,1,10.8c0.2,13-4,24.8-10.3,35.8
		c-7.7,13.3-18.6,23.6-31.7,31.4c-6.8,4.1-14.1,7.4-21.1,11.1c-2.6,1.4-5.1,2.7-7.5,4.4c-4.8,3.4-9.8,6.5-15.7,7.6
		c-0.5,0.1-0.9,0.1-1.4,0.2c-2.6,0.3-3.4,1.5-2.4,4c0.2,0.4,1,0.7,1.5,0.8c4.8,0.2,9.6,1.1,14.1,2.7c1.4,0.5,3.1,0.7,3.8,2.6
		c0.1,0.4,1,0.5,1.5,0.8c4.5,2.3,9.4,4.1,13.5,7c3.9,2.8,7,6.6,10.3,10.2c12.5,13.8,23.5,28.8,34.5,43.8c0.6,0.8,1.2,1.6,1.8,2.5
		c1.2,1.8,2.4,3.4,4.6,4.2c1.1,0.3,2,1.2,2.8,2.1c5.6,6.1,9.2,13.2,10.5,21.4c0.5,3.1-0.4,6.1-1.9,8.9c-0.3,0.6-0.7,1.2-1.1,2.1
		c5.8,2.2,11.5,4.5,17.5,6.8c-4,3.7-6.8,7.6-8.2,12.8c1,0,1.8,0,2.5,0 M133,277.5c0.4,0.5,0.5,0.7,0.8,0.9
		c5.4,4.7,11.2,8.9,17.6,11.9c12.1,5.7,25.1,7.8,38.3,8.8c4.8,0.3,9.3,1.3,13.5,3.9c3.4,2,7,3.8,10.8,5c6.2,2,12.5,2.1,18-2.2
		c3-2.3,5.5-5.2,8.3-7.8c1.6-1.5,3.1-3.3,4.9-4.3c6.3-3.4,13-6.2,19.3-9.6c8.3-4.6,15.7-10.5,21.7-17.8c5-6.1,8.8-12.8,12-19.9
		c5.2-11.8,8.4-23.9,6.4-36.9c-0.8-5.5-2.8-10.8-4.2-16.1c-0.1-0.2-0.2-0.4-0.2-0.6c-0.7,0.5-1.1,0.8-1.6,1.2
		c-0.2-0.6-0.3-0.9-0.4-1.3c-1.9-8.3-3.5-16.7-5.7-25c-3-11.2-7.2-22-13.9-31.6c-7.7-11.1-18.1-16.7-31.7-14.8
		c-9.1,1.3-18.2,3.1-27.2,5.1c-18.7,4.3-37.1,9.5-56.2,11.6c-10.8,1.2-21.5,1.5-32.3-0.4c-2-0.3-4-0.7-6.2-1.1
		c0.2,0.9,0.4,1.4,0.4,2c0.2,4.1,1,8.4,0.4,12.4c-1,6.8-2.9,13.4-4.6,20.1c-2.5,9.3-5.2,18.6-7.7,28c-0.6,2.2-1,4.8-0.4,6.9
		c1.6,5.6,1.7,11.1,1.3,16.8c-0.4,6.6-1.3,13.2-0.7,19.9c0.8,8.2,3.6,15.5,8.1,22.3c0.7,1,1.3,1.1,2.3,0.5
		c9.5-5.9,19.1-11.7,28.7-17.6c1.9-1.2,3.7-1.2,5.6-0.3c2.5,1.1,3.9,3.2,4.6,5.8c0.8,2.9,0.2,4.9-2.3,6.5
		c-6.3,4.2-12.7,8.3-19.1,12.5C138.8,273.9,136,275.6,133,277.5z M198.5,311.2c0-3,0-2.8-3-3.2c-7.5-1-15.1-1.7-22.5-3.2
		c-17.2-3.4-33-10.2-45.8-22.6c-0.7-0.7-1.3-0.6-2-0.1c-3.8,2.4-7.7,4.8-11.5,7.1c-0.4,0.3-0.9,0.6-1.1,1.1c-2.6,4.7-5.4,9.2-7.7,14
		c-2.2,4.8-5.6,8.2-10.2,10.5c-1.8,0.9-3.6,1.9-5.4,2.8c-1.6,0.8-2.3,1.9-1.9,3.7c0.8,3.9,1.3,7.8,2.3,11.7c1.8,6.7,3.8,13.3,5.7,20
		c0.7,2.5,0.6,2.5,3.1,2.5c0.9,0,1.8,0.2,2.7,0.2c0.6,0,1.2,0,1.7-0.2c6.2-2.8,12.5-5.6,18.6-8.6c3.7-1.8,7.3-4,10.7-6.4
		c4.1-2.8,7.7-6.1,11.8-8.8c9.6-6.3,19.7-11.3,31.3-13c1.9-0.3,3.8-1,5.6-1.6c5-1.8,10.2-2.9,15.5-2.6c1.7,0.1,2.1-0.4,2.2-1.8
		C198.5,312.3,198.5,311.8,198.5,311.2z M60.8,449.4c0.5-0.1,0.8-0.1,1.1-0.2c15.1-4,30.4-6.6,45.9-7.4c13.4-0.7,26.8-0.3,40.2,1.3
		c12.3,1.4,24.5,3.8,36.5,6.8c1.4,0.3,2.8,0.4,4.2,0.5c0.3,0,0.9-0.3,1-0.5c0.1-0.3-0.1-0.8-0.4-1.1c-0.3-0.3-0.8-0.5-1.2-0.8
		c-6.1-3.8-12.6-6.9-19.4-9.2c-2.7-0.9-5.4-1.8-8.1-2.7c10.3,2.2,19.8,6.3,29,11.4c0.7-1.7-0.2-2.5-1.1-3.3
		c-5.2-4.2-10.1-8.7-15.6-12.4c-24.8-16.4-52.1-22.1-81.4-17.2c-13,2.1-25.2,6.9-37.5,11.1c-0.3,0.1-0.6,0.4-0.9,0.6
		c0.7,1,1.4,1.9,1.9,2.9c0.5,1.1,1.2,1.2,2.3,0.8c16.3-5.4,33-9,50.1-10c5.9-0.3,11.7-0.1,17.6-0.1c0,0.2,0,0.4,0,0.5
		c-0.7,0-1.4,0-2.1,0c-15.2-0.6-30.2,1.1-45,4.7c-6.7,1.6-13.3,3.7-19.9,5.5c-1.4,0.4-1.8,1-1.1,2.3c0.2,0.3,0.3,0.6,0.4,1
		c0.3,1.3,1,1.5,2.2,1.1c12.7-4.2,25.7-6.9,38.9-8.7c5-0.7,10.1-1,13.9-1.3c-7.4,1.1-16,2.2-24.6,3.6c-9.4,1.6-18.6,4.2-27.7,7.3
		c-0.6,0.2-1.4,0.9-1.4,1.4c0,1.1,0.5,2.1,0.8,3.4c10.2-4.3,20.5-6.9,31.2-8.5c-3.6,1-7.4,1.7-11,2.8c-6.2,1.9-12.3,4-18.4,6.1
		c-0.6,0.2-1.3,1-1.3,1.5C60,445.1,60.4,447.2,60.8,449.4z M236.2,434.7c-8.3,1.2-16.6,2.9-24.6,5.7c-6.5,2.3-12.8,5.1-19.1,7.8
		c-0.6,0.2-0.9,1.1-1.4,1.6c0.6,0.2,1.3,0.6,1.9,0.7c3.6,0.4,6.9-0.9,10.3-1.8c16.5-4.3,33.5-5.2,50.5-5.5
		c12.8-0.2,25.6,0.3,38.4,1.6c10.5,1,20.9,2.1,31.1,5c0.4,0.1,0.8,0.1,1.2,0.1c0.2-1.4,0.2-2.7,0.6-4c0.5-1.7-0.2-2.5-1.7-3
		c-7.3-2.2-14.6-4.5-22-6.5c-4.3-1.2-8.8-1.8-13.7-2.8c0.9,0,1.2,0,1.6,0c11,1.6,21.8,3.9,32.3,7.7c4,1.5,4,1.4,6-2.3
		c1.2-2.4,1.2-2.4-1.3-3.2c-14.4-5.1-29.3-7.5-44.5-7.9c-3.3-0.1-6.7,0-10,0c6.2-0.2,12.3-0.6,18.5-0.2c13,0.9,25.8,3.2,38.1,7.9
		c0.5,0.2,1.3,0.1,1.6-0.1c1.1-1.1,2-2.3,3.1-3.6c-0.8-0.4-1.3-0.7-1.9-0.9c-5.2-2-10.4-4.1-15.7-5.8c-10.7-3.6-21.6-6-32.9-6.2
		c-9.7-0.2-19.3,0.6-28.9,2.2c-16.3,2.7-32.1,7.2-46.9,14.6c-4.9,2.5-9.4,5.7-14.1,8.6c-1.2,0.7-1.8,1.8-0.9,3.6
		C205.5,440.3,220.4,436,236.2,434.7z M67.1,321.6c-0.8,5.4-1.5,10.5-2.4,15.6c-1.7,9.9-3.5,19.9-2.9,30c0.5,9.9,5.2,17.6,13.3,23.2
		c3.4,2.3,10,1.7,12.1-3.9c4.1-11.5,6.1-23.3,4.7-35.5c-0.9-7.7-3.7-15-9.8-20C77.6,327.3,72.1,324.7,67.1,321.6z M283.4,411.5
		c0,0.1,0.1,0.2,0.1,0.3c-0.6,1.4-1.2,2.9-1.7,4.3c-0.4,1.1,0,1.6,1.3,1.7c3.8,0.3,7.7,0.6,11.5,1.1c1.1,0.1,1.6-0.2,2-1.2
		c1.1-2.6,0.4-5.1-0.5-7.5c-0.5-1.3-1.5-2.8-2.7-3.3c-3.6-1.7-7.3-3-11-4.3c-3.6-1.3-7.2-3.1-11.2-2.8c-0.2,0-0.3-0.1-0.5-0.2
		c-2.2-1.2-4.6-1.4-6.9-0.9c-10.4,2-19.1,6.7-23.9,16.8c-1.2,2.5-2.3,5-2.6,7.9c2.8-0.6,5.4-1.2,7.4-1.7c0.4-0.8,0.5-1.3,0.7-1.6
		c2.1-2.5,4.2-5,6.4-7.4c2.6-2.8,5.1-5.8,8.7-7.5c0.5-0.3,1.2-0.3,1.8-0.5c0.1,0.2,0.2,0.4,0.2,0.6c-0.5,0.4-1.1,0.8-1.6,1.2
		c-4.8,3.7-9.7,7.3-10.6,14c3.6-0.5,7.1-1.1,10.6-1.5c1.6-0.2,2.5-0.8,3.3-2.2c1.7-3.1,4.2-5.6,7.2-7.4c0.5-0.3,1-0.5,1.6-0.8
		c-4.3,4.8-5.4,6.7-5.1,9.4c2.3,0,4.6,0.2,6.9-0.1c1-0.1,2.1-0.9,3-1.6C279.8,414.9,281.6,413.2,283.4,411.5z M144.6,383
		c-11.3,5.2-21.9,11.1-31.6,18.3c-0.4,0.3-0.6,1-0.7,1.5c-0.8,2.5-1.5,5-2.3,7.4c-0.2,0.7-0.7,1.3-1.2,2.3c13.6-0.3,26.3,1.9,39,6.1
		C148.1,406.4,147.5,394.7,144.6,383z M106.1,213.6c-4.6-6.1-9.4-11.9-16.9-14.5c-4.5-1.5-8.4-0.5-11.9,2.4c-2.7,2.2-4.5,5-5.1,8.3
		c-1.9,10.5,0.9,19.9,8.1,27.6c7.4,7.8,19.1,6.2,25.1,2.1c2.3-1.6,3.1-4.7,2-7.6c-0.5,0.2-1.1,0.4-1.6,0.6
		c-3.6,1.3-7.4,1.9-11.2,1.3c-9.5-1.4-13.5-11.4-12.6-18.3c0.8-5.9,4.4-8.5,10.9-7.8C97.9,208.2,102.1,210.7,106.1,213.6z
		 M307.8,179c2.1-1.3,4.4-3.1,7.1-4.3c3.7-1.6,6.9-0.6,9.3,2.6c3.9,5.3,3.9,11.2,1.6,17.1c-2.2,5.6-7.2,7.8-12.7,8.8
		c-1.4,0.3-2.9,0.4-4.3,0.6c0.5,4.4,1.8,5.9,5.9,6.5c1.6,0.2,3.2,0.2,4.8,0c8.2-1.2,14.3-5.4,17.1-13.4c1.3-3.9,1.4-7.9,0.9-12
		c-0.7-5.3-2-10.4-5.1-14.8c-3.9-5.6-10.4-7.9-16.9-6.2c-0.7,0.2-1.5,0.7-1.7,1.2C311.5,169.9,309.5,174.8,307.8,179z M82.9,283.1
		c5.5-0.1,9.6,2.4,12.4,7c0.3,0.5,0.7,1.2,1.3,1.4c1.8,0.7,3.3-0.1,4.5-1.4c1.1-1.2,2.2-2.6,1.3-4.3c-3.1-5.7-7.7-10-14-12
		c-4-1.3-8.5,1.8-7.7,5.7c0,0.2-0.1,0.4-0.2,0.8c-0.7-0.1-1.4-0.2-2.1-0.3c-3.9-0.6-6.9,1-7.8,4.3c-0.3,1-0.3,2-0.2,3
		c0,1-0.3,1.4-1.4,1.6c-6.9,0.8-10,6.9-7.4,15c1.8-1.3,3.8-2.2,5.1-3.8c2.1-2.6,6-4.3,9-3c1.4,0.7,2.6,2,3.8,3.2
		c1.6,1.7,2.6,1.9,4.5,0.8c1.9-1.2,3.5-4,2.8-5.3c-1.4-2.6-3.2-4.7-6.5-4.8c-1.4,0-2.9,0-4.3,0c3.7-2.2,8.5-0.9,11,2.5
		c1.8,2.5,5.6,2.8,7.8,0.6c0.7-0.7,0.8-1.3,0.3-2.2c-2-3.5-4.5-6.2-8.4-7.6C85.3,283.9,84.1,283.5,82.9,283.1z M281.9,400.9
		c3,1.1,5.7,2.2,8.4,3.1c4.4,1.5,7.7,4.2,9.5,8.5c0.1,0.3,0.4,0.6,0.6,1c2.8-1.6,5.2-3.6,7-6.2c0.7-1,0.5-2-0.6-2.6
		c-1.6-0.9-3.2-1.8-4.9-2.5C295.5,399.7,288.8,399.4,281.9,400.9z M32.4,332.4c3.2-1.9,6.6-3.8,10-5.8c0.3-0.2,0.4-1.3,0.2-1.6
		c-1-1.3-2.1-2.6-3.3-3.7c-1-1-2.1-0.9-3.1,0.3c-1.5,1.9-3,3.8-4.5,5.7c-2,2.6-2,2.6,0.3,5C32.1,332.3,32.1,332.3,32.4,332.4z
		 M43.7,319c0.1,0.2,0.2,0.4,0.3,0.6c10.4-6.2,20.8-12.4,31.2-18.7c-1-1.4-1.9-1.1-2.9-0.4c-6.3,4.1-12.7,8.1-19,12.2
		C50.1,314.7,46.9,316.9,43.7,319z"/>
	<path class="st0" d="M249.7,151.4c-3.9-2.5-7.5-5.2-11.4-7.4c-5-2.9-10.6-4.4-16.3-5.5c-1.7-0.3-2.6-1.3-2.1-3c0.3-1.1,1-2.4,1.9-3
		c2.4-1.8,5.2-2.7,8.3-1.8c6.1,1.8,10.7,5.7,14.4,10.8c1.6,2.2,2.9,4.8,4.2,7.2C249.3,149.6,249.4,150.6,249.7,151.4z"/>
	<path class="st0" d="M256,204c4.7-1,9.1-1.6,13.4,0c0.8,0.3,1.5,0.8,2.1,1.5c-1.3-0.4-2.6-0.9-4-1.1c-7.9-1.1-15.1,1-21.8,4.8
		c-3.9,2.3-7.3,5.4-10.9,8.2c-0.5,0.4-0.9,0.8-1.3,1.2c-0.1-0.1-0.2-0.2-0.4-0.3c1.2-1.3,2.3-2.6,3.5-3.9c1.3-1.2,2.7-2.3,4-3.5
		c-0.1-0.2-0.2-0.4-0.3-0.4c-8.7-3.5-12.8-10.6-14.8-19.2c-1.5-6.3-1-12.5,2.1-18.3c4.3-8.2,13.2-10.3,20.6-4.7
		c6.4,4.8,9.4,11.4,10.6,19.1C259.7,193.1,258.8,198.5,256,204z M250.5,172.8c-2.1-1.5-4.2-3.1-6.4-4.6c-0.6-0.3-1.1-0.7-1.7-0.9
		c-3.8-1-7.3-0.2-10.3,2.5c-2.5,2.3-4,5.3-4.8,8.6c-2,8.8-0.1,16.8,5.2,24.1c2.3,3.1,5.2,5.6,9.1,6.5c0.9,0.2,2.1,0,3-0.4
		c2.2-0.9,4.3-2.1,6.5-2.9c1.8-0.6,2.9-1.7,3.7-3.3C259.3,193.5,257.4,180.3,250.5,172.8z"/>
	<path class="st0" d="M133,184.3c8-5.8,10.6-14.5,13.4-23c0.7-2.2,2.5-3.3,5-2.9c3,0.5,5,2.2,4.7,4.6c-0.2,1.6-0.5,3.3-1.2,4.8
		c-4.2,8.3-10.7,13.9-19.8,16.4c-0.4,0.1-0.8,0.2-1.2,0.2C133.7,184.5,133.5,184.4,133,184.3z"/>
	<path class="st0" d="M166.8,219.2c3.2,1,6.3,1.9,8.3,4.7c-3.4-2.5-7.3-3.5-11.4-3.9c-8.1-0.8-15.7,1-22.9,4.5
		c-2.2,1-4.2,2.3-6.3,3.4c-0.1-0.2-0.2-0.4-0.3-0.5c3.5-2,7-4.1,10.7-6.2c-0.2-0.3-0.5-0.8-0.9-1.2c-7.4-9.2-8-24-1.3-33.7
		c6.1-8.9,16.6-9.3,23.3-0.7c6.6,8.5,7.5,22.5,1.9,31.8C167.6,217.9,167.3,218.4,166.8,219.2z M160.5,183c-2.1-1.6-4.4-2.2-7-1.9
		c-4,0.4-6.9,2.7-9.2,5.8c-4.1,5.9-5.2,12.5-4.2,19.5c0.7,5,2.4,9.5,5.8,13.3c0.7,0.8,1.4,1.1,2.5,0.7c4.6-1.4,9.3-1.8,14.1-1.5
		c1.6,0.1,2.5-0.5,3.3-1.8c3.7-6.5,4.6-13.4,3.1-20.6c-0.7-3.1-1.5-6.1-3.7-8.5C163.7,186.3,162.1,184.7,160.5,183z"/>
	<path class="st0" d="M273,237.8c-2-2.1-4.4-3.6-7.2-4.3c-1.8-0.4-3-0.2-4.2,1.5c-9.3,13.5-20.8,24.6-35.6,32
		c-8.7,4.4-18.1,6.6-27.8,6.7c-8.5,0.1-16.5-1.7-23.2-7.4c-1.4-1.2-2.9-2.3-4.5-3.6c-2.4,2.3-3.3,5.8-3.2,9.7
		c-1.3-1.9-0.7-6.4,1.4-9.4c2.8-4.2,6.8-5.6,12.1-4.8c-2,0.4-3.7,0.6-5.3,1c-3.7,1.1-3.8,1.9-1.2,4.6c5.4,5.6,12.2,7.9,19.7,8.4
		c17.6,1.1,32.8-5,46.3-15.9c7.6-6.1,14.1-13.2,19.7-21.2c0.3-0.4,0.6-0.9,0.9-1.3c0.1-0.1,0-0.2,0-0.8c-1.4,0.3-2.8,0.5-4.1,0.9
		c-1.3,0.4-2.5,1-3.9,1.6C258,229.7,269.5,231,273,237.8z"/>
	<path class="st0" d="M222.1,226.8c0.4,2.3-0.6,4.3-2.3,5.9c-2.8,2.7-6.3,4.2-10.2,4.8c-3.7,0.6-7.4,0.5-10.9-0.9
		c-5.8-2.3-6.8-8.7-2-12.7c2.1-1.7,4.5-2.7,7.6-2.8c-2,1-3.7,1.6-5.2,2.6c-1,0.6-2,1.5-2.7,2.5c-2.6,3.4-1.6,7.2,2.2,9
		c5.9,2.9,15.8,1.3,20.3-3.5C220.2,230.3,221,228.5,222.1,226.8z"/>
	<path class="st0" d="M244.1,168.2c2.1,1.5,4.2,3.1,6.4,4.6c0.4,0.8,0.8,1.7,1.3,2.5c2.9,5.6,3.8,11.3,0.9,17.2
		c-1.8,3.7-5,5.6-8.8,5.1c-2.5-0.3-4.7-1.5-6.6-3.3c-4.7-4.5-6.7-10.1-6-16.4C232.2,169.5,238.2,166.1,244.1,168.2z M238.9,177.6
		c2.2,0.1,3.7-1.2,3.8-3.1c0.1-1.8-1.3-3.2-3.2-3.3c-1.7-0.1-3.5,1.5-3.6,3.3C235.8,176.4,236.9,177.6,238.9,177.6z"/>
	<path class="st0" d="M160.5,183c1.6,1.7,3.2,3.3,4.8,5c0.3,0.7,0.7,1.4,0.9,2.1c2.4,6.1,2.6,12.1-0.9,17.8
		c-3.6,5.8-9.9,6.5-14.7,1.7c-5.6-5.6-6.7-16.3-2.3-22.9c1.7-2.6,4.1-4.4,7.3-4.5C157.2,182.1,158.9,182.7,160.5,183z M154.8,191.9
		c2,0,3.6-1.4,3.5-3.2c0-1.6-1.6-3.1-3.3-3.2c-2,0-3.7,1.5-3.7,3.3C151.4,190.6,152.8,191.8,154.8,191.9z"/>
</g>
</svg>
