<svg xmlns="http://www.w3.org/2000/svg" viewBox="0 0 579.98 579.98"><defs><style>.cls-1{fill:none;stroke:#572f5d;stroke-miterlimit:10;stroke-width:10px;}.cls-2{fill:#572f5d;}</style></defs><title>Ресурс 1</title><g id="Слой_2" data-name="Слой 2"><g id="Слой_1-2" data-name="Слой 1"><circle class="cls-1" cx="289.99" cy="289.99" r="284.99"/><path class="cls-2" d="M355.85,455.78c13.47,21.84,12.51,23.86-12,27.82-9.83,1.59-19.57,3.53-29.67,3.5-7.4,0-12.37-2.63-16.16-8.88-8.8-14.46-16.1-29.67-23.19-45-2.41-5.21-5.82-7.19-11.85-9-20-6.17-41-4.4-61-9.8-10.3-2.79-18.13-7.71-22.76-17.54-6-12.77-10.71-26.61-19-37.74-8.53-11.46-25-11.34-37-18.57C102.37,328,87.61,312.4,83.49,287.17c-2.7-16.48-10.37-32-10.84-49.13-.13-4.82-1.11-10.16.53-14.39,17.44-45,41.44-85.17,92.81-95.61,18.22-3.71,33.73-12.72,51.23-16.79,16.33-3.8,33-2.22,49.47-1.67,3.85.13,7.85.67,11.19-.91,14-6.6,27.49-4.5,40.94,1.34,5.21,2.27,10.35,2.62,16.09,1.82,15-2.11,29.63-.89,42.48,8.6,7.08,5.23,15.75,4.12,23.77,5.28,23.82,3.45,44.43,12.32,58.39,33,2.61,3.86,6.26,6.39,9.85,9,13.79,10.1,24,22.7,28.45,39.5,2.12,8,5.93,15,10.76,21.87,12.11,17.16,12.81,36.58,9,56.44-1.25,6.49-2.37,12.63.27,19.2a18.06,18.06,0,0,1-1.67,17c-3.91,5.6-4,11.34-4,17.52,0,22.23-14.13,38.1-36.33,39.67-7.94.56-11.27,2.61-13.14,11.15-7.17,32.68-23.89,58.18-58.63,66.47C388.7,460.19,372.73,458.59,355.85,455.78Zm39.09-107q-.75-.54-1.48-1.12c0-2.74-1.08-6,.06-8.11,4.07-7.56,1.48-15.57,2.39-23.3.62-5.19-1.23-6.94-6.51-4.56-11.76,5.31-20.4,12.84-20.52,26.88a11.22,11.22,0,0,1-3.64,8.68c-1.36-8.07,4.14-15.65.56-23.31-18.88,6.59-28.06,23.41-23,42.1,2.88,10.64,9.23,14.27,20.11,11.47,19.91-5.13,39.27-12.5,59.84-14.91,3.48-.41,5.15-2.17,5.61-4.86a7.87,7.87,0,0,0-4.18-8.62c-4.55-2.38-9.75-3.72-13.9-6.61C401.42,336.31,397.37,340.14,394.93,348.76Zm12.67,89.72c-1.48-1-4.22.8-5.1-2.87,17,0,29.76-6.76,37.06-23.46-5.5-.76-8.79,3.55-13.9,3.67,4.48-5.21,10.91-5,15.36-8.48,3.25-2.56,5.14-5.78,4.61-9.7-.57-4.24-4.56-1.28-6.72-2.44l.23.18c2.78-2,5.95-3.54,8.25-6,4.69-4.89,2.42-14-3.48-13.3-9.7,1.08-19-4.07-28.77-.34-7.61,2.91-15.77,4.37-23.63,6.68C378,386.45,366,395,349.88,393.27c2.91,4.18,6.06.71,8.3,5.8-16.31-4.51-25.38,9.2-40.71,11.21,6.77,4,11.78.78,16.91,1.75-1.9,3.19-7.25-.4-6.95,4.94,4.43,3.13,9.34-3.07,14.43,1.21-2.68,0-4.74.28-6.69-.06-3.54-.63-7.29.48-7.43,3.59-.15,3.27,4,2.8,6.72,2.84,3.33,0,6.65,0,12.49,0-6.06,3.21-10.45.58-13.87,3.28,12.38,5.32,25.34,2.09,37.92,3.51-5.33.19-10.88.09-16,1.55-7.46,2.14,2,2.75.71,4.58l.19,0c-3.26-1.67-6.44-1.49-12.05,1.68,23.27,5,44.19,7.45,65.45,1.2,1.22-1.41,5.2-.71,4.19-2.82S409.29,435.9,407.61,438.48ZM130.41,194.55q-.49-.62-1-1.25l21.56-22-.16.15c-.5,1.59-.66,3.41-1.55,4.75-5.24,7.84-2.72,14.74.51,22.86,4.48,11.27,11.07,5.44,18.36,5.92,11,.73,21.37,4.35,30.68-4.39l-15.36,20.93c-2.58-8.06-7.41-11.38-14.69-9.5-14.8,3.82-23.54,17.49-22.53,32.81.45,6.87,4.85,12.73,4.4,20a38.81,38.81,0,0,0-4.76-3c-11-4.84-18.77-3.59-21.6,3.37-3.79,9.31,1,18.5,12.22,22.55,8.27,3,16.83,3.14,25.46,1.36,18.25-3.77,25.49-20.06,15.66-36-2.31-3.74-5.79-6.75-8.74-10.1q.54-.67,1.11-1.33c4.78.34,7.9,4,11.89,5.95,8.83,4.29,16.37,3,21.6-5.21,10-15.69,25-24.25,42.4-22.91,18.23,1.41,29-3.71,36.06-20.49,2-4.79,1.83-6.2-1.6-8.78-14.55-11-26.15-26.29-46.2-30.5,9.12,1.11,16.07,0,16.78-12.77,6.93,21.65,22.39,32.08,38.07,42.19,3.8,2.45,7.26,2.66,7.16-3.8-.17-10.46,5.27-18.46,12.65-25,4.77-4.24,5.56-7.25-.14-11-17.43-11.58-34.22-23.83-55.42-28.75-29.41-6.82-53.75,8.27-56.49,36.85-1,10.14,3.2,18.47,9,26.64,5.45,7.63,11.31,1.38,16.89,2,2.17.24,4.35.28,6.53.41-11.49,2.23-20.57,9.17-30.5,14.2-3.31-3.08.61-4,1.85-5.34,2.14-2.29,3.53-4.08.6-6.79-6-5.54-8.6-13.18-11.81-20.67-7.34,9-12.74,17.85-6.3,30.89-7.54-5.21-2-16.56-14.53-15.9,13.07-10.61,19.94-23,24.38-37,1.63-5.15.75-7-4.64-7-10.06-.1-19.88.6-29.39,4.49-23.51,9.61-40.64,26.57-55.6,46.46-6,8-3,13,3.43,18.1,2,1.59,5.5,1.18,6.34,4.78a9.1,9.1,0,0,1-7.9-.43C98.78,208.9,95,212,91.39,216.84c-8.44,11.52-3.71,54.53,7.25,63.49,2.91,2.38,6.6,3.78,9.58,6.09,4.83,3.73,10.42,7,11.62,13.8l.13-.09c-8.33-2.36-11.77-12.25-21.26-13.62a20.46,20.46,0,0,0-.19,4c3.19,20.63,29,46.85,49.85,50.49a19.5,19.5,0,0,0,9.18-.48c4-1.33,7-3.67,2-8-4.63-4-6.59-9.87-7.66-15.5-2.49-13.16-6.46-23.7-21.5-28.15-9.63-2.85-12.83-14-10.23-24.3,2.53-10,10.5-8.17,17.6-8,3.07.08,5.22.34,4.8-4.14-1-10.61-4.15-13.81-14.8-13.63-13.22.21-19.93,5.15-20.17,15-7.82-6.49,1.31-15-3.16-22.91,4.65,9.47,11.48,5.16,17.65,4.86,12.14-.57,20.65-4.1,26.91-16.61,5.62-11.22-2.71-15.39-5.56-22.49C140.4,189,135,194,130.41,194.55Zm334,12.16c-7.29-7-10-16.39-11.67-25.65C448,155,431,142.68,406.79,137.15c-10.38-2.38-18.19.36-24.25,9-7.93,11.32-16.34,22.3-26.89,31.31-6.1,5.2-8.92,11.2-7.63,19,3.16,19.22-4.84,32.66-21.51,41.55-18.91,10.09-21.88,27.3-21.47,46.44.17,7.92,4,7,8.25,4.12,7.92-5.45,15.42-11.52,23.08-17.36,3.12-2.38,4.84-6.58,2.8-9.12-6.38-7.91,1.19-8.32,5.05-10.85,2.31-1.51,4.64-3,7-4.48l1.43,1.85c-.85,1.06-1.64,2.17-2.55,3.18-3,3.3-9.16,4.79-6.55,11.29,1.59,4,5.25,3.6,8.67,4.23,7.54,1.38,7-4.77,8.53-8.78,3.34-8.91,9.62-13,19.05-12.61,3.21.12,6.44-.24,9.37-.37.83-4.32-2.66-7.24-.4-11.33,2.37,4.14,4.37,8,6.75,11.7,10.22,15.74,27,20.52,44.12,12.69C452,253,456.25,241.09,450,229c-3.48-6.72-7-13.47-10.9-19.92-2.13-3.49-3.59-8.66-9.9-6.57-5.33,1.77-6.28,5.84-6.36,10.55-.15,8.51-.23,17-.33,25.54l.11-.25c-4.93-11.89-4.32-24.14-2.12-36.43,1.4-7.84-1.16-12.33-9.38-13.91a48,48,0,0,0-18.28-.36c-6.74,1.22-12.32,6.1-20.26,6.24,2.12-4.07,5.31-4.72,8-6.12,8.24-4.3,17.12-7.94,17.41-19.51.13-5.25,3.52-.9,5.09-1,2.93-.24,2.68,1.15,1,3.59-4.33,6.47-3.65,11.4,5.32,12.66,7.37,1,13.2,4.42,15.15,12,.77,3,1.85,2.93,4.2,2.2,6-1.87,8.71,2,11.28,6.49q7.22,12.52,14.84,24.8c5.45,8.83,13.23,8.26,21.75,5.35,9-3.06,11.77-9.43,11.44-18.39-.72-19.72-14-29.34-29.19-38.13-3,11,4.87,19.35,5.34,29.11ZM172,299.76c-6.31-8.76-14.85-5.18-24.19-5.3,4.89,8.92,7.52,17,9.89,25.26,1.2,4.17,3.64,7.16,8.49,8,15.82,2.61,29-9.05,28.09-25-.08-1.43-.82-3.41,1.54-4.19,2.95,2,2.59,5.45,3.73,8.17,1.5,3.55,3.56,5.4,7.94,4.52,16.15-3.25,32.24-6.4,47.43-13.27,7.69-3.47,9.79-8.62,8.43-16.48-1.13-6.52-3.1-13-1.65-19.9a105.87,105.87,0,0,0,6.54,26.36c3.5,9.36,11.18,11.74,20.22,10.15,8.34-1.47,12-6.63,11.79-15.39-.66-23.21,7.48-41.63,29.39-52.5,10.71-5.32,13.42-14.36,11.71-26-2-13.37-.71-25.83,12.86-34.23,7.86-4.87,13.52-12.62,18.08-20.93s2.86-14.13-5.37-18.87c-10.49-6-21.53-7.63-32.81-3.94-8.23,2.69-12.34,9.56-12.79,18.19-.49,9.23,8.24,4.17,12.44,7.59-1.91.93-3.35,1.79-4.9,2.36-29.91,10.93-34.57,36.1-12.38,57.76,3.17,3.1,6.26,6.65,3.91,12.34-6-7.49-11.76-14.68-17.41-22-1.5-1.94-2.79-4.65-5.51-3.8A24.39,24.39,0,0,0,282.11,213c-2.33,5.55-7.18,10.95-1.13,17.84,5.58,6.36,9.45,14.07,9.2,24.8-4.53-8.28-8.1-15.25-14.18-20.57-13.08-11.47-35.7-13.47-52.2-3.55-14.56,8.75-12.17,22.23-9,35.86,1.1,4.78,2.08,10-1.63,14.78-2.62-7.5-1.62-15.48-5.35-22.54s-8.34-7.77-14-3c-2.58,2.15-5.52,4.93-6.34,8-3.4,12.63-11.59,23.06-15.52,35.38Zm238.35-18.2.11,0c-6.71,11.87-8.73,24.93-9.88,38.26-.48,5.59.81,10.18,5.54,13.45,11.23,7.77,22.77,14.23,37,8.06l1.73,1.82a17.92,17.92,0,0,1-2.32,2c-4.38,2.71-10.09,5.12-8.69,11.34s7.15,8,13,8.23c9.63.35,19.36,1.32,28.87.36,20.52-2.06,30.22-25.58,17.81-42-4.65-6.14-8.87-5.74-12.08,1.32-3.5,7.68-3.12,15.94-2.75,24.3-1.06-.42-1.81-.49-2.19-.91-7.18-7.86-2.41-15.22.78-22.83,4.72-11.27,1.71-17.76-8-15.9-11.42,2.2-22.28,1.22-33.68-1.39L441,297.19c7.29,10.26,17.1,10.19,27,8.42,4.73-.84,10-1.6,12.3,2.39,3.4,6,9.43,6.22,14.12,9.26,8.4,5.44,9.25-1.07,10.47-6.25.78-3.32-18.5-26.24-22.17-27.18-.64-.16-1.31-.25-2-.37l.22.17c.08-8.12,0-16.22-1.69-24.4,3.17,5,5.32,10.23,7.72,15.39,2.76,5.93,5.58,11.84,8.69,17.59,1.46,2.68,4.23,4.74,5.7.21,5.48-16.93,9.36-34,0-50.94-1.75-3.17-4.06-8.29-7.89-7-11.67,4-24.71,3.76-35.29,11-6.33,4.32-8.73,9.56-2.93,16.38,4,4.72,7.29,9.93,6.39,17.11-8.21-16.9-8.19-16.73-27.81-14.25-11.88,1.5-24,3.5-34.32-5.44-8.51-7.36-20.62-9.49-28.57-5.36-9.88,5.14-5.9,14.38-6.57,22.17-.6,7,2.67,10.95,10,10.94.21,0,.43-.42.64-.64,0,.23,0,.47,0,.7-10.75,5.86-18.31,5.92-25.12.19,3-2.41,8.82,2.48,10.32-3.68a7.57,7.57,0,0,0-2.83-8.35,12.31,12.31,0,0,0-10.9-1.69,50.35,50.35,0,0,0-16.61,8.12c-9.09,6.79-17.8,14.6-27.9,19.36-7.76,3.66-12.52,7.57-15,15.78-1.29,4.3-3.73,9.64-10.14,9.57v.16c2.88-1.71,4-4.72,5.18-7.53,1.78-4.27,5.72-8.88,1.76-13.32a15.13,15.13,0,0,0-16.08-4.64c-22,6.93-44.43,11.83-66.65,17.7-10.48,2.77-19.76,15.77-18.78,26.22-1.38-1.75-2-2.93-3-3.7-1.88-1.5-.24-5.62-3.5-5.51s-3.78,3.43-4.64,6c-3.07,9.43,2.43,16.27,9.21,19.64,22.88,11.36,45.7,25.1,73.12,14.34,2.14-.84,5.34-1.56,7-.58,12.54,7.26,23.71,1.74,35.72-2,8.75-2.75,18.46,0,27.71,1,5.61.59,10.92-.55,11.74-7,.85-6.72,2.16-14.4-.25-20.2-1.89-4.57-9.4.34-14.34-.81-2.34-.54-4.64-1.24-7-1.68-4-.73-18.52,7.21-17.73,9.87,1.95,6.55,7.63,4,12.15,4.21.44,0,.86.6,1.44,1-3.11,4.07-7.75,3.91-11.42,2.8-10.11-3-20.23-2.29-30.49-2-7.51.22-14.28-2.4-18.23-9.62-3.78-6.91-10.39-8.62-17.42-9.12-5.24-.37-10.53-.07-16.4-.07,13.49-7.8,32.19,3.81,41.34-14.56,1.73,2.82-.21,4.45-.94,6.17-7,16.54-.69,25.37,17.44,22.72,16.89-2.48,31.48-9.19,39.43-26.14,3.45-7.35,6.53-15.3,13.59-20.51-3.15,7.56-7.32,14.61-9.53,22.48-1.76,6.26.39,9.18,7.07,8.42,8.78-1,17.19-3.69,23.17-10.14,10.58-11.39,23.71-18,38.46-20.58,11.06-2,16-9.18,15.67-18.11C401.46,283.42,405.64,283.14,410.38,281.56ZM186.75,378.91c4.33,18,16,24.2,32.06,25.1,15.35.86,30.93.18,45.61,6.53,2.87,1.24,6.81.26,10.23-.07,10.4-1,20-5,29.64-8.57,14.86-5.6,29.78-11.22,45.28-19.78-5.06-1.65-6-8-10.39-5.31-10.42,6.47-21.13,4.41-32,2.72-8.28-1.28-15.41.27-21.59,6.73-7.49,7.82-15.07,9.84-25.16,8.13,4.48-1.87,9.51-2.23,13.23-6.44-7.21-5.79-15.18-8.23-24.08-6.18-7.14,1.64-14.28,2-21.54,2.26C214.17,384.44,200.75,381.64,186.75,378.91ZM320,473.56c6.77-1.11,13.51-2.57,20.33-3.21,6.56-.61,6.86-2.84,3.3-7.69-8.55-11.64-16.88-23.43-25.25-35.19C306.9,411.33,306,411.27,288,420c-4.18,2-3.78,3.21-1.9,6.66q10.39,19,20,38.46C309.13,471.08,312.95,474.5,320,473.56ZM281.45,123.74c9.1,10.75,20.45,16.41,33.46,20.89-4.36-7.39,8.68-15.36-.42-20.73C304.66,118.11,293.17,114,281.45,123.74Z"/><path class="cls-2" d="M205,342.93c2.26-2.34,4.15-1.48,7.31-1A7.63,7.63,0,0,1,205,342.93Z"/><path class="cls-2" d="M443.2,341.3l7.53-4.9c-1.22,4.54-3.42,5.71-5.8,6.72Z"/><path class="cls-2" d="M454.79,335.88l-2.29,1.65c-.27-.71-1-1.8-.74-2a7.24,7.24,0,0,1,2.35-1.18Z"/><path class="cls-2" d="M480.77,283.47l-.25,1.48c-1.62-1.08-.16-1,.47-1.3Z"/><path class="cls-2" d="M410.38,281.56l.23-.31s-.14.27-.13.27Z"/><path class="cls-2" d="M276.9,326.42l.23,1.16c-.07-.32-.13-.65-.22-1A.7.7,0,0,1,276.9,326.42Z"/><path class="cls-2" d="M171.9,299.94a6.67,6.67,0,0,1,2.78,7.31c-2.84-1.37-1.8-4.79-2.66-7.48Z"/><path class="cls-2" d="M369.58,202.86a9.06,9.06,0,0,1,0-2.14,8.89,8.89,0,0,1,1-1.81,14,14,0,0,1-.1,2.34A6.5,6.5,0,0,1,369.58,202.86Z"/><path class="cls-2" d="M363.82,233.41l-1,1.22c.12-.51.23-1,.38-1.53a9,9,0,0,1,.34-.86Z"/><path class="cls-2" d="M355.07,243c1.17-.74,1.4-3.64,3.62-1.6a24.24,24.24,0,0,1-2.05,3Z"/><path class="cls-2" d="M464.23,206.91c2.11-.35,2,1.1,1.89,2.43,0,.28-.39.54-.6.81l-1.1-3.44Z"/><path class="cls-2" d="M354.58,246.46l-2,2.2-1.43-1.85,2.06-1.95Z"/><path class="cls-2" d="M353.25,244.86l1.83-1.83,1.57,1.36-2.06,2.07Z"/><path class="cls-2" d="M422.47,238.55l1.23-.86.5,1.22c-.53-.21-1.07-.43-1.61-.63Z"/><path class="cls-2" d="M168.91,243l-3-2.21c1.68-1.16,3.06-1,4.08.89Q169.45,242.36,168.91,243Z"/><path class="cls-2" d="M131.94,321.41c3.19-7.94-2.23-9.57-7-15.09,6.33,3.06,10.24-3,12.29-.26C140.16,309.93,138,315.09,131.94,321.41Z"/><path class="cls-2" d="M123,216c.65.81,2.6,1.3,1.45,2.57-.85.94-2.35.46-2.8-1.15A19.26,19.26,0,0,0,123,216Z"/><path class="cls-2" d="M118.74,216.43c-1.36-.37-3.12-1.53-2.45-2.48,1.32-1.86,2.82-.67,3.75,1A9.66,9.66,0,0,0,118.74,216.43Z"/><path class="cls-2" d="M130.41,194.55c-.8,1.94-2.08,2.15-3.73,1l2.77-2.28Q129.92,193.93,130.41,194.55Z"/><path class="cls-2" d="M122.28,301.92c1.32.38,2.51,1.39,1.62,2.54-1.63,2.11-2.27-.47-3.3-1.13Z"/><path class="cls-2" d="M151,171.29h.24l-.41.17Z"/><path class="cls-2" d="M121.67,217.47l-2.93-1a9.74,9.74,0,0,1,1.3-1.48l3,1.1A19.49,19.49,0,0,1,121.67,217.47Z"/><path class="cls-2" d="M119.85,300.21c1.5-.41,2.09.47,2.43,1.71l-1.68,1.42c-.71-1-2.28-1.78-.62-3.21Z"/><path class="cls-2" d="M378.07,419.36c-8.89,2.06-17.71,6.29-27.47,4.36C359.72,422.5,369.39,424.65,378.07,419.36Z"/><path class="cls-2" d="M350.37,415l20.32-5C363.36,415.2,356.54,413.78,350.37,415Z"/><path class="cls-2" d="M392.61,427.87l-12.06,2.57C383.88,426.45,388.21,427,392.61,427.87Z"/><path class="cls-2" d="M395.53,438.64H372.62v-.79h22.92Z"/><path class="cls-2" d="M431.84,388.39a14.24,14.24,0,0,1-9.65,4.28A11.65,11.65,0,0,1,431.84,388.39Z"/><path class="cls-2" d="M385.92,405.16l8.14-1.93C391.67,405.45,389.23,407.37,385.92,405.16Z"/><path class="cls-2" d="M443.94,380.22c-1.27,3.75-3.69,5.56-8,4.46Z"/><path class="cls-2" d="M409.6,410.9c-3.35,1.61-6.16,3.78-10.31,2.72C402.52,411.46,405.43,409.6,409.6,410.9Z"/><path class="cls-2" d="M415.71,395.66c-.85,2.75-4.69,2.8-4.79,2.69-2.49-2.73.88-2.06,1.82-2.61C413.45,395.33,414.6,395.66,415.71,395.66Z"/><path class="cls-2" d="M407,422c3.62-1.71,6.49-4.07,10.73-2.81C414.4,421.19,411.31,422.79,407,422Z"/><path class="cls-2" d="M360.83,404.2l-8,3.35c1.83-3.76,4.87-3.87,8.17-3.2Z"/><path class="cls-2" d="M382.62,396.2c-2.62,1.26-4.41,3.65-7.5,2.35C377,396.06,379.33,395.45,382.62,396.2Z"/><path class="cls-2" d="M401.78,387.1c-2.4,4-5.36,3.85-9,4.64C395.37,388.44,398.11,388,401.78,387.1Z"/><path class="cls-2" d="M418.59,381.07c-2,2.47-4.55,3-8.06,2.53,2.56-2.89,5.34-2.82,8.22-2.35Z"/><path class="cls-2" d="M355.73,437.47c3.07,2,5.58.21,8.39-1.35-2.46,3.24-5.71-.17-8.19,1.39Z"/><path class="cls-2" d="M438.92,395.21c.7,3.38-1.52,3.52-4.83,3.64,2.17-1.46,3.63-2.45,5.08-3.45Z"/><path class="cls-2" d="M418.75,381.25c.51-2.09,2.11-2.28,3.81-2,.35,0,.6.74.9,1.14l-4.87.72Z"/><path class="cls-2" d="M424.86,403.93c-1.07,2.16-2.74,2.06-6.12.75l6.3-.57Z"/><path class="cls-2" d="M425,404.11c-.13-1.84,1.2-1.94,2.48-2,.23,0,.47.42.71.64l-3.36,1.17Z"/><path class="cls-2" d="M361,404.36l-.21-.17Z"/><path class="cls-2" d="M388.63,357.72c-.28-.61-.92-1.49-.73-1.72a24.8,24.8,0,0,1,2.72-2.66c.16.84.7,1.89.39,2.47C390.55,356.62,389.46,357.09,388.63,357.72Z"/><path class="cls-2" d="M394.93,348.76c-.67,1.26-.46,4.18-2.69,2.89-1.65-.95-.28-2.95,1.21-4Q394.18,348.22,394.93,348.76Z"/></g></g></svg>