<?xml version="1.0" encoding="utf-8"?>
<!-- Generator: Adobe Illustrator 21.1.0, SVG Export Plug-In . SVG Version: 6.00 Build 0)  -->
<svg version="1.1" id="Слой_1" xmlns="http://www.w3.org/2000/svg" xmlns:xlink="http://www.w3.org/1999/xlink" x="0px" y="0px"
	 viewBox="0 0 588 601" style="enable-background:new 0 0 588 601;" xml:space="preserve">
<style type="text/css">
	.st0{fill:#FFFFFF;}
</style>
<g>
	<path class="st0" d="M1,460c0-2.7,0-5.3,0-8c4.9-8.3,12.1-14.1,20.2-18.9c22-13,46.3-17.6,71.4-19c13.1-0.8,26.2,0.5,39.1,2.5
		c0.5-1.2-0.2-1.8-0.5-2.5c-8.5-15.6-12.7-32.4-13.9-49.9c-1.5-21.7,1.7-43.1,8.5-63.8c16.3-50.1,46.6-90.5,87.3-123.2
		c32.2-25.9,68.3-43.9,109.4-50.8c18.5-3.1,37-3.4,55.5,0.3c10.9,2.2,21.4,5.7,31.8,10.4c-2.6-19-3.7-37.6-1.7-56.4
		c2.5-23.3,9.9-44.9,22.1-64.9c3.6-5.9,7-12.2,14.1-14.9c2.3,0,4.7,0,7,0c4.3,2,7.7,5,10.3,8.9c5.6,8.2,11.4,16.4,17.1,24.6
		c3.7,5.3,8.8,8.6,15.2,9.5c6.2,0.9,12.5,1.3,18.8,2.1c13.9,2,25.8,7.6,33.6,19.8c6.4,9.9,7.2,21.3,7.9,32.5
		c0.8,12.3,12,29.8,22.8,33.5c5.9,2,10.2,5.3,12.3,11.2c0,2.7,0,5.3,0,8c-3.6,4-6.6,8.6-11.1,11.8c-29.7,21.9-63.8,26.7-99.5,25.6
		c-6.7-0.2-13.3-2.2-20.1-1.3c0.4-0.1,1.1,0.1,0.6-0.7c-0.2,0.2-0.3,0.5-0.5,0.7c6.3,12.9,10,26.7,11.4,41
		c2.3,24.1-1.1,47.7-8.7,70.6c-10.9,33-28.6,62.1-51.6,87.9c-19.7,22.2-42.3,41.1-68.1,55.8c-28.1,16.1-57.8,27.1-90.4,29.7
		c-14.2,1.2-28.2,0.5-42.1-2.1c-10.1-1.9-19.7-5.4-29.6-9.3c3.1,19.7,4.7,38.9,2.7,58.4c-2.1,20.7-7.7,40.4-17.5,58.7
		c-4.8,9-9.2,18.5-18.6,24c-2.7,0-5.3,0-8,0c-4.4-2.2-7.7-5.4-10.5-9.4c-5.1-7.6-10.3-15.1-15.5-22.6c-4.3-6.3-9.8-10.6-17.8-11.3
		c-6.8-0.6-13.5-1.4-20.2-2.7c-19.6-3.8-32.7-14.7-36.3-35.1c-1.3-7.3-1.2-14.9-3-22.1c-3.1-12.3-9.6-22.8-21.6-28.3
		C7.9,468,3.8,465,1,460z"/>
</g>
</svg>
