<?xml version="1.0" encoding="utf-8"?>
<!-- Generator: Adobe Illustrator 21.1.0, SVG Export Plug-In . SVG Version: 6.00 Build 0)  -->
<svg version="1.1" id="Слой_1" xmlns="http://www.w3.org/2000/svg" xmlns:xlink="http://www.w3.org/1999/xlink" x="0px" y="0px"
	 viewBox="0 0 612 617" style="enable-background:new 0 0 612 617;" xml:space="preserve">
<style type="text/css">
	.st0{fill:#493848;}
</style>
<g>
	<path class="st0" d="M203.2,615.1c-4.5-22.3,5.4-34.1,26.3-41.4c33.3-11.6,42.4-42.7,52.2-72c4.5-13.4,5.4-27.8,5.3-42.1
		c0-9.7-2-16-11.6-20.9c-12.6-6.4-14.7-17.6-3.7-24.2c19.9-11.8,15.2-29.5,14.6-46.3c-0.9-26.1-16.9-41.5-37.7-55.1
		c-37.1-24.2-77.9-42.7-112.5-70.9c-42.7-34.8-77.6-74.8-89.6-130.5c-4.3-19.9-5.6-39.9-0.1-59.9c11.1-40.4,45-58,87-45.1
		c14.2,4.4,27.1,11,37,22.5c0.4-0.3,1.4-0.7,1.4-1.2c1.2-25,1.2-25,26-25c79.7,0,159.3,0.1,239-0.1c11.1,0,21.6-1.1,16.7,17
		c18-10.5,35.1-17,54.3-17c40.4-0.1,61.1,30.2,63.5,63.2C576.1,130,547.2,179,503,221.3c-27.1,26-58.7,45.6-90.8,64.8
		c-22.3,13.3-42.6,30.3-63.4,46c-9.4,7.1-7.1,18.9-8.9,28.6c-1.8,9.6-0.9,19.9-0.3,29.8c0.5,8.8,5.8,15.3,12.3,20.9
		c7.3,6.3,11.1,16.3,2.3,21.2c-18.5,10.2-16,26.2-14.5,41.4c2.6,26,8.8,51.2,25.2,72.8c11.5,15.2,25.4,27.9,42.8,34.9
		c12.6,5.1,17.3,12.2,15.5,25c-0.4,2.7-0.1,5.6-0.1,8.4C349.8,615.1,276.5,615.1,203.2,615.1z M179.7,233.2
		c-8.5-31.1-11-60.8-10.1-90.9c0.6-19.5,0.1-39,0.1-58.5c0-4.4,0-8.5-3.9-11.8c-10.6-8.9-21.1-18-34-23.6
		c-18.2-7.7-33.4-2.6-42.5,15C80.9,79.5,81,96.6,85,113.7c7.2,30.5,24.4,55.5,45.3,78.1C144.5,207.2,160.3,220.9,179.7,233.2z
		 M446.4,226.4c27.9-22.4,51.9-44.8,68.5-74.3c11.4-20.3,20.3-41.5,18-65.2C530.2,58,511.3,30.4,472.8,54
		c-13.4,8.2-19.2,17.4-19.3,34.1C453.3,133.3,459.7,179.1,446.4,226.4z"/>
</g>
</svg>
