<?xml version="1.0" encoding="utf-8"?>
<!-- Generator: Adobe Illustrator 21.1.0, SVG Export Plug-In . SVG Version: 6.00 Build 0)  -->
<svg version="1.1" id="Слой_1" xmlns="http://www.w3.org/2000/svg" xmlns:xlink="http://www.w3.org/1999/xlink" x="0px" y="0px"
	 viewBox="0 0 471 507" style="enable-background:new 0 0 471 507;" xml:space="preserve">
<style type="text/css">
	.st0{fill:#57305C;}
</style>
<g>
	<path class="st0" d="M97.6,503.5c-7.7-3.8-9.8-9.8-9.1-18.3c2.4-28.5,4.2-57.1,6-85.7c0.2-2.7,2.5-6,0.6-7.8
		c-1.4-1.4-4.9-0.4-7.5-0.6c-7.9-0.8-12.8-5.4-14.4-13.5c-7.8-39.6-15.6-79.3-23.4-119c-2.5-12.6-4.9-25.2-7.4-37.8
		c-1.9-9.7,3-17.3,12-18.9c7.9-1.4,15,4.3,16.8,13.3c9.4,47.6,18.8,95.2,28.1,142.9c0.5,2.7,1.2,3.8,4.2,3.8
		c11.7-0.2,23.4-0.1,36.3-0.1c-2.3-1.3-3.7-2.1-5.1-2.9c-10.8-6.8-17-16-16.9-29.3c0.3-32.5,0.1-65.1,0.3-97.6
		c0.2-23.8,15.5-43.7,38.4-49c12.3-2.9,25-3.2,37.1,0.8c13.2,4.4,20.5,14.2,22.3,28.1c1.1,9.1-0.4,18.1-0.9,27.4
		c-3.4-5.6-6.7-11.2-10.1-16.8c-3.4-5.6-6.8-11.3-10.2-16.9c-0.4,0.1-0.7,0.3-1.1,0.4c0.5,1.5,1,3,1.5,4.4
		c4.3,13.3,8.8,26.5,12.9,39.8c1.3,4.1,3.1,5.4,7.5,5.2c12-0.4,23.9-0.1,37-0.1c-5.2-9.4-9.7-17.5-14.1-25.5c-1.1-2-2.3-4-1.9-6.4
		c0.5-3.1,2.1-5.4,5.4-6.2c3.9-0.9,6.7,0.8,8.6,4c4.2,7.3,8.7,14.6,12.1,22.2c3.5,7.8,7.7,11.7,17.2,11.3
		c13.8-0.5,22.6,15.8,16.4,28.4c-0.8,1.7-1.9,3.3-3.3,5.5c2.1,0,3.8,0,5.5,0c21.6,0,43.3,0,64.9,0c11.3,0,17.1,5.8,17.1,17.1
		c0,60.2,0,120.4,0.1,180.6c0,8.5-3.9,13.9-11.6,17c-16.6,0-33.2,0-49.8,0c-0.2-0.2-0.4-0.6-0.6-0.7c-8.4-3.8-11.8-9.8-10.1-17.6
		c1.6-7,7.5-11,16.2-11.1c8-0.1,15.9-0.1,23.9-0.2c0.9,0,2,0.8,2.3-0.8c0.1-1.9,0.3-3.9,0.3-5.8c0-41.6,0-83.1,0-124.7
		c0-5-0.1-10.1-0.2-15.1c0-0.9,0-1.8,0-2.7c0-1.7,0-3.4,0-5.1c0.2-0.6,0.4-1.3-0.5-1.5c-2.6-0.6-5.2-0.3-7.8-0.2c-0.6,0-1.3,0-1.9,0
		c-18.6,0-37.1,0-55.7,0c-1.2,0-2.5,0-3.9,0c0.7,1.2,1.7,1.6,2.8,1.8c11.6,10.7,13.3,18.6,7.4,33.5c-17,42.8-34.1,85.6-50.8,128.5
		c-4.1,10.5-9.7,18.5-20.9,21.5c-3.3,0-6.5,0-9.8,0c-0.3-0.3-0.6-0.8-1-1c-16.2-6.8-21.2-18.6-14.8-34.9
		c4.1-10.4,8.2-20.8,12.3-31.2c8.9-22.5,17.7-45,26.8-67.4c1.4-3.4,1-4.6-2.9-4.3c-3.4,0.3-6.9,0.3-10.2,0c-3.5-0.3-5.1,1.1-6.3,4.3
		c-9.4,24.4-19,48.7-28.5,73c-1.6,4.1-3.3,8.1-5,12.2c-1.5-17.1-2.2-34-3.3-50.9c-0.5-8.3-4.6-11.9-12.9-12
		c-10.9-0.1-21.8-0.1-32.7,0c-8,0.1-11.9,3.9-12.5,11.9c-2,27.7-4.1,55.5-5.7,83.2c-0.5,8-2.9,14.1-10.7,17.1
		C100.8,503.5,99.2,503.5,97.6,503.5z M247.5,295.8c-16.9,0-33.5,0-50.1,0c-11.5,0-18.3-4.8-21.9-15.6c-5.5-16.6-11-33.3-16.5-49.9
		c-0.5-1.4-0.5-3.1-2-4c-1.6,1.5,0,2.5,0.1,3.7c1.6,17.8,3.4,35.6,4.9,53.4c1.3,16.4,12.3,26.9,28.7,26.9c6.5,0,13,0,19.5-0.2
		c3-0.1,5.2,0,4.5,3.9c-0.3,1.7,0.7,2.3,2.3,2.3c11.4,0,22.9,0,35.4,0C245.3,309.9,244,303.3,247.5,295.8z"/>
	<path class="st0" d="M405.2,3.5c3.8,1.2,7.6,2.3,11.3,3.7c25.3,9.5,39.3,34.8,34.6,62.2c-4.3,24.8-28,44.2-54,44.2
		c-26.4,0-49.4-19.2-54.1-45.3c-5.3-29.3,13.4-57,43.2-63.8c0.9-0.2,2,0.3,2.4-1C394.1,3.5,399.6,3.5,405.2,3.5z M404.3,41.6
		C404.3,41.6,404.3,41.6,404.3,41.6c0-5.5,0-11,0-16.6c0-3-1.2-5.3-3.9-6.8c-5.2-2.8-10.5,0.9-10.7,7.7c-0.2,7-0.3,14,0.1,21
		c0.2,3.8-1.1,4.7-4.7,4.4c-3.9-0.3-7.8-0.1-11.7,0c-4.8,0.1-8.1,3.2-8.1,7.3c0.1,3.8,3.3,7.1,7.8,7.2c7.8,0.2,15.6,0.2,23.4,0
		c5.1-0.1,7.6-3,7.7-8.1C404.4,52.4,404.3,47,404.3,41.6z"/>
	<path class="st0" d="M186.2,136.8c0-24.4,20-44.4,44.3-44.5c24.4,0,45,20.6,44.7,44.8c-0.3,24.4-20.3,44.1-44.7,44.2
		C206.1,181.4,186.2,161.4,186.2,136.8z"/>
	<path class="st0" d="M338.9,227.9c0.3,5.8-1.8,8.8-6.2,9.2c-4.7,0.5-7.5-2.2-8.4-8c-2.8-18.9-10.7-26.6-29.8-29.4
		c-5.3-0.7-8-3.8-7.5-8.3c0.5-4.1,3.7-6.4,8.9-6.2C319,185.9,337.8,204.6,338.9,227.9z"/>
	<path class="st0" d="M317.4,229c0,4.2-1.5,7.3-6,8c-4.3,0.7-7.6-1.4-8.3-6.1c-0.9-6.1-4-9.1-10-9.8c-4.2-0.5-6.5-4-6.1-8
		c0.4-3.8,3.5-6.4,7.8-6.4C306.5,206.6,317.3,217.3,317.4,229z"/>
</g>
</svg>
