<?xml version="1.0" encoding="utf-8"?>
<!-- Generator: Adobe Illustrator 21.1.0, SVG Export Plug-In . SVG Version: 6.00 Build 0)  -->
<svg version="1.1" id="Слой_1" xmlns="http://www.w3.org/2000/svg" xmlns:xlink="http://www.w3.org/1999/xlink" x="0px" y="0px"
	 viewBox="0 0 558 394" style="enable-background:new 0 0 558 394;" xml:space="preserve">
<style type="text/css">
	.st0{fill-rule:evenodd;clip-rule:evenodd;fill:#FDFDFD;}
	.st1{fill:#09B8B3;}
	.st2{fill:#6DCAD4;}
	.st3{fill:#54275B;}
	.st4{fill:#4E1F53;}
	.st5{fill:#31A6A9;}
	.st6{fill:#010101;}
	.st7{fill:#0E9697;}
	.st8{fill:#3C4040;}
	.st9{fill:#37A9AE;}
	.st10{fill:#2EA5A6;}
	.st11{fill:#36A3AA;}
	.st12{fill:#2C9CA0;}
	.st13{fill:#242523;}
</style>
<g>
	<path class="st0" d="M527,173c-1.9-30.6-27.7-51.2-46.9-72.3c-47-51.4-110.3-86.2-188.6-90.7h-27.4C155.4,17,47.2,107.7,35.9,167.6
		c-9.7,33.7-6.7,26.4-4.3,59.8c8,44.9,53.2,85.7,88.1,108.8c44.8,29.6,82.9,43.6,157.6,43.4c78.9-0.2,107.4-8.3,157.4-38.2
		c32.5-19.4,84.2-68.2,92.6-110.6L527,173z M348,292.4c-43,41.6-109,31.7-149.7-1.4l-10.1-13.2c-2.1-3.1-7.7-12.5-10-17.3
		c-51.7-108,98-211.8,175.2-110.9C376.9,159,399.7,242.5,348,292.4z"/>
	<path class="st0" d="M348,292.4c-43,41.6-109,31.7-149.7-1.4l-10.1-13.2c-2.1-3.1-7.7-12.5-10-17.3c-51.7-108,98-211.8,175.2-110.9
		C376.9,159,399.7,242.5,348,292.4z"/>
</g>
<g>
	<path class="st1" d="M353.2,143.3c37.7,47,35.9,104.8-4.5,144.8c-40.5,40.1-100.5,40.6-147.1,1.2c0.2-1.6,0.3-3.3,0.3-5
		c7.2-1,14.2-2.2,13.3-13.5c-5.2,3.1-9.6,5.6-14.1,8.2c-1.3-13.1,1.2-25.5,6.1-37.5c30.8,43.3,69.4,54.9,105.6,31.3
		c14.8-9.6,26-22.6,29.8-40.2c4.2-19.4-21.8-8.1-23.8-21.9c28.5-11.7,30.2-17.2,12.1-41.6c-3.7-5-8.1-9.6-12.2-14.3
		C330.2,151,341.7,147.1,353.2,143.3z"/>
	<path class="st2" d="M201.9,284.4c0,1.7-0.1,3.3-0.3,5c-36-38.4-43.6-78.8-22.3-119.2c1.3,10.9,7.9,14.6,18.6,14.3
		c-2.9-10.3-12.6-9.8-18.6-14.2c3.7-19.9,16.4-32.7,33.3-42.3c1.8,8.1,3,16.7,15,15.9c-1.6-7.9-5.2-13.6-10.9-18
		c13.6-14,30.7-17.4,49.4-16c2.3,6.5-4.1,16.3,7.4,19.9c6.1-10.2,4.4-17-7.5-19.9c25.2-7.2,46.4,1.2,65.6,17
		c-7.9,0.9-16.2,1.4-12.5,15.7c4.9-6.1,8.7-10.9,12.5-15.7c9.4,2.6,17,7.7,21.7,16.5c-11.5,3.8-23,7.7-34.5,11.5
		c-31.2-16.7-61.7-20.6-90.8,4.4c-5.7,1.6-8.9,5.4-10.2,11c-18.1,21.6-16.6,46.1-10.5,71.2c-4.9,12.1-7.4,24.5-6.1,37.5
		C200.6,281,200.9,282.7,201.9,284.4z M175.6,234.1c5.4,0.7,8,1.6,10.3,1.2c4-0.6,10.6-1.8,5.8-7.3
		C187.6,223.3,182.7,228.5,175.6,234.1z"/>
	<path class="st3" d="M519.4,222.4c4.5-10,9.3-18.3,7.4-28.7c-1.2-6.4-6.6-13.9,1.5-19.5c3.5-2.4,6.3,0.9,9,3.3
		c6.9,6,15.7,15.8,12.1,21.5C543.4,208.6,541.6,226.8,519.4,222.4z"/>
	<path class="st4" d="M34.6,173.2c-7.9,19.7-9.1,36.2,0,54.8c-18.6-4.3-27.1-16.3-27.6-27.8C6.3,188.9,15.2,177.6,34.6,173.2z"/>
	<path class="st5" d="M216.6,125.8c5.7,4.4,9.3,10.2,10.9,18c-12,0.7-13.2-7.9-15-15.9C213.7,126.8,215,126.1,216.6,125.8z"/>
	<path class="st6" d="M207.2,241.5c-6.1-25.2-7.6-49.6,10.5-71.2c12.6,10.3-9.9,18.9-1,30.3c16.1-17.4,32.9-33.1,55.2-41.3
		c3.9-0.8,10.5-0.9,8.3-6.2c-3.2-7.7-9.3-4.1-14.2-0.3c-14.1-5.9-23.5,15.6-38.1,6.5c29.1-25,59.7-21.1,90.8-4.4
		c4.1,4.8,8.5,9.3,12.2,14.3c18.1,24.3,16.4,29.8-12.1,41.6c2,13.9,27.9,2.6,23.8,21.9c-3.8,17.6-15,30.5-29.8,40.2
		C276.6,296.4,238,284.9,207.2,241.5z"/>
	<path class="st7" d="M201.9,284.4c-1-1.6-1.3-3.4-0.7-5.3c4.4-2.6,8.8-5.2,14.1-8.2C216.1,282.1,209.1,283.3,201.9,284.4z"/>
	<path class="st8" d="M227.9,159.3c14.6,9.1,24-12.4,38.1-6.5c2,2.2,3.9,4.3,5.9,6.5c-22.2,8.2-39.1,23.8-55.2,41.3
		c-8.9-11.4,13.6-20,1-30.3C219.1,164.7,222.3,160.9,227.9,159.3z"/>
	<path class="st9" d="M266,109.8c11.9,2.9,13.6,9.6,7.5,19.9C261.9,126.1,268.3,116.3,266,109.8C266,109.8,266,109.8,266,109.8z"/>
	<path class="st10" d="M179.3,170.2c6,4.5,15.8,4,18.6,14.2C187.1,184.7,180.6,181,179.3,170.2C179.3,170.1,179.3,170.2,179.3,170.2
		z"/>
	<path class="st11" d="M175.6,234.1c7.1-5.6,12.1-10.7,16.2-6c4.7,5.5-1.9,6.6-5.8,7.3C183.5,235.7,181,234.8,175.6,234.1z"/>
	<path class="st12" d="M331.6,126.8c-3.8,4.8-7.6,9.5-12.5,15.7C315.4,128.2,323.7,127.7,331.6,126.8
		C331.6,126.8,331.6,126.8,331.6,126.8z"/>
	<path class="st13" d="M271.9,159.3c-2-2.2-3.9-4.3-5.9-6.5c4.9-3.9,10.9-7.4,14.2,0.2C282.4,158.4,275.8,158.5,271.9,159.3z"/>
</g>
</svg>
