<?xml version="1.0" encoding="utf-8"?>
<!-- Generator: Adobe Illustrator 21.1.0, SVG Export Plug-In . SVG Version: 6.00 Build 0)  -->
<svg version="1.1" id="Слой_1" xmlns="http://www.w3.org/2000/svg" xmlns:xlink="http://www.w3.org/1999/xlink" x="0px" y="0px"
	 viewBox="0 0 612 328" style="enable-background:new 0 0 612 328;" xml:space="preserve">
<style type="text/css">
	.st0{fill-rule:evenodd;clip-rule:evenodd;}
	.st1{fill-rule:evenodd;clip-rule:evenodd;fill:#0194A8;}
	.st2{fill-rule:evenodd;clip-rule:evenodd;fill:#FEFDFE;}
</style>
<g>
	<path class="st0" d="M235.4,136.7c-34.5,1.8-58.8-18.8-59.5-52.3c-36.3-14.2-73.3,17.1-84.3,38.8c-18.1,35.5-6.2,74.1,15.8,93.7
		C155.8,260.2,251.1,233.8,235.4,136.7L235.4,136.7z"/>
	<path class="st0" d="M526.5,136.6c-19.7,1.4-31.3-2.3-43-13.8c-10.5-10.2-16.3-20.1-16.4-39.7c-67.7-7.4-102.8,45.5-91.7,93.9
		C395.9,266.1,544,259.5,526.5,136.6L526.5,136.6z"/>
	<path class="st1" d="M235.4,136.7c15.7,97.2-79.6,123.5-128,80.2c-22.1-19.6-33.9-58.3-15.8-93.7c11.1-21.7,48-52.9,84.3-38.8
		c1.6-20.3,8.3-27.7,16.5-38.2C162.3,28.5,86.8,46.4,57,101c-61.7,113,69.9,225.4,169.6,157.1c58.9-40.2,60.5-118.9,43.1-141.7
		C259.8,127.4,254.5,131.2,235.4,136.7L235.4,136.7z"/>
	<path class="st1" d="M526.5,136.6C544,259.5,395.9,266.1,375.4,177c-11.1-48.5,24-101.3,91.7-93.9c1.4-22.2,9.2-25.2,16.3-37
		c-22.6-12.4-64-3.1-84.5,6.9c-59.9,29.2-84.9,102.3-50.6,165.5c30.8,56.6,107.4,80.1,170.1,39.1c18.2-12,34.1-30.6,44-55.7
		c14.1-35.6,6.3-52.7,0.2-86.2c-8.8,5.5-8.7,8.6-15.3,13C541.8,132.3,533.9,134.6,526.5,136.6L526.5,136.6z"/>
	<path class="st2" d="M467.1,83.1c0.1,19.6,5.9,29.5,16.4,39.7c11.7,11.5,23.3,15.1,43,13.8c7.4-1.9,15.3-4.2,20.8-7.9
		c6.6-4.4,6.6-7.5,15.3-13c6.1,33.5,13.8,50.6-0.2,86.2c-9.9,25.1-25.8,43.7-44,55.7c-62.7,41.1-139.3,17.6-170.1-39.1
		C314.1,155.3,339,82.2,399,53c20.4-9.9,61.8-19.3,84.5-6.9C476.4,57.9,468.5,60.9,467.1,83.1L467.1,83.1z M458.3,320h-12.2
		c-29-1.2-58.4-10.5-85.5-28.6c-18.9-12.6-48.5-43.3-53.5-64.8c-2.7,3.1-0.9,0.9-3.5,4.9c-1,1.5-2.3,3.7-3.2,5.1
		c-1.9,3.2-3.4,5.9-5.4,9.1c-4,6.4-7.1,11.4-12.3,16.8c-9.9,10.2-19.8,20.8-31.3,28.8C145.4,364.4,0,289.3,0,158.1
		c0-49.8,19.2-77,44.4-109.1c7.4-9.5,32.6-27.2,44-32.7C142.6-10,207.3-4.1,255.5,31.3c38.5,28.2,42.8,54,51.5,60.5
		c2.1-8.8,15.5-27.8,21.3-34.6c8.9-10.5,17.9-18.7,29-27c54.5-40.7,134.1-40.1,190.1,1.8c59.3,44.3,82.5,128.3,49.4,194.1
		C567.2,284.9,514.3,317.8,458.3,320L458.3,320z M175.8,84.3c0.7,33.6,25,54.2,59.5,52.3c19.1-5.5,24.5-9.3,34.3-20.2
		c17.3,22.9,15.8,101.5-43.1,141.7C126.9,326.4-4.7,214,57,101c29.8-54.6,105.3-72.5,135.4-54.9C184.1,56.6,177.4,64,175.8,84.3
		L175.8,84.3z"/>
</g>
</svg>
