<?xml version="1.0" encoding="utf-8"?>
<!-- Generator: Adobe Illustrator 21.1.0, SVG Export Plug-In . SVG Version: 6.00 Build 0)  -->
<svg version="1.1" id="Слой_1" xmlns="http://www.w3.org/2000/svg" xmlns:xlink="http://www.w3.org/1999/xlink" x="0px" y="0px"
	 viewBox="0 0 612 511" style="enable-background:new 0 0 612 511;" xml:space="preserve">
<style type="text/css">
	.st0{fill-rule:evenodd;clip-rule:evenodd;fill:#FEFEFE;}
	.st1{fill-rule:evenodd;clip-rule:evenodd;fill:#B4D234;}
	.st2{fill-rule:evenodd;clip-rule:evenodd;fill:#EC2792;}
	.st3{fill-rule:evenodd;clip-rule:evenodd;}
	.st4{fill-rule:evenodd;clip-rule:evenodd;fill:#95B02B;}
	.st5{fill-rule:evenodd;clip-rule:evenodd;fill:#D1D2D4;}
	.st6{fill-rule:evenodd;clip-rule:evenodd;fill:#B61D72;}
</style>
<g>
	<path class="st0" d="M225.8,469.3c-1.6-5.9-14.4-15.7-24.6-35.6c-7.1-13.8-12.4-25.9-16.2-42.8c-22.5-98,35.9-193.8,148.5-200.7
		c109.2-6.6,179.2,93.6,158.7,192.8c-6.5,31.9-18.8,63.2-37.7,80.2l3.4,2.1c0.4,0.1,0.8,0.3,1.2,0.5l35.8,7.1
		c12.6,2.6,27.7,6.2,40.2,7.3c7.5-19.2,16.9-35,22.7-57.7c17.6-68.1,10.6-138-23.3-197.6c-35.8-62.8-101.5-120.2-206-114.2
		c-48.4,2.8-88,17.2-121.6,39.6C115.7,211.3,87.6,337.1,123.2,438c5.4,15.3,17,44.3,26.7,52.6c12.1-0.1,27.6-7.6,38.6-11.2
		C194.9,477.4,223,471.3,225.8,469.3L225.8,469.3z"/>
	<path class="st0" d="M274.3,273.7c3.7,9.2,5.9,11.9,13.6,16c6.9,3.6,16.2,5.7,24.9,2.6c17.1-5.9,20.4-20.6,18.9-41.1
		c-0.2-0.4-0.5-1.4-0.7-1.2c0,0-11.5-27-39.1-17.8C277.8,237,269.4,253.4,274.3,273.7L274.3,273.7z"/>
	<path class="st1" d="M99.1,398.7c-1.8-43.2-9.1-55.6,2.5-107.9c7.8-35.3,24.6-72.2,45.8-98.4l13.8-15.7c30.7-32.3,65-53.5,111-65.7
		c87.5-23.2,180.1,0.1,240.8,59.9c17.2,17,36.5,48.4,46.1,71.8c2.8,6.9,5,15.3,8.2,20.8l4.3-68.5c2-26.7,7.6-36.6,13-59.1
		c-30,13.1-25.8,42.7-43.7,36.5c-3-27.6-0.4-45.4-15.3-68.2c-9.9-15.2-24.1-29.2-37.6-47.5c-6.8,8.5-3.9,49.5-8.1,60.4
		c-4.7,2-4.9,2.5-10.7,2.1c-6.7-14.4-0.7-11.1-15.1-33.6c-10.7-16.8-39.1-33.6-56.7-43.3l-31.4-19.9c-7.8,10.1-3.6,50.3-6.5,53.2
		c-6.7,6.3-32.6-10.2-49.8-17.5c-10.8-4.6-41-17-51.2-18.8c1.9,27,13.1,30.6,22.2,39.4c-7.2,8.4-30.4,2.2-60.2,5.4
		c-22.2,2.4-40.8,3.3-63.6,4.8c4.4,13.7,15.8,16.8,23.2,24.2c-7.1,10.9-38.9,15.8-66.4,47.4c-11.7,13.4-21.2,31.9-36.6,50.2
		c-4.6,5.5-10.2,8.7-13.3,14.9c12.2-2.9,22.5-18.3,33.9-14.2c-6.6,11.3-17.4,16.3-27.3,41.7c-16.5,42.4-14.1,101-35.1,137
		c-3.4,5.8-12.1,15.6-12.5,20.5C46.2,421.7,88.6,401.3,99.1,398.7L99.1,398.7z"/>
	<path class="st2" d="M331.7,251.3c13.5-7.2,50.3,5.9,67.4,18.9c53.5,40.7,46.4,146.4-20.9,172.7c-52.7,20.6-103.3-1.3-123.3-38.4
		c-27.4-50.8-9.1-116.1,19.4-130.8c-4.9-20.3,3.4-36.7,17.7-41.5c27.6-9.2,39.1,17.8,39.1,17.8C331.2,249.8,331.5,250.9,331.7,251.3
		L331.7,251.3z M316.8,199.2c-82.2,10.9-124.6,76.9-122.7,158c0.9,39.7,19.6,80.1,40.2,100.8c14,14.1,6.5,7.8,55.4,3.2
		c49.8-4.6,84.5-4.5,133.6,1.4c18.7,2.2,24.4-3.1,38.6-29.5C519.5,326,452.3,181.2,316.8,199.2L316.8,199.2z"/>
	<path class="st3" d="M274.3,273.7c-28.5,14.7-46.7,80-19.4,130.8c20,37.1,70.6,58.9,123.3,38.4c67.3-26.2,74.3-132,20.9-172.7
		c-17.1-13-54-26.2-67.4-18.9c1.5,20.5-1.8,35.2-18.9,41.1c-8.7,3-18,1-24.9-2.6C280.2,285.7,278,282.9,274.3,273.7L274.3,273.7z"/>
	<path class="st4" d="M100.3,404.7l-1.2-5.9c-10.5,2.6-52.9,23-76.2,11.8c0.4-4.9,9.1-14.7,12.5-20.5c20.9-36,18.5-94.6,35.1-137
		c9.9-25.4,20.6-30.3,27.3-41.7c-11.3-4.1-21.7,11.3-33.9,14.2c3.2-6.1,8.7-9.3,13.3-14.9c15.4-18.3,24.9-36.8,36.6-50.2
		c27.4-31.6,59.3-36.5,66.4-47.4c-7.3-7.4-18.8-10.5-23.2-24.2c22.8-1.6,41.4-2.5,63.6-4.8c29.8-3.2,53,3,60.2-5.4
		c-9.1-8.7-20.3-12.4-22.2-39.4c10.2,1.8,40.4,14.2,51.2,18.8c17.3,7.3,43.1,23.8,49.8,17.5c2.9-2.8-1.2-43,6.5-53.2l31.4,19.9
		c17.6,9.8,45.9,26.6,56.7,43.3c14.4,22.5,8.4,19.2,15.1,33.6c5.8,0.4,6,0,10.7-2.1c4.2-10.9,1.3-51.9,8.1-60.4
		c13.5,18.3,27.7,32.3,37.6,47.5c14.9,22.8,12.3,40.6,15.3,68.2c17.8,6.2,13.7-23.4,43.7-36.5c-5.4,22.5-10.9,32.4-13,59.1
		l-4.3,68.5c1.2,6.3,1.9,11.1,5.2,15.2c1.2-1.9,0.4-0.2,1.7-3.3c1-2.2,0.8-2,1.8-4.8l6.6-29.4c1.5-12,2.8-31.3,2.9-44.6
		c0.1-25.6,8.7-54.5,19.7-75.3c-13.9,0-20,4.9-29,10.4c-9.1,5.5-15.1,12-23.5,17.5c0-37.2-24-65.7-46.8-90.8l-3.3-3.3
		c-5.2-4.8-2.4-2.5-6.3-10.1c-1.8-3.4-2.5-3.7-4-7.5c-1.5-3.8-1.8-6.2-3.4-9.6c-8.6,0.2-6.3,1.7-13.1,3.3L469.4,82
		c-10.6-7.2-0.5-10.3-56.7-43.3c-25.2-14.8-24.1-14-44.4-30.9c-7.6-6.3-11-3.4-16.9,0.5c0,22.7-4.9,35.3-4.9,55.7
		c-32.2-17.1-44.3-17.4-72-29.5c-23.8-10.4-39.5-17.8-26.1,24.4c2.6,8,4.1,11.3,9.7,16.6c-33.4,0-53.7,6.4-91.8,6.5
		c-16.5,0.1-16.9-4-27.8,3.3c3.1,5.8,5.3,9.8,8.9,15.7c3.8,6.3,6.3,10.3,14.1,12.1c-10.7,16-43.5,16.4-79.6,71.1
		c-4.6,7.1-8.1,11.4-13.1,18.1c-4.7,6.4-8,10.4-12.8,16.6c-12.2,15.6-13,7.8-14.1,17.1c6.9,3.3,19-1.6,26.2-3.3
		c-0.8,3.1-10.4,19.2-17,45.2c-8.2,32.3-8.7,71.7-22.8,101.7C16,405.9,5,407,2.5,416.2C30.8,422.8,78.6,418.7,100.3,404.7
		L100.3,404.7z"/>
	<path class="st5" d="M99.1,398.7l1.2,5.9c9,43.4,19.3,65.2,41.5,98.3c13.7-3.2,48.2-17.6,73.8-22.8c5.5-1.1,22.2-4.5,26.1-6.2
		c-11,0.7-9.7-1.1-16-4.7c-2.8,2-30.8,8-37.2,10.1c-11.1,3.6-26.6,11.1-38.6,11.2c-9.8-8.3-21.4-37.3-26.7-52.6
		c-35.7-100.9-7.6-226.7,83.7-287.5c33.6-22.4,73.1-36.8,121.6-39.6c104.4-6,170.2,51.4,206,114.2c33.9,59.5,40.8,129.5,23.3,197.6
		c-5.9,22.7-15.2,38.5-22.7,57.7c-12.5-1.2-27.6-4.8-40.2-7.3l-35.8-7.1c-0.4-0.1-0.8-0.3-1.2-0.5l-3.4-2.1
		c-3.6,2.9-6.9,5.3-12.8,6.7c0.3,0.2,0.9,0,1.2,0.6l49.6,9.6c15.9,3.9,18.5,3.5,35,9.3c7.2,2.5,11.1,3.5,16.3-2.3
		c4.7-5.3,16.1-32.4,18.5-38.8c10.5-27.7,22.5-81.9,18-111.6c-1.5-10.3-1.5-19.6-3-29.7c-1.3-8.7-4.5-17.4-4.5-28.1
		c-3.3-4.1-4-8.9-5.2-15.2c-3.3-5.5-5.4-13.9-8.2-20.8c-9.6-23.4-28.9-54.8-46.1-71.8c-60.7-59.8-153.3-83.1-240.8-59.9
		c-46.1,12.2-80.3,33.4-111,65.7l-13.8,15.7c-21.2,26.1-38,63-45.8,98.4C90,343.1,97.3,355.6,99.1,398.7L99.1,398.7z"/>
	<path class="st6" d="M316.8,199.2c135.5-18,202.7,126.7,145,233.9c-14.2,26.4-19.9,31.7-38.6,29.5c-49.1-5.9-83.8-6.1-133.6-1.4
		c-48.9,4.6-41.4,10.9-55.4-3.2c-20.6-20.7-39.2-61.2-40.2-100.8C192.1,276.1,234.5,210.2,316.8,199.2L316.8,199.2z M225.8,469.3
		c6.3,3.6,5,5.4,16,4.7c59.4-7.2,85.2-9.6,149.9-6.6c2.3,0.1,8,0,10.3,0.1l39.8,2.5c5.9-1.4,9.2-3.9,12.8-6.7
		c18.9-17,31.1-48.3,37.7-80.2c20.5-99.2-49.5-199.4-158.7-192.8C220.9,197.2,162.5,293,184.9,391c3.9,16.9,9.1,29,16.2,42.8
		C211.3,453.6,224.1,463.4,225.8,469.3L225.8,469.3z"/>
</g>
</svg>
