<?xml version="1.0" encoding="utf-8"?>
<!-- Generator: Adobe Illustrator 21.1.0, SVG Export Plug-In . SVG Version: 6.00 Build 0)  -->
<svg version="1.1" id="Слой_1" xmlns="http://www.w3.org/2000/svg" xmlns:xlink="http://www.w3.org/1999/xlink" x="0px" y="0px"
	 viewBox="0 0 612 372" style="enable-background:new 0 0 612 372;" xml:space="preserve">
<style type="text/css">
	.st0{fill-rule:evenodd;clip-rule:evenodd;fill:#1B1B1A;}
	.st1{fill-rule:evenodd;clip-rule:evenodd;fill:#FEFEFE;}
	.st2{fill-rule:evenodd;clip-rule:evenodd;}
	.st3{fill-rule:evenodd;clip-rule:evenodd;fill:#A0B311;}
</style>
<g>
	<path class="st0" d="M513.8,79.9C458.4,67,408.3,56.7,357.4,107.2c-64.4,63.9-46.5,219.4,103.9,219.4
		c62.9,0,120.8-55.9,120.8-136.5c0-38.8-21.1-60.6-36.8-84c22.6-15.1,83.2-94.5,31.5-94.5c-15.6,0-24.8,18.6-33,30
		C533.2,56.1,522.2,67.3,513.8,79.9L513.8,79.9z"/>
	<path class="st1" d="M162.5,128.7c-15.2,37.2,14.2,54.7,48.8,55.1l17.5-10c0.3-0.1,1.7,0,2.5,0.2c35,89.1-88.5,169.5-163.8,94.9
		c-73.7-72.9-5-196.1,109.2-161.2L162.5,128.7z M14.9,195.4c0,171,241.5,155.2,241.5,15.8c0-38.7-3.1-68.3-33.1-98.2
		C153.1,43.1,14.9,87.6,14.9,195.4L14.9,195.4z"/>
	<path class="st2" d="M211.4,183.8c-34.6-0.4-64-17.9-48.8-55.1c-87.7-21.8-127.7,70.8-82.3,122.2c17.6,19.9,56,32.8,90.9,16.6
		C201.4,253.4,213.1,224.8,211.4,183.8L211.4,183.8z"/>
	<path class="st3" d="M211.4,183.8c1.8,41-10,69.6-40.2,83.6c-34.8,16.2-73.2,3.3-90.9-16.6c-45.5-51.3-5.4-144,82.3-122.2l14.1-21
		C62.5,72.7-6.2,195.9,67.5,268.8c75.4,74.6,198.9-5.8,163.8-94.9c-0.8-0.2-2.1-0.3-2.5-0.2L211.4,183.8z"/>
</g>
</svg>
