<?xml version="1.0" encoding="utf-8"?>
<!-- Generator: Adobe Illustrator 21.1.0, SVG Export Plug-In . SVG Version: 6.00 Build 0)  -->
<svg version="1.1" id="Слой_1" xmlns="http://www.w3.org/2000/svg" xmlns:xlink="http://www.w3.org/1999/xlink" x="0px" y="0px"
	 viewBox="0 0 612 599" style="enable-background:new 0 0 612 599;" xml:space="preserve">
<style type="text/css">
	.st0{fill-rule:evenodd;clip-rule:evenodd;fill:#FDFEFE;}
	.st1{fill-rule:evenodd;clip-rule:evenodd;fill:#F9A719;}
	.st2{fill-rule:evenodd;clip-rule:evenodd;fill:#040607;}
	.st3{fill-rule:evenodd;clip-rule:evenodd;fill:#E1EFF3;}
</style>
<g>
	<path class="st0" d="M296.7,158c82.4-8.7,149.5,51.3,157.9,124.9c9.7,85.1-51,149.8-124.5,159.6c-60,7.9-116.5-24.4-142.6-71.5
		c-9-16.4-14.8-32.6-17.4-53.5C159.5,232.9,223,165.9,296.7,158L296.7,158z M28.2,288.4c0,103.2,76.2,200.3,167.3,240.3
		c34,14.9,70.3,24,112,24.8c56.3,1.2,115-15.8,159.6-45.5c56.7-37.7,97.6-88.1,118.3-154.4c2.6-8.4,5.2-17.8,7.1-26.9
		c1.6-8.1,3.5-24.2,5.6-30c0-50.9-9.9-79.1-24.6-115.3c-10.8-26.7-37.4-63.1-57.8-83.5C472.2,54.5,403.9,14,317.3,14
		c-27.2,0-41.4,1-64.3,5.6c-19.6,3.9-38.8,10-54.4,17.1c-36.5,16.5-75.8,42.7-101.7,73.6c-5.6,6.7-10.5,12.9-15.8,19.9
		c-19.8,26.1-37.4,62.5-45.7,95.5C32.4,237.9,22.7,274.1,28.2,288.4L28.2,288.4z"/>
	<path class="st0" d="M330.7,209.5c-12.8,42.5,31.3,59.7,56,34.8c10.4-19.1,8.4-37.1-7.8-48.2c-8.3-5.7-19-7.2-29.3-3.4
		C338.6,196.6,336,201.3,330.7,209.5L330.7,209.5z"/>
	<path class="st1" d="M386.7,244.2c3.2,2.2,0.6-0.3,3.9,3.5l5.5,9.1c7.7,15,11.8,34.4,10.3,51c-2.3,24.4-12.5,44.2-25.7,56.9
		c-34.8,33.5-78.6,39.9-120,14.5c-29.6-18.2-55.9-67-35.6-114.8c9.2-21.6,21-33.6,38.3-44.6c16.3-10.4,47.3-17.3,63.5-12.3
		c3.3,1,1.9,0.5,3.9,1.9c5.3-8.2,7.9-12.9,18.9-16.9c10.3-3.8,20.9-2.3,29.3,3.4C395.1,207.1,397,225.2,386.7,244.2L386.7,244.2z
		 M296.7,158c-73.7,7.8-137.3,74.9-126.6,159.5c2.7,20.9,8.4,37.1,17.4,53.5c26,47.1,82.6,79.4,142.6,71.5
		c73.5-9.8,134.2-74.5,124.5-159.6C446.2,209.3,379.2,149.3,296.7,158L296.7,158z"/>
	<path class="st2" d="M386.7,244.2c-24.7,25-68.7,7.7-56-34.8c-2-1.4-0.6-0.9-3.9-1.9c-16.2-5-47.2,1.8-63.5,12.3
		c-17.2,11-29.1,23.1-38.3,44.6c-20.3,47.7,5.9,96.6,35.6,114.8c41.4,25.4,85.2,19,120-14.5c13.2-12.8,23.4-32.5,25.7-56.9
		c1.5-16.6-2.5-36-10.3-51l-5.5-9.1C387.3,244,389.9,246.4,386.7,244.2L386.7,244.2z"/>
	<path class="st3" d="M598.2,296.8c-2.2,5.8-4,22-5.6,30c-1.9,9.2-4.5,18.5-7.1,26.9c-20.7,66.3-61.6,116.7-118.3,154.4
		c-44.6,29.6-103.2,46.6-159.6,45.5c-41.7-0.8-78-9.9-112-24.8c-91.1-40-167.3-137.2-167.3-240.3c-1.2,0.5-2.5-0.7-3.2,1.9v14.8
		c2.7,37.1,8,69,22,104.1c9.3,23.4,19.2,39.1,32.5,58.4c48.6,70.5,141.3,119.4,226.3,119.5c81.8,0.1,152.9-28.7,207.5-83.3
		c24.8-24.8,46.9-53.2,60.3-85.9c7.8-19,13.1-32.4,18.4-54.6C597.1,342.4,598.2,323.6,598.2,296.8L598.2,296.8z"/>
</g>
</svg>
