<?xml version="1.0" encoding="utf-8"?>
<!-- Generator: Adobe Illustrator 21.1.0, SVG Export Plug-In . SVG Version: 6.00 Build 0)  -->
<svg version="1.1" id="Слой_1" xmlns="http://www.w3.org/2000/svg" xmlns:xlink="http://www.w3.org/1999/xlink" x="0px" y="0px"
	 viewBox="0 0 612 69.5" style="enable-background:new 0 0 612 69.5;" xml:space="preserve">
<style type="text/css">
	.st0{fill:#D9D8D4;}
	.st1{fill:#FEFEFE;}
</style>
<g>
	<path class="st0" d="M0.7,65.1c0-20.1,0-40.2,0-60.4c0.6-2.5,2.4-3.6,4.7-4.1c200.5,0,401,0,601.5,0c4.5,1.5,5.1,2.2,5.1,7
		c0,18.2,0,36.4,0,54.6c0,5.6-1.6,7.1-7.4,7.2c-0.7,0-1.4,0-2,0c-197.6,0-395.3,0-592.9,0c-0.8,0-1.6,0-2.4,0
		C4.1,69.6,1.5,68.6,0.7,65.1z"/>
	<path class="st1" d="M68.6,66.8c0-21.4,0-42.5,0-63.5c0.9-0.9,1.8-0.6,2.7-0.6c0.6,0,1.1,0,1.7,0c176.5,0,353,0,529.5,0
		c0.7,0,1.4,0,2,0c3,0.1,5,2.1,5,5.2c0,18,0,35.9,0,53.9c0,3.5-2,5.3-5.5,5.4c-0.6,0-1.1,0-1.7,0c-176.4,0-352.8,0-529.2,0
		C71.8,67.1,70.3,67.3,68.6,66.8z"/>
	<path class="st1" d="M66,67.1c-1.2,0-2.2,0-3.2,0c-18,0-35.9,0-53.9,0c-4.6,0-6.3-1.6-6.3-6.3c0-17.3,0-34.6,0-51.8
		c0-4.7,1.6-6.3,6.2-6.3c18,0,35.9,0,53.9,0c1,0,2,0,3,0C66.6,5.2,66.8,62.4,66,67.1z"/>
	<path class="st0" d="M52.6,49.8c-1.3,0.5-2.4,0.3-3.6,0.3c-8,0-16,0-24.1,0c-0.9-2.3-0.5-4.4-0.4-6.5c0.1-1.5,1.5-2.2,2.8-2.7
		c1.7-0.7,3.4-1.2,5-1.9c2.4-1,3-2.1,1.6-4.1c-2-2.9-1.4-6.1-1.3-9.1c0-2.2,2.3-3.9,4.6-3.5c1.2,0.2,2.2-0.5,3.6,0.3
		c3.6,2.1,5.2,5.3,3.4,10.4c-1.6,4.3-1.1,5.6,3.3,7c0.5,0.2,1.1,0.3,1.6,0.6C52.7,42.6,53.4,44.3,52.6,49.8z"/>
</g>
</svg>
