<?xml version="1.0" encoding="utf-8"?>
<!-- Generator: Adobe Illustrator 21.1.0, SVG Export Plug-In . SVG Version: 6.00 Build 0)  -->
<svg version="1.1" id="Слой_1" xmlns="http://www.w3.org/2000/svg" xmlns:xlink="http://www.w3.org/1999/xlink" x="0px" y="0px"
	 viewBox="0 0 612 69.5" style="enable-background:new 0 0 612 69.5;" xml:space="preserve">
<style type="text/css">
	.st0{fill:#D9D8D4;}
	.st1{fill:#FEFEFE;}
</style>
<g>
	<path class="st0" d="M0.7,65.1c0-20.1,0-40.2,0-60.4c0.6-2.5,2.4-3.6,4.7-4.1c200.5,0,401,0,601.5,0c4.5,1.5,5.1,2.2,5.1,7
		c0,18.2,0,36.4,0,54.6c0,5.6-1.6,7.1-7.4,7.2c-0.7,0-1.4,0-2,0c-197.6,0-395.3,0-592.9,0c-0.8,0-1.6,0-2.4,0
		C4.1,69.6,1.5,68.6,0.7,65.1z"/>
	<path class="st1" d="M68.6,66.8c0-21.4,0-42.5,0-63.5c0.9-0.9,1.8-0.6,2.7-0.6c0.6,0,1.1,0,1.7,0c176.5,0,353,0,529.5,0
		c0.7,0,1.4,0,2,0c3,0.1,5,2.1,5,5.2c0,18,0,35.9,0,53.9c0,3.5-2,5.3-5.5,5.4c-0.6,0-1.1,0-1.7,0c-176.4,0-352.8,0-529.2,0
		C71.8,67.1,70.3,67.3,68.6,66.8z"/>
	<path class="st1" d="M66,67.1c-1.2,0-2.2,0-3.2,0c-18,0-35.9,0-53.9,0c-4.6,0-6.3-1.6-6.3-6.3c0-17.3,0-34.6,0-51.8
		c0-4.7,1.6-6.3,6.2-6.3c18,0,35.9,0,53.9,0c1,0,2,0,3,0C66.6,5.2,66.8,62.4,66,67.1z"/>
</g>
<g>
	<path class="st0" d="M45.7,50.2c-4.7,0-9.4,0-14.2,0c-0.1-0.1-0.2-0.1-0.3-0.1c-0.7,0-1.3-0.3-1.9-0.8c-0.5-0.5-0.9-1.1-1.1-1.7
		c-0.1-0.2,0-0.5-0.1-0.7c0-3,0-6,0-9c0.1-0.1,0-0.3,0-0.4c0.2-0.9,0.7-1.7,1.4-2.2c0.7-0.5,1.4-0.7,2.2-0.7c4.6,0,9.1,0,13.7,0
		c0.2,0,0.3,0.1,0.5,0.1c0.3,0,0.5,0.1,0.8,0.2c0.6,0.2,1.1,0.5,1.5,1c0.4,0.4,0.6,0.9,0.7,1.4c0.1,0.2,0,0.5,0.1,0.7c0,3,0,6,0,9.1
		c0,0,0,0.1,0,0.1c0,1-0.5,1.8-1.3,2.5c-0.5,0.4-1,0.6-1.6,0.7c-0.1,0-0.2,0-0.2,0.1c0,0-0.1,0-0.1,0C45.8,50.1,45.8,50.2,45.7,50.2
		z M37.7,44.5c0,0.4,0,0.9,0,1.3c0,0.5,0.4,0.9,0.9,0.9c0.5,0,0.9-0.4,0.9-0.9c0-0.9,0-1.8,0-2.7c0-0.1,0-0.3,0.1-0.3
		c0.9-0.6,1-2,0.1-2.7c-0.6-0.5-1.8-0.5-2.4,0c-0.8,0.7-0.8,2.1,0.2,2.7c0.1,0.1,0.2,0.2,0.2,0.3C37.7,43.6,37.7,44.1,37.7,44.5z"/>
	<path class="st0" d="M38.7,22.2c0.1,0.2,0.3,0.1,0.4,0.1c1,0.1,1.8,0.3,2.7,0.8c0.7,0.3,1.3,0.8,1.8,1.3c0.4,0.4,0.7,0.8,1,1.3
		c0.3,0.4,0.5,0.8,0.6,1.3c0.2,0.5,0.3,1,0.3,1.5c0.1,1.6,0,3.3,0,4.9c0,0.2-0.1,0.2-0.3,0.2c-1,0-2,0-2.9,0c-0.2,0-0.3-0.1-0.3-0.3
		c0-1.5,0-2.9,0-4.4c0-0.6-0.2-1.2-0.5-1.7c-0.3-0.6-0.8-1-1.4-1.3c-0.4-0.2-0.9-0.4-1.4-0.4c-0.5,0-1.1,0-1.6,0.2
		c-0.4,0.2-0.7,0.4-1.1,0.7c-0.4,0.4-0.8,0.9-0.9,1.5c-0.1,0.4-0.2,0.7-0.2,1.1c0,1.4,0,2.8,0,4.2c0,0.2-0.1,0.3-0.3,0.3
		c-1,0-2,0-2.9,0c-0.2,0-0.3-0.1-0.3-0.3c0-1.4,0-2.7,0-4.1c0-0.7,0.1-1.5,0.3-2.2c0.3-0.7,0.6-1.4,1.1-2.1c0.5-0.6,1-1.1,1.6-1.6
		c0.5-0.4,1.1-0.7,1.8-0.9c0.6-0.2,1.2-0.3,1.9-0.3c0.1,0,0.2,0,0.2-0.1C38.6,22.2,38.6,22.2,38.7,22.2z"/>
</g>
</svg>
