<?xml version="1.0" encoding="utf-8"?>
<!-- Generator: Adobe Illustrator 21.1.0, SVG Export Plug-In . SVG Version: 6.00 Build 0)  -->
<svg version="1.1" id="Слой_1" xmlns="http://www.w3.org/2000/svg" xmlns:xlink="http://www.w3.org/1999/xlink" x="0px" y="0px"
	 viewBox="0 0 612 348" style="enable-background:new 0 0 612 348;" xml:space="preserve">
<style type="text/css">
	.st0{fill:#572F5D;}
</style>
<g>
	<path class="st0" d="M472.6,192.9c-8.2,2.8-8.2,2.8-8.2,11.8c0,21.4-10.6,36.3-30.7,43.6c-1.6,0.6-3.3,2.7-3.9,4.4
		c-4.3,13.4-13.5,22-26.3,26.8c-3.4,1.3-7.5,1.4-11.2,0.9c-3.3-0.5-4.9,0.4-7.1,2.8c-4.2,4.8-8.9,9.4-14,13.2
		c-7.7,5.7-16.2,5.1-24.7,1.3c-2.1-0.9-4.2-2.2-6.5-2.6c-1.8-0.3-4.5-0.3-5.7,0.8c-8.5,8.1-18.4,9.5-29.2,6.4
		c-5.3-1.5-10.4-3.6-15.7-5c-1.7-0.4-4.5,0-5.5,1.2c-9.9,11.6-19.4,12.2-31.5,1.8c-5.2-4.5-7.8-9.8-5.4-17.5
		c-1.9,0.6-3.1,0.6-3.9,1.2c-5.1,3.6-10.7,4.3-16.1,1.8c-6-2.7-12.1-5.7-17.3-9.6c-6.9-5.2-5.8-12.4-1.7-20.6
		c-2.9,0.8-4.9,1-6.6,1.8c-4.7,2.1-8.8,1.4-12.3-2.3c-2.8-2.9-5.7-5.6-8.1-8.8c-4.9-6.5-6.5-13.7-2.2-23.2
		c-9.6,5.4-14.9,1.1-20.1-4.4c-5.2-5.4-7.8-11.5-5.3-19.7c-2.7-0.2-4.9-0.4-7.1-0.4c-7.3-0.1-7.5-0.4-6.1-7.3
		c5-24.8,10.2-49.6,15-74.4c2.7-13.9,5.1-27.8,7.4-41.8c0.6-3.6,1.9-4.2,5.6-4.2c4,0,8.6-1.1,12-3.2c15.7-9.8,30.6-20.8,46.6-29.9
		c14-7.9,29.1-14,43.9-20.2c3.2-1.3,7.6-0.5,11.2,0.4c14.2,3.7,28.2,8,42.3,11.7c3,0.8,6.7,1.1,9.5,0c12-4.6,22.9-3.8,34.5,2.3
		c20.4,10.7,41,20.8,58.7,35.9c6.3,5.4,12.3,10.7,21.5,9.7c0.8-0.1,2.4,1.7,2.6,2.9c7.2,36.9,14.4,73.8,21.5,110.8
		C472.8,191.6,472.7,192.1,472.6,192.9z M378.5,277.2c-1.1-0.8-2-1.6-3-2.2c-19.7-13.4-39.4-26.8-59.1-40.2c-1.4-0.9-2.7-2-3.8-3.2
		c-0.5-0.6-0.9-2-0.5-2.5c0.4-0.6,1.7-1.1,2.5-1c1.4,0.3,2.8,1,4.1,1.7c12.6,7.4,25.2,15,37.9,22.3c10.8,6.2,21.7,12.3,32.9,17.8
		c3.1,1.5,7.7,1.8,11.1,0.8c9.4-2.8,15.8-9.6,19.8-18.5c1.2-2.8,0.2-4.4-2.4-5.5c-3.5-1.6-7-3.2-10.4-5
		c-22.3-11.5-42.4-26.3-62.4-41.4c-1.4-1-2.6-2.3-3.9-3.4c0.2-0.6,0.4-1.1,0.6-1.7c2,0.2,4.3-0.1,5.9,0.8
		c10.1,5.5,20.2,10.9,30,16.9c15.8,9.6,31.6,19.3,49.3,25.2c2.2,0.7,5,1,7.2,0.2c12.2-4.1,21.9-19,20.5-31.8
		c-0.3-2.6-2.1-5.8-4.2-7.4c-4.2-3.2-9.1-5.5-13.7-8.1c-27.2-15.2-52.1-33.5-74.7-54.9c-12.1-11.5-23.6-23.5-31.3-38.7
		c-1.3-2.6-1.7-4.4,1.4-6.1c10.3-5.3,11.9-15.5,13.7-25.6c-4.7,7.8-7.1,17.3-16.9,21.1c-8.9,3.4-18.1,5-27.8,6.2
		c0.3-3.9,0.6-7,0.8-10c-2.9,4.5-5.1,8.9-7.2,13.4c-11.7,24.5-29.9,32.3-55.9,30.1c-5.5-0.5-11.1-3.3-16.1-6.1
		c-5.1-2.9-5.6-7-2.4-11.8c4.1-6.1,8.5-12,12.9-17.8c7.4-9.6,15.9-18.6,22.2-28.9c5.6-9.1,13-13.8,22.7-16.4
		c9.8-2.6,19.6-5.4,29.3-8.2c1.1-0.3,2.2-1,3.3-1.5c0-0.4,0-0.8,0-1.3c-10.8-2.6-21.6-5.5-32.5-7.5c-3.5-0.6-7.6,0.4-11.1,1.7
		c-30.5,11.2-57.2,29.1-83.4,47.8c-2.2,1.6-4.9,2.9-7.6,3.4c-4,0.7-5.3,2.9-6.1,6.6c-6.1,31.9-12.3,63.8-18.5,95.7
		c-0.4,1.9-0.4,3.8-0.6,5.4c7.2,2.7,13,2,18.7-2.7c6.1-5.1,13.2-6.2,20.4-1.7c7.1,4.5,8.6,10.8,3.9,17.8c-2.2,3.3-4.7,6.5-7.1,9.7
		c-2,2.7-3.9,5.5-5.8,8.3c0.4,0.3,0.8,0.7,1.2,1c2.2-2.1,4.5-4.1,6.7-6.2c7.6-7.2,15-14.7,22.8-21.6c6-5.3,13.3-4.9,20.3-2.5
		c9.8,3.5,12.8,12,7.1,20.6c-5.3,7.9-11.1,15.4-16.7,23.1c-4.5,6.1-9,12.1-13.6,18.2c0.3,0.3,0.7,0.6,1,0.9c1.1-1.1,2.4-2.1,3.4-3.2
		c11.9-12.8,23.5-25.9,35.7-38.4c8.2-8.4,18.4-6.6,24.6,3.4c6.9,10.9,4.3,21.1-2.3,30.8c-6.4,9.5-13.2,18.8-19.8,28.2
		c-0.8,1.2-1.5,2.5-2.2,3.8c0.6,0.5,1.2,1,1.9,1.5c1.1-1.6,2-3.5,3.4-4.8c5-5.1,9.9-10.4,15.3-15c8-6.7,16.2-5.1,21.8,3.9
		c3.4,5.4,4.1,11.2,1.7,17.2c-1.1,2.7-2,5.5-3,8.1c13.7,7.6,32.3,9.2,36.2,1.2c-1.6-1.2-3.3-2.5-5.1-3.8c-7-5.1-14.1-10.1-21.1-15.1
		c-2.1-1.5-3.9-3.2-1.5-6.5c2.3,1.3,4.4,2.4,6.5,3.7c12.7,7.3,25.1,15.2,38.1,21.8C357.8,296.2,371.2,291.2,378.5,277.2z"/>
	<path class="st0" d="M123.3,42c-2.9,12.9-5.3,24.6-8.2,36.3C104.7,121.2,94,164,83.4,206.9c-1.5,6.1-1.9,6.2-7.7,4.5
		c-19.8-6-39.5-12.1-59.3-17.8c-4.2-1.2-5.6-2.8-4.5-7.4c11.3-46.9,22.4-93.9,33.6-140.9c1.7-7.3,3.6-14.5,5.2-21.9
		c0.7-3.1,2.2-3.7,5-2.9c21.2,6.3,42.5,12.5,63.7,18.8C120.9,39.7,122.2,41.2,123.3,42z"/>
	<path class="st0" d="M601.8,197.3c-0.8,0.7-1.8,2-3.1,2.4c-21.2,6.5-42.4,12.9-63.5,19.4c-4.3,1.3-4.7-1.6-5.4-4.4
		c-5.8-23.6-11.7-47.2-17.5-70.8c-7.3-30.3-14.4-60.6-21.8-90.8c-1-4.1-0.1-6,4.1-7.2c20.7-5.8,41.3-11.8,61.9-18
		c4.1-1.2,5.3,0.2,6.1,3.9c6.2,26.4,12.5,52.8,18.8,79.2c6.6,27.5,13.1,55,19.6,82.6C601.3,194.4,601.4,195.4,601.8,197.3z"/>
	<path class="st0" d="M456.9,75.6c0.9-0.8,2.1-2.5,3.6-2.9c7.1-1.9,14.2-3.5,21.3-5.2c3.9-1,3.9,2.1,4.4,4.4
		c3.6,15.2,7.1,30.5,10.8,45.7c6.5,26.8,13.1,53.7,19.9,80.5c1.2,4.6-0.1,6.3-4.5,7.1c-7.7,1.4-15.4,2.9-22.9,5.1
		c-4.7,1.3-6.5,0.1-7.4-4.6c-4.6-23.7-9.6-47.3-14.2-71c-3.6-18.4-6.9-37-10.3-55.4C457.5,78.4,457.3,77.6,456.9,75.6z"/>
	<path class="st0" d="M156,68.7c-2.1,11.3-3.8,21.5-5.8,31.6c-6.3,31.7-12.6,63.3-19,94.9c-0.4,1.8-0.9,3.5-1.3,5.3
		c-0.5,2.6-1.7,3.6-4.5,2.9c-8.4-2-16.9-3.9-25.3-5.6c-4.3-0.8-5.2-2.8-4.1-6.9c7.9-31.5,15.6-63,23.3-94.5
		c2.6-10.7,5.1-21.4,7.3-32.1c0.7-3.6,2-4.8,5.7-3.8c6.6,1.8,13.3,3.1,19.9,4.9C153.8,65.9,154.9,67.7,156,68.7z"/>
</g>
</svg>
