<?xml version="1.0" encoding="utf-8"?>
<!-- Generator: Adobe Illustrator 21.1.0, SVG Export Plug-In . SVG Version: 6.00 Build 0)  -->
<svg version="1.1" id="Слой_1" xmlns="http://www.w3.org/2000/svg" xmlns:xlink="http://www.w3.org/1999/xlink" x="0px" y="0px"
	 viewBox="0 0 612 223" style="enable-background:new 0 0 612 223;" xml:space="preserve">
<style type="text/css">
	.st0{fill:#4C2153;}
	.st1{fill:#4C2053;}
	.st2{fill:#F79622;}
	.st3{fill:#C4D72D;}
	.st4{fill:#683270;}
	.st5{fill:#863D96;}
	.st6{fill:#FEFEFE;}
	.st7{fill:#8E469B;}
	.st8{fill:#44224D;}
	.st9{fill:#ED6278;}
	.st10{fill:#F9A719;}
	.st11{fill:#050708;}
	.st12{fill:#E3EDF2;}
	.st13{fill:#4A2052;}
</style>
<g>
	<path class="st0" d="M134.7,187.2c0,6.7-1.6,1.4,0.8,11.8c2.5-0.7,1.2,0,2.8-2c2.2-2.8,3.4-7.2,7.5-8.4
		C143.5,183.8,138.1,183.2,134.7,187.2L134.7,187.2z"/>
	<path class="st0" d="M98.2,168.6l-5.8-0.8c0.9,3.9,1.7,6.9,5.6,7.9L98.2,168.6z"/>
	<path class="st0" d="M269.7,167.8l-5.7,0.8c0.3,2.9-0.8,7.8,1.9,6.6C267.7,174.4,269.4,170.3,269.7,167.8L269.7,167.8z"/>
	<path class="st1" d="M214.8,194.2c6.9,4.7,5.8,9.6,10.1,11.2c0.5-1.9,0.9-3.4,1.1-6c0.2-2.4-0.3-3.2-0.3-6.7
		c-1.7-1.3-2.5-3-6.2-2.4C216.7,190.8,215.5,192.1,214.8,194.2L214.8,194.2z"/>
	<path class="st1" d="M200.1,192.6c5.3,3.4,6.1,8.6,9.6,11.2c1.4-2.9,1.9-5.1,1.3-9.6C210,185.9,203.1,187.4,200.1,192.6
		L200.1,192.6z"/>
	<path class="st1" d="M272,167.3c1,1.7,1.9,4.7,2.4,7c3.5-2.4,4.1-5.6,3.2-9.8C275.4,166,275,166.2,272,167.3L272,167.3z"/>
	<path class="st1" d="M90,167.2c-2.8-1-3.4-1.4-5.6-2.9c0,5.3-0.1,7.7,3.2,9.9C88.1,172,89,168.9,90,167.2L90,167.2z"/>
	<path class="st1" d="M103,168.6c0.2,1.8,0.5,2.7,1.3,4c1.2,2,0.9,1.7,3.2,2.4l0.8-8L103,168.6z"/>
	<path class="st1" d="M259.1,168.6l-5.4-1.7c0.2,3.2,0.8,3.8,0.8,8.1C257.6,174.2,259.1,171.7,259.1,168.6L259.1,168.6z"/>
	<path class="st2" d="M222.8,30.5c1.6,2.6,2.2,2.5,4.4,4.1c1.8,1.3,3.4,3.3,4.9,4.7c3.6-2.3,3.6-4.9,4.8-9.2
		c-2.6-1.7-4.2-2.7-6.4-3.9c-3,0-1.3,0.2-4.1,1.9l-2.9,1.8c-0.1,0.1-0.3,0.3-0.4,0.3C223.1,30.2,222.9,30.4,222.8,30.5L222.8,30.5z"
		/>
	<path class="st2" d="M123.5,29.7c0.1,3.2,0.8,5.8,2.9,8.3c0.7,0.9,0.6,0.7,1.1,1.1c3.7-2.6,6.7-5.7,10.4-8.4l-4.1-2.5
		c-1.4-0.8-2.7-1.6-3.9-2.3L123.5,29.7z"/>
	<path class="st3" d="M127.5,39c1.3,2.3,3.1,3.9,6.4,4.3c2.2-1.5,3.8-3.5,5.9-5.4c2.3-2.1,4.5-3.2,6.1-5.1c-1.4-0.7-6.3-2-8-2.3
		C134.2,33.3,131.2,36.4,127.5,39L127.5,39z"/>
	<path class="st3" d="M213.3,32.9c2,1.9,4.9,3.2,6.9,4.8c1.7,1.4,1.5,1.8,3.1,3.3c1.1,1.1,2.6,2.2,3.3,2.8c3-2,3.5-1.3,5.5-4.6
		c-1.4-1.4-3.1-3.3-4.9-4.7c-2.1-1.6-2.8-1.5-4.4-4.1C219.5,31.1,216.7,32.5,213.3,32.9L213.3,32.9z"/>
	<path class="st3" d="M123.5,29.7l6.4-3.9l-6.4-8.9c0,3.8-0.5,3.3-0.8,6.4c0,0.4-0.1,2.9-0.1,3.2L123.5,29.7z"/>
	<path class="st3" d="M230.5,26.1c2.2,1.2,3.8,2.2,6.4,3.9c0-2.5,0-5.1,0-7.6c0-4.1,0.7-3.8-1.6-5.5C235,20.7,232.9,21.2,230.5,26.1
		L230.5,26.1z"/>
	<path class="st4" d="M251.3,133.9v6.9l4.1,1.4c1.8-2.2,4.1-6.2,6.3-7.8l6.4,3.5l2.2-3.1c0.7-1.2,1-1.8,1.8-3c0.2,0.1,0.5,0,0.5,0.3
		l3.4,3.6c2.4-1.4,1.1-1.5,4.1-2.5c-0.1-2.8-0.7-4.3-1.6-6.1l-2.4,2l-3.7-6.5l-5.3,9.7c-1.3-1.2-1.9-1.9-3.3-3.4l-3.9-3.1l-4.3,9.3
		L251.3,133.9z"/>
	<path class="st4" d="M83.6,127c-0.7,1.5-1.4,4.3-1.6,6.4c3.5,0.6,1.5,0.5,4.2,2.3c1.2-1.1,0.6-0.8,1.7-1.9c0.2-0.2,0.6-0.7,0.8-0.8
		c1-1,0.4-0.5,1.4-1.2l3.7,6.2l6.6-3.6c2.5,2.1,4.7,5.2,6.4,7.8l4-1.2v-7l-3.9,1.1L102,126c-3,1.9-4.1,4.3-7.2,6.5l-4.4-9.8
		l-4.4,6.4L83.6,127z"/>
	<path class="st4" d="M245.9,118.3c3.9,3.4,2.9,2.9,4.6,7.6l4,1.3c1-2.5,4.5-6.7,6.7-8l6,3.7l3.5-6.2c5.7,3.4,2.6,4.6,5.2,3.3
		c-0.4-2.8-3.5-10.3-5.1-12l-5.1,9.2c-3.5-2.4-3.8-4.4-7.1-6.3l-4.1,9.1l-6.7-2.1C245.6,117.8,247.4,117.6,245.9,118.3L245.9,118.3z
		"/>
	<path class="st4" d="M86,120.3c2.5-0.3,1.7-0.9,4.8-3.5l2.2,2.6c0.8,1.2,1.4,2.4,2,3.5l7.1-3.8c1.6,2.8,4,5.9,6.3,8l3.2-1
		c1-1.5,0.9-2.3,1.8-4.1c1.3-2.5,1.7-2.3,2.9-4.4l-8.3,2.8l-4.1-9.5c-3.5,2.6-3.7,4.6-7.7,6.6l-4.9-9.3
		C89.9,110.2,86.3,117.3,86,120.3L86,120.3z"/>
	<path class="st5" d="M82,133.4c-1.1,2.5-2.6,12.8-2.4,16.9c0.3,6.4,2.1,10.1,4.8,14.1c2.2,1.5,2.8,1.9,5.6,2.9l2.4,0.7l5.8,0.8h4.8
		l5.4-1.7c2-1.3,3.2-1.8,4.6-4.2c1.2-2.2,1.4-4.4,1-7.6c-0.5-4.7-3-8.9-3.1-14.3l-4,1.2c-1.7-2.6-3.9-5.6-6.4-7.8l-6.6,3.6l-3.7-6.2
		c-1,0.7-0.4,0.2-1.4,1.2c-0.2,0.2-0.6,0.7-0.8,0.8c-1,1.1-0.5,0.8-1.7,1.9C83.5,133.9,85.5,134,82,133.4L82,133.4z"/>
	<path class="st5" d="M251.3,140.8c0,10.6-8.6,19.9,2.4,26.1l5.4,1.7h4.8l5.7-0.8c1.5-0.2,1.4-0.2,2.4-0.5c2.9-1,3.4-1.2,5.6-2.9
		c5.8-8.9,5.7-16.6,3.6-27.3c-0.5-2.6-0.1-1.9-1.2-3.8c-3,1-1.6,1-4.1,2.5l-3.4-3.6c-0.1-0.2-0.3-0.2-0.5-0.3
		c-0.8,1.2-1.1,1.8-1.8,3L268,138l-6.4-3.5c-2.2,1.6-4.5,5.6-6.3,7.8L251.3,140.8z"/>
	<path class="st5" d="M244.4,94.4l0.6,23.2l0.8,0.8c1.5-0.8-0.3-0.5,1.9-0.4l6.7,2.1l4.1-9.1c3.3,1.9,3.6,3.9,7.1,6.3l5.1-9.2
		c-2.2-5.1-4.5-8.6-8.8-11.5C255.9,92.2,252,93.8,244.4,94.4L244.4,94.4z"/>
	<path class="st5" d="M91.3,108l4.9,9.3c4-2,4.2-4,7.7-6.6l4.1,9.5l8.3-2.8l0.6,0.1l0.1-23.2c-6.2-1.6-11.8-1-16.5,1.7
		C96.8,98.2,93,103.7,91.3,108L91.3,108z"/>
	<path class="st5" d="M250.5,125.9c0.3,3,0.8,3.8,0.8,8l4.2,1.3l4.3-9.3l3.9,3.1c1.4,1.5,2,2.2,3.3,3.4l5.3-9.7l3.7,6.5l2.4-2
		c-0.2-2.1-0.2-2.3-0.8-4c-0.2-0.7-0.3-0.8-0.7-1.7c-0.7-1.3-0.2-0.6-1-1.5c-2.6,1.3,0.5,0.2-5.2-3.3l-3.5,6.2l-6-3.7
		c-2.2,1.3-5.6,5.5-6.7,8L250.5,125.9z"/>
	<path class="st5" d="M86,120.3l-2.4,6.7l2.4,2l4.4-6.4l4.4,9.8c3.1-2.2,4.2-4.6,7.2-6.5l4.9,9.1l3.9-1.1c0-4.3,0.6-4.7,0.8-8.1
		l-3.2,1c-2.4-2.1-4.7-5.2-6.3-8l-7.1,3.8c-0.5-1-1.2-2.2-2-3.5l-2.2-2.6C87.7,119.5,88.5,120.1,86,120.3L86,120.3z"/>
	<path class="st6" d="M179,55.9c14.4-3.7,19.3,18.6,5.5,22C170,81.4,163.3,60,179,55.9L179,55.9z M160.3,74.4
		c4.6,5.2,8.9,12.4,20.7,12.6c6,0.1,11-1.8,15.2-5.4c4.8-4.2,2.8-3,6.4-7.2c5.5-9.3-2.3-30-20.8-30.3c-8.5-0.1-15,4.4-18.6,9.2
		C159.8,57.7,156.5,68.7,160.3,74.4L160.3,74.4z"/>
	<path class="st6" d="M152.3,94.1c0.7,6,2.5,12.9,7.1,14.6c4.6-2.1,4.5-7,4.5-12.6l-10.9-4C152.2,93,152.3,92,152.3,94.1L152.3,94.1
		z"/>
	<path class="st6" d="M195.4,98.3c0.4,2.2,1.1,4.8,2,6.8c1.3,2.9,1.9,3.4,5.5,3.6c2.9-4.1,3.7-7.5,3.8-13.1
		c-0.1-3.7,0.2-1.2-1.2-2.1C201.8,96.8,197.5,95.5,195.4,98.3L195.4,98.3z"/>
	<path class="st6" d="M182.6,59.8l1,3.1l3.1,0.1c1.5-1.9,1.5-2.1,0.2-4.2C184,57.8,184.9,57.8,182.6,59.8L182.6,59.8z"/>
	<path class="st7" d="M12.5,100.8h5.6V40.1c2.7,0.7,4.1,3.2,7.2,7.2l19.2,24c4.5-3,23-29.2,27.2-31.9v61.5h5.6V30.5
		c-7.9,0-5.6-1-12,7.2L51.6,54.4c-2.1,2.7-4.4,6.1-7.2,8C40.2,56.1,30.3,45,24.8,38.1c-6.8-8.7-4.2-7.7-12.3-7.7
		C12.5,30.4,12.5,100.8,12.5,100.8z"/>
	<path class="st7" d="M274.4,100.8h5.6V39.3c3.5,2.3,7.4,8.2,10.2,11.4l16.4,19.5c2.3,2.8,4.4,4.9,6.7,7.7l16.4,19.6
		c3.1,3.5,0.3,3.4,7.8,3.4V30.5h-5.6v60.7l-12.9-15c-1.5-1.7-1.7-2.3-3.2-4l-16-19.1c-2.3-2.7-17.8-22.6-20.5-22.6h-4.8v70.3H274.4z
		"/>
	<path class="st7" d="M477.3,62.4h-10.4V37.7c0-3.6,4.1-2.4,12.8-2.4C501.4,35.3,502.2,62.4,477.3,62.4L477.3,62.4z M461.3,100.8
		h5.6V69.6c0-4.8,12.9-2.2,15.7-1.3c8,2.4,21.3,26.9,25,32.5h6.4l-17.4-26.5c-2-3-3.6-6.8-7.3-7.8v-1.6c15.7-1.3,21.3-34.3-8.8-34.3
		h-19.2L461.3,100.8L461.3,100.8z"/>
	<path class="st7" d="M542.8,100.8h5.6V66.4c3.4,0.9,16.8,15.6,20.2,19c3.5,3.5,6.5,5.6,10,9.2c5.7,5.7,3.4,6.2,13.8,6.2
		c-4.8-7.1-30.1-27.1-35.9-35.9c2.1-3.2,5.5-5.5,8-8.8c2.4-3.2,5.2-5.6,8.2-8.6c4.2-4.2,13.8-12.8,16.6-17c-12.7,0-8.4,1.7-21.8,15
		c-4.7,4.6-14.4,15.5-19,18.6V30.5h-5.6L542.8,100.8L542.8,100.8z"/>
	<path class="st7" d="M351.1,47.2c0,23.9,32.7,15.4,32.7,35.9c0,12.7-14.2,18.2-28.7,8.7c-2.2-1.5-1.3-1.6-4.1-2.4v7.2
		c6.2,1.4,7.2,4.8,19.2,4.8c10.5,0,19.9-8,19.9-19.2c0-23.8-32.7-17-32.7-35.2c0-10.6,10.3-16.6,22.8-11.7c3,1.2,5,3,7.5,3.7v-6.4
		c-4-0.9-20.4-9.6-31.4,1.4C353.8,36.9,351.1,42.2,351.1,47.2L351.1,47.2z"/>
	<polygon class="st7" points="394.2,35.3 420.6,35.3 420.6,100.8 426.2,100.8 426.2,35.3 452.5,35.3 452.5,30.5 394.2,30.5 	"/>
	<rect x="598.7" y="30.5" class="st7" width="5.6" height="70.3"/>
	<rect x="519.6" y="30.5" class="st7" width="5.6" height="70.3"/>
	<path class="st7" d="M152.3,94.1c0-2.1-0.1-1.1,0.7-1.9l10.9,4c5.4,1.2,10.6,2.4,16.3,2.5c3,0.1,5.8,0,8.8-0.4
		c3.1-0.4,4.3-1,6.4-0.1c2.1-2.8,6.4-1.5,10-4.8c1.5,0.9,1.1-1.6,1.2,2.1c1.7-4.3,5.4-5.7,10.2-4.6c8,1.7,6.9,12.9,0.8,18.5
		c-2.3,2.2-4.5,4.7-8,5.6c-4.4,5.6-22.1,6.8-30.3,6.5c-6.9-0.2-22.6-2.2-28.6-6.6l-0.8-0.8c-11.2-2.2-21.6-21.7-7.7-24.1
		C151.5,88.6,152.2,93.9,152.3,94.1L152.3,94.1z M202.6,74.4c-1.8,8.1-11.1,15.5-21.6,15.3c-10.3-0.2-18.7-7.3-20.7-15.3
		c-3.8-5.7-0.5-16.7,2.8-21.1c3.6-4.8,10.1-9.3,18.6-9.2C200.3,44.4,208.1,65.1,202.6,74.4L202.6,74.4z M145.9,32.9
		c-1.6,1.9-3.7,3-6.1,5.1c-2.1,1.9-3.7,3.9-5.9,5.4c-10.4,14.4-15.6,24.8-16,43c0,2.9,0.6,6-1,8l-0.1,23.2
		c2.1,17.7,1.2,36.9,4.1,59.2c0.5,3.8,0.2,5.5,2.6,6.8c4.4-1.9,8.3-0.7,9.5,3.4l1.7,0.2c3.4-4,8.8-3.4,11,1.4h2.5
		c4.5-8.4,14.6-19.4,24.3-22.8c6.9-2.5,14.3-0.4,17.8,3.8c3.9,4.7,3.4,12.2,3.4,20.6c2.1,1.1,3.4,2.2,6.4,2.4
		c3-5.2,9.8-6.7,10.9,1.6h3.8c0.7-2.1,1.9-3.4,4.7-3.9c3.6-0.6,4.5,1.1,6.2,2.4l6.1-17.2c2.1-6.3,3.7-11.8,5.6-18.3
		c3.5-11.9,6.2-26,7.6-39.7l-0.6-23.2c-2.8-10.2-1.7-11.5-6.8-27.1c-1.4-4.1-2.9-8.4-4.7-12.1c-1-2-1.8-3.8-3-5.7
		c-1.5-2.4-2.2-3-3.4-5.7c-0.7-0.6-2.2-1.7-3.3-2.8c-1.5-1.5-1.4-1.8-3.1-3.3c-1.9-1.7-4.8-3-6.9-4.8c-6.5-2.5-13.8-5.6-22.7-5.6
		c1-4.2,3-4.3,4-8c-11.2,0.2-5.5,6-14.9-1c-2.1-1.6-3.8-2.4-5.8-3.8c0,5,0,8.7-1.6,12C159,26.5,154.5,28.3,145.9,32.9L145.9,32.9z"
		/>
	<path class="st8" d="M149.9,114.2c16.3-10.1,44.5-8.2,59.8,1c3.5-0.9,5.7-3.4,8-5.6c6.1-5.7,7.2-16.8-0.8-18.5
		c-4.8-1-8.5,0.3-10.2,4.6c-0.1,5.6-0.9,9.1-3.8,13.1c-3.6-0.2-4.2-0.7-5.5-3.6c-0.9-2-1.7-4.6-2-6.8c-2.1-0.9-3.3-0.3-6.4,0.1
		c-3,0.3-5.8,0.5-8.8,0.4c-5.7-0.2-10.9-1.3-16.3-2.5c0,5.6,0.2,10.5-4.5,12.6c-4.6-1.7-6.5-8.7-7.1-14.6c-0.1-0.2-0.8-5.5-10-4
		C128.4,92.4,138.8,111.9,149.9,114.2L149.9,114.2z"/>
	<path class="st9" d="M149.9,114.2l0.8,0.8c6,4.5,21.7,6.4,28.6,6.6c8.2,0.3,25.9-0.9,30.3-6.5C194.4,106,166.3,104.1,149.9,114.2
		L149.9,114.2z"/>
	<path class="st10" d="M186.7,63c2.2,0.9,0.7-1.6,2,2.1c1.7,5.1-5.1,12.6-11.7,7.7c-5.6-4.2-2.2-15,5.6-13c2.3-2,1.4-2,4.4-1
		C188.3,61,188.3,61.1,186.7,63L186.7,63z M179,55.9c-15.7,4.1-9,25.5,5.5,22C198.3,74.5,193.4,52.2,179,55.9L179,55.9z"/>
	<path class="st11" d="M186.7,63l-3.1-0.1l-1-3.1c-7.8-2-11.2,8.8-5.6,13c6.5,4.9,13.4-2.6,11.7-7.7C187.4,61.4,189,63.9,186.7,63
		L186.7,63z"/>
	<path class="st12" d="M202.6,74.4c-3.6,4.1-1.5,2.9-6.4,7.2C192,85.2,187,87.1,181,87c-11.8-0.2-16.1-7.4-20.7-12.6
		c2,8,10.4,15.1,20.7,15.3C191.4,89.9,200.8,82.5,202.6,74.4L202.6,74.4z"/>
	<path class="st13" d="M123.5,183.6c-2.9,6.4-1.4,7.1-0.8,13.8c3.1-0.8,3.4-2.8,5.1-5.3c0.6-0.9,1.6-2.2,2-2.8
		c1.5-1.9,0.4-1.6,3.2-2.3C131.8,182.9,127.9,181.6,123.5,183.6L123.5,183.6z"/>
</g>
</svg>
