<?xml version="1.0" encoding="utf-8"?>
<!-- Generator: Adobe Illustrator 21.1.0, SVG Export Plug-In . SVG Version: 6.00 Build 0)  -->
<svg version="1.1" id="Слой_1" xmlns="http://www.w3.org/2000/svg" xmlns:xlink="http://www.w3.org/1999/xlink" x="0px" y="0px"
	 viewBox="0 0 599.2 484" style="enable-background:new 0 0 599.2 484;" xml:space="preserve">
<style type="text/css">
	.st0{fill:#9F549F;}
	.st1{fill:#6E416E;}
	.st2{fill:#934F93;}
	.st3{fill:#623A62;}
	.st4{fill:#E7EEF7;}
	.st5{fill:#CDD3DB;}
	.st6{fill:#472845;}
	.st7{fill:#FCFCFC;}
	.st8{fill:#F8F7F8;}
	.st9{fill:#FDFDFD;}
	.st10{fill:#09B8B3;}
	.st11{fill:#6DCAD4;}
	.st12{fill:#54275B;}
	.st13{fill:#4E1F53;}
	.st14{fill:#31A6A9;}
	.st15{fill:#010101;}
	.st16{fill:#0E9697;}
	.st17{fill:#3C4040;}
	.st18{fill:#37A9AE;}
	.st19{fill:#2EA5A6;}
	.st20{fill:#36A3AA;}
	.st21{fill:#2C9CA0;}
	.st22{fill:#242523;}
</style>
<title>mons_wo_eyes_1</title>
<g id="Слой_2">
	<g id="Слой_1-2">
		<path class="st0" d="M599.2,139.4c-2,5-1.1,10.3-1.9,15.5c-4.5,30.2-17.5,56.8-34.6,81.6c-1.1,1.5-2.3,3-3.4,4.5
			c-0.5,0.7-1.2,2-1,2.2c4.5,4.6-1.1,5.2-2.9,6.8c-9.7,8.3-20.9,15.2-29.1,24.7c-10.3,11.8-24.5,15.8-37.1,22.8
			c-9.7,5.5-18.6,12-27.3,18.7c-11.2,8.6-23.7,14.3-36.8,18.2c-13.5,4-22,13.7-30.9,23.1c-2,2.1-4.9,3.9-5.2,7.4
			c-0.6,0.8-1.5,2.1-2.4,1.4c-3.4-3-6-0.3-8.7,1.1c-4.5,2.4-8.3,6-12.5,8.9c-2.2,1.5-4.2,3.6-7.3,1.5c-1.2-0.8-2.6,0.2-3.9,0.7
			c-9.5,3.3-19.1,6.3-28.9,8.7c-6.9,1.7-12.8,5.5-19.2,8.3c-2.3,1-5,2.9-6.9-0.9c-0.4-3.4-3.1-2.5-5.1-2.4
			c-3.8,0.3-7.6,1.1-11.5,0.9c-2-0.1-4,0.1-5.7-1.3c-5.5,0-11.2-0.7-16.4,1.9c-4.1,1.8-8-0.1-12-0.5c-10.5-1-21-2.3-31.4-4.2
			c-2.4-0.4-4.7-0.8-6.8-2.1c-5-5.2-11.5-8.5-17.3-12.6c-11.9-8.6-23.5-17.6-34.6-27.2c-4.5-4.2-8.6-8.8-12.2-13.8
			c-9.5-12.8-20.8-24-32.8-34.4c-2.7-2.2-4.5-5.1-5.3-8.5c-1.2-5.5-2.9-10.9-3.9-16.5c-1.1-6.5-5.4-11.1-9.4-16.1
			c-1.4,2.1-0.9,4-0.9,5.9c0,19.3,0,38.6,0,57.9c0,2.4,0.4,4.8-1.3,6.9c1.3,8.6,2.7,17.1,4,25.7c0.5,3.1,2.4,6.3-0.9,9.2
			c-0.5,0.5-0.1,2.3,0.2,3.4c0.9,3.5,2.3,6.8,2.7,10.3c0.7,6.9,6.2,12.4,4.1,20.7c-1.4,5.4,2.8,12.3,4.6,18.5
			c0.7,2.5,0.4,3.6-2.4,2.9l-0.5-0.1c-3.8-0.6-8.4-3.8-10.9-1.5c-1.9,1.8-0.8,7.1-0.9,10.8c-0.3,11.8-1.8,23.4-5.6,34.6
			c-1.3,3.9-2.8,7.6-6.7,11.1l-12.6-37c-1.5,11.2-0.2,22.8-8.8,32.9c-3.9-8.9-7.4-17.1-11.1-25.2c-1.2-2.7-1.7-7.6-4.3-7.3
			c-2.8,0.3-0.8,4.9-1.4,7.6c-1,5.4-2.7,10.6-5,15.5c-1.7,3.5-3,3-4.7,0.2c-0.9-1.5-1.6-3-2.5-4.4c-2.4-14.3-5-28.6-6.7-43
			c0-0.5-0.1-1-0.4-1.5c-5.9-8-3-16.9-2.9-25.6c0.1-11.7,1.9-23.5-1.2-35.1c-0.4-2.2-0.2-4.5,0.6-6.5c3.6-11.8,4.4-24.1,6.7-36.2
			c0.3-1.7,0.3-3.5-1.1-4.8c-2.6-2.5-1.9-5.4-0.7-8.1c14.5-33.5,24.4-68.9,42.1-101c2.8-5.1,5.5-10.2,8.6-15.1c1-1.5,2-3.3-1.2-3.3
			c-1.6,0-3.3,0.1-3.6-2c-0.3-1.9,0.9-3.2,2.2-4.3c6.7-5.8,13.5-11.5,20.4-17.1c11.1-9,22.7-17.6,31-29.5c1.2-1.7,2.8-3.1,3.3-5.1
			c10.5-8.7,20.8-17.7,32.9-23.9c19.8-10.1,39.5-20.3,59.5-30.5c-1.1,1.5-2.2,3.1-3.4,4.6c-0.9,1.2-2.5,2.4-1.4,3.9
			c0.9,1.2,2.6,0.2,3.8-0.3c9-3.1,18-6.2,27-9.3c1.1-0.4,2.3-0.6,3.4-0.9c0.5,1.6-0.8,2.2-1.2,3.2c-0.8,1.9-0.9,2.9,1.8,2.4
			c2.5-0.3,5.1-0.4,7.7-0.4c1.7,1.6,0.9,3.5,0.5,5.3c-0.9,5-1.4,10.1-2.1,15.1c-1.6,11.3,6.8,18.8,18,16.4
			c9.5-3.7,11.9-7.7,10.3-17.5c-0.6-3.9-1.4-7.7-2.1-11.5c-0.4-2.3-0.8-4.7,0.9-6.8c26.4,0.8,52.6,5.2,77.8,13.1l-6.5,2.8
			c12.7,8.2,27.2,9.9,40.9,15.6l-10.3,0.5c22.1,20.6,48.2,33.3,72.2,49.1c-2.3,1-2.4,2.4,0,4.8c3.5,3.7,6.7,7.7,9.8,11.8
			c4.5,5.6,13.1,7.1,17.7,1.6c5.4-6.3,12-11.8,15.1-20c4.6-12,7.2-24.4,9-37.1c0.3-1.8,0.6-3.5,1-5.7c3.4,2.6,6.5,4.6,9.4,7.1
			c2.4,2.1,3.5,1.7,4.8-1.2c4.2-9.8,9.5-19.2,15.6-28c4.5-6.4,9.5-12.4,17.6-16.5l-3.5,39.2c2.8-0.9,2.8-3,3.5-4.5
			c3.3-7.1,6.4-14.4,13.2-19c1.2-0.8,2.4-2.5,4-1.4c1.3,0.8,0.6,2.5,0.6,3.8c0,9.4-0.1,18.8-0.1,28.2c0,1.6-0.6,3.3,0.9,5.3
			c4.5-9.1,9.3-17.6,18.6-23c1.9,9.4,3,18.9,3.5,28.5c0.1,1.6-0.8,3.4,0.9,4.8L599.2,139.4z"/>
		<path class="st1" d="M299.9,394.6c1.2,1.6,2.8,1.3,4.1,0.5c14.6-9,31.5-11.7,47.4-16.9c2.6-0.8,6-6.4,9.1-0.3
			c1.2-0.6,2.4-1.3,3.5-2.1c5.7-4.3,11.1-8.9,17.7-12c2.2-1,4-3,4.7,1.3c0.2,1.2,1.7-0.1,2.6-0.3c-0.3,9-0.1,18,2.5,26.8
			c0.3,1,2,3.4-1.6,3.2c-1.6-0.1-0.9,1.9-0.9,3c0,8.7,0.3,17.4,0.1,26.1c-0.1,3.4,2.2,3.8,4.3,4.6c12.7,5,20.3,14.8,26,28.1
			l-45.3-11.8c7.7,8.7,13.3,18.1,14.1,30.8l-47.7-25.1l-1,0.8c4.8,9.8,7,20.8,6.4,31.7c-1.3-0.3-2.5-1.2-3.1-2.4
			c-5.1-13.2-11.1-25.6-23.9-33.4c-7.3-4.4-14.1-9.6-21.1-14.5c-5.2-3.6-7.8-8.6-7.5-14.8s-1.8-12.5,0-18.8
			C291.8,394.3,294.7,392.7,299.9,394.6z"/>
		<path class="st1" d="M210.7,385.4c9,3.2,18.5,3.7,27.9,5.1c7.4,1.1,14.8,2,22.1,3.1c0.1,10.3,0.1,20.6,0.3,31
			c0.1,5.9-3.4,9.4-7.7,12.4c-6.4,4.5-12.9,8.9-19.4,13.1c-13.2,8.6-25.1,18.7-36.8,29.2c-1.6,1.4-3.3,2.8-5.7,4.8
			c0.4-12.1,1.2-23.1,6.5-33.9l-48.2,25.4c-0.8-4.1,0.9-7.5,1.8-10.9c1-3.8,2.8-7.3,5.2-10.5c2.3-2.9,4.8-5.6,6.7-9.4l-44.7,11.6
			c0.4-2.4,1.4-4.6,2.8-6.5c6-3.9,11-9.1,17.2-12.7c5.6-3.3,11.6-5.8,17.8-7.4c6.3-1.5,6.7-2.4,6.6-8.7c-0.1-12.9-0.4-25.8,0-38.7
			c0.2-7.1,2-8.1,8.6-5.4s11.6,7.7,17.6,11.3c1.7,1,3.4,2.8,5.3,0.3c0.5-0.5,0.8-1.1,1-1.7c0.8-5.8,0.8-5.9,6.4-4.5
			C205,383.1,208.1,383.7,210.7,385.4z"/>
		<path class="st2" d="M127.6,117.8c1.8,1.4,0.8,2.6-0.2,3.9c-9.4,12.4-21.3,22.3-33.4,32c-7.2,5.7-14.2,11.7-21.2,17.5
			c-0.9,0.8-1.9,1.8-1.2,3s1.8,0.2,2.7,0.1c1.5-0.2,3.5-0.8,4.4,0.4c1.1,1.6-0.7,3-1.6,4.4c-11.7,19-21.5,39.2-29.3,60.1
			c-7,18.7-14.1,37.2-21.5,55.7c-1.1,2.6-3.7,5.6,1.2,8c1.7,0.8,0.7,4.1,0.3,6.3c-2.6,12.8-3.3,25.9-7.6,38.4c-1.2,3.5,2,6.5,2,10.3
			c0.2,14.8-1.2,29.6-1.2,44.4c0,2.3-0.6,4.6,2.3,6.2c1.1,0.6,1.5,3,1.7,4.6c1.6,12.6,3.3,25.2,6,37.6c0.4,1.8,0.9,3.7-0.8,5.3
			c-12.5-19.6-22-40.4-25.4-63.6c-0.2-1.3-0.3-2.7-0.6-4c0-0.3-0.4-0.5-0.7-0.8c-1.8,0.4-1.7,2.2-2.5,3.4c-0.4,0.2-0.4,0-0.3-0.5
			c0.9-15.3,2.1-30.6,1.7-45.9c0-1.8,2.1-4.9-2.2-5.5c-0.9-0.1,0-1.8,0.3-2.7C5,324.3,5.2,311.4,8,298.9c0.8-3.4,0.9-5.8-5-2.4
			c17.6-38.6,26.7-79.2,51-114.1h-5.2c-1.3,0.6-2.3,0.8-2.2-1.1c6.9-7.1,15-12.8,22.5-19.3c8.5-7.4,17.2-14.5,25.6-21.7
			c-1.3-2.4-3.2-1.6-4.8-1.9c-2.2,0.3-4.4,1.4-6.3-0.8c10.8-6.6,22.7-10.6,34.3-15.6C121.2,120.6,123.9,118.2,127.6,117.8z"/>
		<path class="st2" d="M210.7,385.4c-3.5,0.1-6.6-1.5-9.9-2c-1.3-0.2-2.7-1.5-3.8-0.4s0.1,2.5,0.6,3.7c1.6,3.5-0.5,2.4-2.2,1.8
			c-3.1,0.7-5.1-1.6-7.2-3.1c-6.3-4.6-12.8-9-20-12.1c-2.5-1.1-4.7-2.1-5.9,1.7c-0.9,2.7-3.1,2.1-5,0.9c-2.3-1.5-3.8-3.9-6.5-5.7
			c-0.5,3.1,0,5.9-0.3,8.6c-0.2,1.7,0.6,3.9-2.1,4.5c-0.1-3.6-0.6-7.2-0.1-10.7c1.4-8.6-3.4-13.9-9.3-18.4s-11.3-9.3-16.7-14.2
			c-2-1.8-4.4-2.4-6.8-3.3c-7.6-2.8-15.1-5.6-22.7-8.4c0-23.1,0-46.1-0.1-69.2c0-1.5-0.5-3.6,1.3-4.1s2.1,1.8,3.2,2.8
			c9.2,9.2,9.4,21.9,12.7,33.3c0.5,2.2,1.6,4.1,3.3,5.5c8.1,6.5,15.2,14.1,22.5,21.4c7.6,7.6,12.8,17.3,20.6,24.6
			c15.4,14.7,32.7,27.1,50.3,39C208.2,382.8,209.9,383.5,210.7,385.4z"/>
		<path class="st3" d="M299.9,394.6c-7.6,0.1-10.4,3.3-9,11.6c0.5,4.4,0.8,8.8,0.8,13.2c0.2,4.9,1.9,8.8,6.1,11.7
			c9.6,6.7,19.4,13.2,28.7,20.4c8.9,6.9,12.6,17.5,17.3,27.2c0.4,0.9-0.2,1.6-1,2.1c-15.5-13.7-31.9-26.3-49.2-37.7
			c-2.1-1.4-4.1-3-6.4-4.2c-7.2-3.9-10.1-9.5-10.5-18.1c-0.5-9.8,0.8-19.5,0.4-29.2c7.1,0.5,14-0.9,21.1-1.1
			C302.7,390.3,302.2,392,299.9,394.6z"/>
		<path class="st3" d="M148.3,383.3c2-5-0.1-10.4,1.3-16.3c2.8,2.8,5.2,5.3,7.8,7.6c2.1,2,4.1,2.5,4-1.4s2-3.1,4.3-2.2
			c8,3,15.1,7.5,22,12.5c2.5,1.8,5,3.4,7.6,5.1c0.3,4.5-1.1,4.5-4.6,2.4c-7.2-4.4-13.3-10.6-21.5-13.6c-3.8-1.4-4.6-0.2-4.6,3.2
			c0,8.6,0,17.3,0,25.9c0,6.2,0,12.5,0,18.7c0,2.7-0.8,4.9-3.7,5.3c-14.7,2-26,10.3-36.8,19.5c-0.7,0.6-1.7,3.2-2.6,0
			c4.2-10,11.7-16.8,21.5-20.8c4.2-1.7,5.5-3.8,5.3-8.1c-0.4-7.9,0-15.8,0.1-23.8C148.4,392.6,146.8,388,148.3,383.3z"/>
		<path class="st4" d="M283.4,67.6c0.1,6.7,1.8,13.1,2.9,19.5c1.5,9-2.8,15.4-11.9,17.5c-3.8,1.4-5.4-0.4-5.7-4
			c-0.1-0.7,0,0.2,0-0.5c0.3-30.5-1.1-61,0.9-91.5c0.2-2.5-0.4-5.1,0.7-7.6c0-0.2,0-0.3,0.1-0.5c0.2-0.6,0.8-0.8,0.9-0.1
			c1.4,8.5,2.8,17,4.1,25.6c2.1,13.2,4.2,26.4,6.2,39.7C281.5,66.7,282.3,67.6,283.4,67.6z"/>
		<path class="st5" d="M270.1,1c0,32.9,0,65.7,0,98.6c0,3.1,0.2,5.5,4.2,5c-11,3.3-21.2-5.2-19.6-16.3c1-7.2,2-14.4,3.1-21.6
			c3.8-5.2,3-11.6,4.1-17.5c2.9-15.8,5.1-31.7,7.6-47.5C269.5,1.5,269.9,1.3,270.1,1z"/>
		<path class="st0" d="M83.7,137.6c1.9,1.4,4.2,0.4,6.3,0.8c-2.7,1.2-5.5,0.6-8.3,0.8C81.6,137.5,82.8,137.7,83.7,137.6z"/>
		<path class="st0" d="M46.7,181.3c0.5,0.8,1.3,1.2,2.2,1.1l-4.1,1.8C44.5,182.6,45.8,182.1,46.7,181.3z"/>
		<path class="st6" d="M328,267.5c1.4-1.3,3.1-1.1,4.8-1.1c12.5,0,24.9,0.1,37.4-0.1c3.4,0,4.8,0.8,4.7,4.5
			c-0.9,24.9-9.8,46.5-26.1,65c-16,18-36,29.6-59.9,33.5c-31.5,5.2-59.9-1.9-84.8-22c-20.5-16.6-32.3-38.2-37.2-64
			c-3.2-17.1-3.4-17.1,13.7-17c10.4,0,20.8,0.1,31.3,0.1c5.1,8,9.4,16.3,11.2,25.7c-0.1,0.9,0.3,2,1.2,2c1.2,0,0.9-1.2,0.9-1.9
			c0-7.2,0.2-14.3,0-21.5c-0.1-3.3,0.8-4.4,4.3-4.4c28.7,0.1,57.4,0.1,86,0.2c1.8,2.4,1.3,5.2,1.3,7.9c0,5.9,0.3,11.8-0.2,17.7
			c0.1,0.7,1,0,0.4,0.2c-0.3,0.1-0.4-0.1-0.3-0.4c0.8-5.5,3.5-10.2,6-15C324,273.7,324.1,269.5,328,267.5z"/>
		<path class="st7" d="M328,267.5l-11.7,25.6l-0.9-0.3c0-8.8,0-17.6,0-26.4C319.5,267.1,323.9,265.4,328,267.5z"/>
		<path class="st8" d="M223.1,292.2l-11.2-25.7c12.4,0,12.5,0,12.3,12.4C224,283.4,225.6,288,223.1,292.2z"/>
	</g>
</g>
<g>
	<path class="st9" d="M343.5,184.5c-0.6-9.3-8.4-15.5-14.2-21.9c-14.2-15.5-33.4-26.1-57-27.4H264c-32.9,2.1-65.6,29.6-69,47.7
		c-2.9,10.2-2,8-1.3,18.1c2.4,13.6,16.1,25.9,26.6,32.9c13.6,9,25.1,13.2,47.7,13.1c23.9-0.1,32.5-2.5,47.6-11.6
		c9.8-5.9,25.5-20.6,28-33.5L343.5,184.5z M289.4,220.6c-13,12.6-33,9.6-45.3-0.4l-3.1-4c-0.6-0.9-2.3-3.8-3-5.2
		c-15.6-32.7,29.6-64.1,53-33.5C298.1,180.3,305,205.5,289.4,220.6z"/>
	<path class="st9" d="M289.4,220.6c-13,12.6-33,9.6-45.3-0.4l-3.1-4c-0.6-0.9-2.3-3.8-3-5.2c-15.6-32.7,29.6-64.1,53-33.5
		C298.1,180.3,305,205.5,289.4,220.6z"/>
</g>
<g>
	<path class="st10" d="M290.9,175.5c11.4,14.2,10.9,31.7-1.4,43.8c-12.3,12.1-30.4,12.3-44.5,0.4c0.1-0.5,0.1-1,0.1-1.5
		c2.2-0.3,4.3-0.7,4-4.1c-1.6,0.9-2.9,1.7-4.3,2.5c-0.4-4,0.4-7.7,1.8-11.3c9.3,13.1,21,16.6,31.9,9.5c4.5-2.9,7.9-6.8,9-12.2
		c1.3-5.9-6.6-2.5-7.2-6.6c8.6-3.5,9.1-5.2,3.7-12.6c-1.1-1.5-2.5-2.9-3.7-4.3C284,177.9,287.5,176.7,290.9,175.5z"/>
	<path class="st11" d="M245.2,218.2c0,0.5,0,1-0.1,1.5c-10.9-11.6-13.2-23.8-6.7-36.1c0.4,3.3,2.4,4.4,5.6,4.3
		c-0.9-3.1-3.8-3-5.6-4.3c1.1-6,5-9.9,10.1-12.8c0.5,2.5,0.9,5.1,4.5,4.8c-0.5-2.4-1.6-4.1-3.3-5.4c4.1-4.2,9.3-5.3,14.9-4.8
		c0.7,2-1.2,4.9,2.2,6c1.8-3.1,1.3-5.1-2.3-6c7.6-2.2,14,0.4,19.8,5.1c-2.4,0.3-4.9,0.4-3.8,4.7c1.5-1.8,2.6-3.3,3.8-4.7
		c2.8,0.8,5.1,2.3,6.6,5c-3.5,1.1-7,2.3-10.4,3.5c-9.4-5.1-18.7-6.2-27.5,1.3c-1.7,0.5-2.7,1.6-3.1,3.3c-5.5,6.5-5,13.9-3.2,21.5
		c-1.5,3.7-2.2,7.4-1.8,11.3C244.8,217.2,244.9,217.7,245.2,218.2z M237.2,203c1.6,0.2,2.4,0.5,3.1,0.4c1.2-0.2,3.2-0.5,1.8-2.2
		C240.9,199.7,239.4,201.3,237.2,203z"/>
	<path class="st12" d="M341.2,199.5c1.4-3,2.8-5.5,2.2-8.7c-0.4-1.9-2-4.2,0.5-5.9c1.1-0.7,1.9,0.3,2.7,1c2.1,1.8,4.7,4.8,3.7,6.5
		C348.5,195.3,347.9,200.8,341.2,199.5z"/>
	<path class="st13" d="M194.6,184.6c-2.4,6-2.8,10.9,0,16.6c-5.6-1.3-8.2-4.9-8.3-8.4C186,189.3,188.7,185.9,194.6,184.6z"/>
	<path class="st14" d="M249.6,170.2c1.7,1.3,2.8,3.1,3.3,5.4c-3.6,0.2-4-2.4-4.5-4.8C248.7,170.5,249.1,170.3,249.6,170.2z"/>
	<path class="st15" d="M246.8,205.2c-1.8-7.6-2.3-15,3.2-21.5c3.8,3.1-3,5.7-0.3,9.2c4.9-5.3,10-10,16.7-12.5
		c1.2-0.2,3.2-0.3,2.5-1.9c-1-2.3-2.8-1.2-4.3-0.1c-4.3-1.8-7.1,4.7-11.5,2c8.8-7.6,18.1-6.4,27.5-1.3c1.2,1.5,2.6,2.8,3.7,4.3
		c5.5,7.4,5,9-3.7,12.6c0.6,4.2,8.4,0.8,7.2,6.6c-1.1,5.3-4.5,9.2-9,12.2C267.8,221.8,256.1,218.4,246.8,205.2z"/>
	<path class="st16" d="M245.2,218.2c-0.3-0.5-0.4-1-0.2-1.6c1.3-0.8,2.7-1.6,4.3-2.5C249.5,217.5,247.4,217.9,245.2,218.2z"/>
	<path class="st17" d="M253,180.4c4.4,2.8,7.3-3.8,11.5-2c0.6,0.7,1.2,1.3,1.8,2c-6.7,2.5-11.8,7.2-16.7,12.5
		c-2.7-3.4,4.1-6,0.3-9.2C250.4,182,251.3,180.8,253,180.4z"/>
	<path class="st18" d="M264.6,165.4c3.6,0.9,4.1,2.9,2.3,6C263.3,170.3,265.3,167.4,264.6,165.4L264.6,165.4z"/>
	<path class="st19" d="M238.3,183.7c1.8,1.4,4.8,1.2,5.6,4.3C240.7,188,238.7,186.9,238.3,183.7
		C238.3,183.6,238.3,183.7,238.3,183.7z"/>
	<path class="st20" d="M237.2,203c2.1-1.7,3.7-3.2,4.9-1.8c1.4,1.7-0.6,2-1.8,2.2C239.6,203.5,238.9,203.2,237.2,203z"/>
	<path class="st21" d="M284.4,170.5c-1.1,1.5-2.3,2.9-3.8,4.7C279.5,171,282,170.8,284.4,170.5L284.4,170.5z"/>
	<path class="st22" d="M266.4,180.4c-0.6-0.7-1.2-1.3-1.8-2c1.5-1.2,3.3-2.2,4.3,0.1C269.5,180.1,267.5,180.1,266.4,180.4z"/>
</g>
</svg>
