<?xml version="1.0" encoding="utf-8"?>
<!-- Generator: Adobe Illustrator 21.1.0, SVG Export Plug-In . SVG Version: 6.00 Build 0)  -->
<svg version="1.1" id="Слой_1" xmlns="http://www.w3.org/2000/svg" xmlns:xlink="http://www.w3.org/1999/xlink" x="0px" y="0px"
	 viewBox="0 0 599.2 484" style="enable-background:new 0 0 599.2 484;" xml:space="preserve">
<style type="text/css">
	.st0{fill:#9F549F;}
	.st1{fill:#6E416E;}
	.st2{fill:#934F93;}
	.st3{fill:#623A62;}
	.st4{fill:#E7EEF7;}
	.st5{fill:#CDD3DB;}
	.st6{fill:#472845;}
	.st7{fill:#FCFCFC;}
	.st8{fill:#F8F7F8;}
	.st9{fill:#FEFDFE;}
	.st10{fill:#0194A8;}
</style>
<title>mons_wo_eyes_1</title>
<g id="Слой_2">
	<g id="Слой_1-2">
		<path class="st0" d="M599.2,139.4c-2,5-1.1,10.3-1.9,15.5c-4.5,30.2-17.5,56.8-34.6,81.6c-1.1,1.5-2.3,3-3.4,4.5
			c-0.5,0.7-1.2,2-1,2.2c4.5,4.6-1.1,5.2-2.9,6.8c-9.7,8.3-20.9,15.2-29.1,24.7c-10.3,11.8-24.5,15.8-37.1,22.8
			c-9.7,5.5-18.6,12-27.3,18.7c-11.2,8.6-23.7,14.3-36.8,18.2c-13.5,4-22,13.7-30.9,23.1c-2,2.1-4.9,3.9-5.2,7.4
			c-0.6,0.8-1.5,2.1-2.4,1.4c-3.4-3-6-0.3-8.7,1.1c-4.5,2.4-8.3,6-12.5,8.9c-2.2,1.5-4.2,3.6-7.3,1.5c-1.2-0.8-2.6,0.2-3.9,0.7
			c-9.5,3.3-19.1,6.3-28.9,8.7c-6.9,1.7-12.8,5.5-19.2,8.3c-2.3,1-5,2.9-6.9-0.9c-0.4-3.4-3.1-2.5-5.1-2.4
			c-3.8,0.3-7.6,1.1-11.5,0.9c-2-0.1-4,0.1-5.7-1.3c-5.5,0-11.2-0.7-16.4,1.9c-4.1,1.8-8-0.1-12-0.5c-10.5-1-21-2.3-31.4-4.2
			c-2.4-0.4-4.7-0.8-6.8-2.1c-5-5.2-11.5-8.5-17.3-12.6c-11.9-8.6-23.5-17.6-34.6-27.2c-4.5-4.2-8.6-8.8-12.2-13.8
			c-9.5-12.8-20.8-24-32.8-34.4c-2.7-2.2-4.5-5.1-5.3-8.5c-1.2-5.5-2.9-10.9-3.9-16.5c-1.1-6.5-5.4-11.1-9.4-16.1
			c-1.4,2.1-0.9,4-0.9,5.9c0,19.3,0,38.6,0,57.9c0,2.4,0.4,4.8-1.3,6.9c1.3,8.6,2.7,17.1,4,25.7c0.5,3.1,2.4,6.3-0.9,9.2
			c-0.5,0.5-0.1,2.3,0.2,3.4c0.9,3.5,2.3,6.8,2.7,10.3c0.7,6.9,6.2,12.4,4.1,20.7c-1.4,5.4,2.8,12.3,4.6,18.5
			c0.7,2.5,0.4,3.6-2.4,2.9l-0.5-0.1c-3.8-0.6-8.4-3.8-10.9-1.5c-1.9,1.8-0.8,7.1-0.9,10.8c-0.3,11.8-1.8,23.4-5.6,34.6
			c-1.3,3.9-2.8,7.6-6.7,11.1l-12.6-37c-1.5,11.2-0.2,22.8-8.8,32.9c-3.9-8.9-7.4-17.1-11.1-25.2c-1.2-2.7-1.7-7.6-4.3-7.3
			c-2.8,0.3-0.8,4.9-1.4,7.6c-1,5.4-2.7,10.6-5,15.5c-1.7,3.5-3,3-4.7,0.2c-0.9-1.5-1.6-3-2.5-4.4c-2.4-14.3-5-28.6-6.7-43
			c0-0.5-0.1-1-0.4-1.5c-5.9-8-3-16.9-2.9-25.6c0.1-11.7,1.9-23.5-1.2-35.1c-0.4-2.2-0.2-4.5,0.6-6.5c3.6-11.8,4.4-24.1,6.7-36.2
			c0.3-1.7,0.3-3.5-1.1-4.8c-2.6-2.5-1.9-5.4-0.7-8.1c14.5-33.5,24.4-68.9,42.1-101c2.8-5.1,5.5-10.2,8.6-15.1c1-1.5,2-3.3-1.2-3.3
			c-1.6,0-3.3,0.1-3.6-2c-0.3-1.9,0.9-3.2,2.2-4.3c6.7-5.8,13.5-11.5,20.4-17.1c11.1-9,22.7-17.6,31-29.5c1.2-1.7,2.8-3.1,3.3-5.1
			c10.5-8.7,20.8-17.7,32.9-23.9c19.8-10.1,39.5-20.3,59.5-30.5c-1.1,1.5-2.2,3.1-3.4,4.6c-0.9,1.2-2.5,2.4-1.4,3.9
			c0.9,1.2,2.6,0.2,3.8-0.3c9-3.1,18-6.2,27-9.3c1.1-0.4,2.3-0.6,3.4-0.9c0.5,1.6-0.8,2.2-1.2,3.2c-0.8,1.9-0.9,2.9,1.8,2.4
			c2.5-0.3,5.1-0.4,7.7-0.4c1.7,1.6,0.9,3.5,0.5,5.3c-0.9,5-1.4,10.1-2.1,15.1c-1.6,11.3,6.8,18.8,18,16.4
			c9.5-3.7,11.9-7.7,10.3-17.5c-0.6-3.9-1.4-7.7-2.1-11.5c-0.4-2.3-0.8-4.7,0.9-6.8c26.4,0.8,52.6,5.2,77.8,13.1l-6.5,2.8
			c12.7,8.2,27.2,9.9,40.9,15.6l-10.3,0.5c22.1,20.6,48.2,33.3,72.2,49.1c-2.3,1-2.4,2.4,0,4.8c3.5,3.7,6.7,7.7,9.8,11.8
			c4.5,5.6,13.1,7.1,17.7,1.6c5.4-6.3,12-11.8,15.1-20c4.6-12,7.2-24.4,9-37.1c0.3-1.8,0.6-3.5,1-5.7c3.4,2.6,6.5,4.6,9.4,7.1
			c2.4,2.1,3.5,1.7,4.8-1.2c4.2-9.8,9.5-19.2,15.6-28c4.5-6.4,9.5-12.4,17.6-16.5l-3.5,39.2c2.8-0.9,2.8-3,3.5-4.5
			c3.3-7.1,6.4-14.4,13.2-19c1.2-0.8,2.4-2.5,4-1.4c1.3,0.8,0.6,2.5,0.6,3.8c0,9.4-0.1,18.8-0.1,28.2c0,1.6-0.6,3.3,0.9,5.3
			c4.5-9.1,9.3-17.6,18.6-23c1.9,9.4,3,18.9,3.5,28.5c0.1,1.6-0.8,3.4,0.9,4.8L599.2,139.4z"/>
		<path class="st1" d="M299.9,394.6c1.2,1.6,2.8,1.3,4.1,0.5c14.6-9,31.5-11.7,47.4-16.9c2.6-0.8,6-6.4,9.1-0.3
			c1.2-0.6,2.4-1.3,3.5-2.1c5.7-4.3,11.1-8.9,17.7-12c2.2-1,4-3,4.7,1.3c0.2,1.2,1.7-0.1,2.6-0.3c-0.3,9-0.1,18,2.5,26.8
			c0.3,1,2,3.4-1.6,3.2c-1.6-0.1-0.9,1.9-0.9,3c0,8.7,0.3,17.4,0.1,26.1c-0.1,3.4,2.2,3.8,4.3,4.6c12.7,5,20.3,14.8,26,28.1
			l-45.3-11.8c7.7,8.7,13.3,18.1,14.1,30.8l-47.7-25.1l-1,0.8c4.8,9.8,7,20.8,6.4,31.7c-1.3-0.3-2.5-1.2-3.1-2.4
			c-5.1-13.2-11.1-25.6-23.9-33.4c-7.3-4.4-14.1-9.6-21.1-14.5c-5.2-3.6-7.8-8.6-7.5-14.8s-1.8-12.5,0-18.8
			C291.8,394.3,294.7,392.7,299.9,394.6z"/>
		<path class="st1" d="M210.7,385.4c9,3.2,18.5,3.7,27.9,5.1c7.4,1.1,14.8,2,22.1,3.1c0.1,10.3,0.1,20.6,0.3,31
			c0.1,5.9-3.4,9.4-7.7,12.4c-6.4,4.5-12.9,8.9-19.4,13.1c-13.2,8.6-25.1,18.7-36.8,29.2c-1.6,1.4-3.3,2.8-5.7,4.8
			c0.4-12.1,1.2-23.1,6.5-33.9l-48.2,25.4c-0.8-4.1,0.9-7.5,1.8-10.9c1-3.8,2.8-7.3,5.2-10.5c2.3-2.9,4.8-5.6,6.7-9.4l-44.7,11.6
			c0.4-2.4,1.4-4.6,2.8-6.5c6-3.9,11-9.1,17.2-12.7c5.6-3.3,11.6-5.8,17.8-7.4c6.3-1.5,6.7-2.4,6.6-8.7c-0.1-12.9-0.4-25.8,0-38.7
			c0.2-7.1,2-8.1,8.6-5.4s11.6,7.7,17.6,11.3c1.7,1,3.4,2.8,5.3,0.3c0.5-0.5,0.8-1.1,1-1.7c0.8-5.8,0.8-5.9,6.4-4.5
			C205,383.1,208.1,383.7,210.7,385.4z"/>
		<path class="st2" d="M127.6,117.8c1.8,1.4,0.8,2.6-0.2,3.9c-9.4,12.4-21.3,22.3-33.4,32c-7.2,5.7-14.2,11.7-21.2,17.5
			c-0.9,0.8-1.9,1.8-1.2,3s1.8,0.2,2.7,0.1c1.5-0.2,3.5-0.8,4.4,0.4c1.1,1.6-0.7,3-1.6,4.4c-11.7,19-21.5,39.2-29.3,60.1
			c-7,18.7-14.1,37.2-21.5,55.7c-1.1,2.6-3.7,5.6,1.2,8c1.7,0.8,0.7,4.1,0.3,6.3c-2.6,12.8-3.3,25.9-7.6,38.4c-1.2,3.5,2,6.5,2,10.3
			c0.2,14.8-1.2,29.6-1.2,44.4c0,2.3-0.6,4.6,2.3,6.2c1.1,0.6,1.5,3,1.7,4.6c1.6,12.6,3.3,25.2,6,37.6c0.4,1.8,0.9,3.7-0.8,5.3
			c-12.5-19.6-22-40.4-25.4-63.6c-0.2-1.3-0.3-2.7-0.6-4c0-0.3-0.4-0.5-0.7-0.8c-1.8,0.4-1.7,2.2-2.5,3.4c-0.4,0.2-0.4,0-0.3-0.5
			c0.9-15.3,2.1-30.6,1.7-45.9c0-1.8,2.1-4.9-2.2-5.5c-0.9-0.1,0-1.8,0.3-2.7C5,324.3,5.2,311.4,8,298.9c0.8-3.4,0.9-5.8-5-2.4
			c17.6-38.6,26.7-79.2,51-114.1h-5.2c-1.3,0.6-2.3,0.8-2.2-1.1c6.9-7.1,15-12.8,22.5-19.3c8.5-7.4,17.2-14.5,25.6-21.7
			c-1.3-2.4-3.2-1.6-4.8-1.9c-2.2,0.3-4.4,1.4-6.3-0.8c10.8-6.6,22.7-10.6,34.3-15.6C121.2,120.6,123.9,118.2,127.6,117.8z"/>
		<path class="st2" d="M210.7,385.4c-3.5,0.1-6.6-1.5-9.9-2c-1.3-0.2-2.7-1.5-3.8-0.4s0.1,2.5,0.6,3.7c1.6,3.5-0.5,2.4-2.2,1.8
			c-3.1,0.7-5.1-1.6-7.2-3.1c-6.3-4.6-12.8-9-20-12.1c-2.5-1.1-4.7-2.1-5.9,1.7c-0.9,2.7-3.1,2.1-5,0.9c-2.3-1.5-3.8-3.9-6.5-5.7
			c-0.5,3.1,0,5.9-0.3,8.6c-0.2,1.7,0.6,3.9-2.1,4.5c-0.1-3.6-0.6-7.2-0.1-10.7c1.4-8.6-3.4-13.9-9.3-18.4s-11.3-9.3-16.7-14.2
			c-2-1.8-4.4-2.4-6.8-3.3c-7.6-2.8-15.1-5.6-22.7-8.4c0-23.1,0-46.1-0.1-69.2c0-1.5-0.5-3.6,1.3-4.1s2.1,1.8,3.2,2.8
			c9.2,9.2,9.4,21.9,12.7,33.3c0.5,2.2,1.6,4.1,3.3,5.5c8.1,6.5,15.2,14.1,22.5,21.4c7.6,7.6,12.8,17.3,20.6,24.6
			c15.4,14.7,32.7,27.1,50.3,39C208.2,382.8,209.9,383.5,210.7,385.4z"/>
		<path class="st3" d="M299.9,394.6c-7.6,0.1-10.4,3.3-9,11.6c0.5,4.4,0.8,8.8,0.8,13.2c0.2,4.9,1.9,8.8,6.1,11.7
			c9.6,6.7,19.4,13.2,28.7,20.4c8.9,6.9,12.6,17.5,17.3,27.2c0.4,0.9-0.2,1.6-1,2.1c-15.5-13.7-31.9-26.3-49.2-37.7
			c-2.1-1.4-4.1-3-6.4-4.2c-7.2-3.9-10.1-9.5-10.5-18.1c-0.5-9.8,0.8-19.5,0.4-29.2c7.1,0.5,14-0.9,21.1-1.1
			C302.7,390.3,302.2,392,299.9,394.6z"/>
		<path class="st3" d="M148.3,383.3c2-5-0.1-10.4,1.3-16.3c2.8,2.8,5.2,5.3,7.8,7.6c2.1,2,4.1,2.5,4-1.4s2-3.1,4.3-2.2
			c8,3,15.1,7.5,22,12.5c2.5,1.8,5,3.4,7.6,5.1c0.3,4.5-1.1,4.5-4.6,2.4c-7.2-4.4-13.3-10.6-21.5-13.6c-3.8-1.4-4.6-0.2-4.6,3.2
			c0,8.6,0,17.3,0,25.9c0,6.2,0,12.5,0,18.7c0,2.7-0.8,4.9-3.7,5.3c-14.7,2-26,10.3-36.8,19.5c-0.7,0.6-1.7,3.2-2.6,0
			c4.2-10,11.7-16.8,21.5-20.8c4.2-1.7,5.5-3.8,5.3-8.1c-0.4-7.9,0-15.8,0.1-23.8C148.4,392.6,146.8,388,148.3,383.3z"/>
		<path class="st4" d="M283.4,67.6c0.1,6.7,1.8,13.1,2.9,19.5c1.5,9-2.8,15.4-11.9,17.5c-3.8,1.4-5.4-0.4-5.7-4
			c-0.1-0.7,0,0.2,0-0.5c0.3-30.5-1.1-61,0.9-91.5c0.2-2.5-0.4-5.1,0.7-7.6c0-0.2,0-0.3,0.1-0.5c0.2-0.6,0.8-0.8,0.9-0.1
			c1.4,8.5,2.8,17,4.1,25.6c2.1,13.2,4.2,26.4,6.2,39.7C281.5,66.7,282.3,67.6,283.4,67.6z"/>
		<path class="st5" d="M270.1,1c0,32.9,0,65.7,0,98.6c0,3.1,0.2,5.5,4.2,5c-11,3.3-21.2-5.2-19.6-16.3c1-7.2,2-14.4,3.1-21.6
			c3.8-5.2,3-11.6,4.1-17.5c2.9-15.8,5.1-31.7,7.6-47.5C269.5,1.5,269.9,1.3,270.1,1z"/>
		<path class="st0" d="M83.7,137.6c1.9,1.4,4.2,0.4,6.3,0.8c-2.7,1.2-5.5,0.6-8.3,0.8C81.6,137.5,82.8,137.7,83.7,137.6z"/>
		<path class="st0" d="M46.7,181.3c0.5,0.8,1.3,1.2,2.2,1.1l-4.1,1.8C44.5,182.6,45.8,182.1,46.7,181.3z"/>
		<path class="st6" d="M328,267.5c1.4-1.3,3.1-1.1,4.8-1.1c12.5,0,24.9,0.1,37.4-0.1c3.4,0,4.8,0.8,4.7,4.5
			c-0.9,24.9-9.8,46.5-26.1,65c-16,18-36,29.6-59.9,33.5c-31.5,5.2-59.9-1.9-84.8-22c-20.5-16.6-32.3-38.2-37.2-64
			c-3.2-17.1-3.4-17.1,13.7-17c10.4,0,20.8,0.1,31.3,0.1c5.1,8,9.4,16.3,11.2,25.7c-0.1,0.9,0.3,2,1.2,2c1.2,0,0.9-1.2,0.9-1.9
			c0-7.2,0.2-14.3,0-21.5c-0.1-3.3,0.8-4.4,4.3-4.4c28.7,0.1,57.4,0.1,86,0.2c1.8,2.4,1.3,5.2,1.3,7.9c0,5.9,0.3,11.8-0.2,17.7
			c0.1,0.7,1,0,0.4,0.2c-0.3,0.1-0.4-0.1-0.3-0.4c0.8-5.5,3.5-10.2,6-15C324,273.7,324.1,269.5,328,267.5z"/>
		<path class="st7" d="M328,267.5l-11.7,25.6l-0.9-0.3c0-8.8,0-17.6,0-26.4C319.5,267.1,323.9,265.4,328,267.5z"/>
		<path class="st8" d="M223.1,292.2l-11.2-25.7c12.4,0,12.5,0,12.3,12.4C224,283.4,225.6,288,223.1,292.2z"/>
	</g>
</g>
<g>
	<path class="st9" d="M329.9,158.8c0,8,2.4,12,6.7,16.1c4.7,4.7,9.5,6.1,17.5,5.6c3-0.8,6.2-1.7,8.4-3.2c2.7-1.8,2.7-3,6.2-5.3
		c2.5,13.6,5.6,20.5-0.1,35c-4,10.2-10.5,17.7-17.9,22.6c-25.5,16.7-56.6,7.1-69.1-15.9c-13.9-25.7-3.8-55.3,20.6-67.2
		c8.3-4,25.1-7.8,34.3-2.8C333.7,148.6,330.4,149.8,329.9,158.8L329.9,158.8z M326.3,255h-5c-11.8-0.5-23.7-4.3-34.7-11.6
		c-7.7-5.1-19.7-17.6-21.7-26.3c-1.1,1.3-0.4,0.4-1.4,2c-0.4,0.6-0.9,1.5-1.3,2.1c-0.8,1.3-1.4,2.4-2.2,3.7c-1.6,2.6-2.9,4.6-5,6.8
		c-4,4.1-8,8.4-12.7,11.7c-43,29.7-102.1-0.8-102.1-54.1c0-20.2,7.8-31.3,18-44.3c3-3.9,13.2-11,17.9-13.3
		c22-10.7,48.3-8.3,67.8,6.1c15.6,11.4,17.4,21.9,20.9,24.6c0.9-3.6,6.3-11.3,8.6-14c3.6-4.3,7.3-7.6,11.8-11
		c22.1-16.5,54.4-16.3,77.2,0.7c24.1,18,33.5,52.1,20.1,78.8C370.5,240.7,349,254.1,326.3,255L326.3,255z M211.6,159.3
		c0.3,13.6,10.1,22,24.2,21.2c7.8-2.2,9.9-3.8,13.9-8.2c7,9.3,6.4,41.2-17.5,57.5c-40.4,27.7-93.9-17.9-68.8-63.8
		c12.1-22.2,42.7-29.4,55-22.3C215,148,212.3,151,211.6,159.3L211.6,159.3z"/>
	<path d="M235.8,180.5c-14,0.7-23.9-7.6-24.2-21.2c-14.7-5.8-29.8,6.9-34.2,15.8c-7.3,14.4-2.5,30.1,6.4,38
		C203.5,230.7,242.2,220,235.8,180.5L235.8,180.5z"/>
	<path d="M354,180.5c-8,0.6-12.7-0.9-17.5-5.6c-4.3-4.1-6.6-8.2-6.7-16.1c-27.5-3-41.7,18.5-37.2,38.1
		C301,233.1,361.1,230.4,354,180.5L354,180.5z"/>
	<path class="st10" d="M235.8,180.5c6.4,39.5-32.3,50.1-52,32.6c-9-8-13.8-23.7-6.4-38c4.5-8.8,19.5-21.5,34.2-15.8
		c0.6-8.2,3.4-11.2,6.7-15.5c-12.2-7.2-42.9,0.1-55,22.2c-25,45.9,28.4,91.5,68.9,63.8c23.9-16.3,24.6-48.3,17.5-57.5
		C245.7,176.8,243.6,178.3,235.8,180.5L235.8,180.5z"/>
	<path class="st10" d="M354,180.5c7.1,49.9-53,52.6-61.3,16.4c-4.5-19.7,9.7-41.1,37.2-38.1c0.6-9,3.7-10.2,6.6-15
		c-9.2-5-26-1.3-34.3,2.8c-24.3,11.9-34.5,41.5-20.5,67.2c12.5,23,43.6,32.5,69.1,15.9c7.4-4.9,13.8-12.4,17.9-22.6
		c5.7-14.5,2.6-21.4,0.1-35c-3.6,2.2-3.5,3.5-6.2,5.3C360.2,178.8,357,179.7,354,180.5L354,180.5z"/>
</g>
</svg>
