<?xml version="1.0" encoding="utf-8"?>
<!-- Generator: Adobe Illustrator 21.1.0, SVG Export Plug-In . SVG Version: 6.00 Build 0)  -->
<svg version="1.1" id="Слой_1" xmlns="http://www.w3.org/2000/svg" xmlns:xlink="http://www.w3.org/1999/xlink" x="0px" y="0px"
	 viewBox="0 0 612 612" style="enable-background:new 0 0 612 612;" xml:space="preserve">
<style type="text/css">
	.st0{fill:#FFFFFF;}
</style>
<g>
	<path class="st0" d="M0.4,548c0-161.2,0-322.3,0-483.5c0.4-2,0.8-4,1.1-6.1C6,31.3,27.9,8.1,54.7,2.2c3.8-0.8,7.6-1.3,11.4-1.9
		c137.7,0,275.4,0,413.1,0c0.3,0.1,0.5,0.3,0.8,0.3c5.1,0.4,10,1.8,14.6,4c8.6,4.1,16.1,9.8,23.3,15.9
		c20.5,17.3,39.4,36.4,57.9,55.9c9,9.5,17.7,19.2,25.3,29.9c7.3,10.2,11.3,21.3,11.3,34.1c-0.1,133.7-0.1,267.4-0.1,401
		c0,7.4-1,14.6-3.3,21.6c-9.8,29.9-36.6,49.2-68,49.2c-156.3,0-312.6,0-468.9,0c-10.9,0-21.4-2-31.2-6.8
		C19.3,594.7,6.2,577.6,1.5,554C1.1,552,0.8,550,0.4,548z M306.3,588.6c70.4,0,140.7,0,211.1,0c1.6,0,3.3,0,4.9-0.3
		c11.7-2.3,19.3-11.7,19.3-24c0-77.9,0-155.8,0-233.7c0-1.6,0-3.2-0.3-4.8c-2.2-11.9-11.7-19.6-24-19.6c-140.7,0-281.4,0-422,0
		c-14.2,0-24.4,10.1-24.4,24.3c0,78,0,155.9,0,233.9c0,1.5,0,3.1,0.3,4.6c2.1,11.8,11.7,19.7,23.7,19.7
		C165.5,588.6,235.9,588.6,306.3,588.6z M294.7,23.8c-47.7,0-95.4,0-143.1,0c-3.3,0-6.6-0.1-9.9,0c-13.7,0.3-23.6,10.4-23.6,24.1
		c0,54.5,0,109,0,163.5c0,1.5,0,2.9,0.3,4.4c2.2,11.9,11.7,19.8,23.8,19.8c101.6,0,203.2,0,304.9,0c0.7,0,1.4,0,2.1,0
		c11-0.6,20.4-9.5,21.7-20.3c0.2-1.4,0.3-2.8,0.3-4.2c0-54.2,0-108.4,0-162.6c0-4.6-0.9-9-3.3-13c-5-8.2-12.4-11.7-21.9-11.7
		C395.5,23.8,345.1,23.8,294.7,23.8z"/>
	<path class="st0" d="M353.5,212c0-54.9,0-109.7,0-164.6c23.5,0,47,0,70.5,0c0,54.9,0,109.6,0,164.6C400.5,212,377.1,212,353.5,212z
		"/>
</g>
</svg>
