<?xml version="1.0" encoding="utf-8"?>
<!-- Generator: Adobe Illustrator 21.1.0, SVG Export Plug-In . SVG Version: 6.00 Build 0)  -->
<svg version="1.1" id="Слой_1" xmlns="http://www.w3.org/2000/svg" xmlns:xlink="http://www.w3.org/1999/xlink" x="0px" y="0px"
	 viewBox="0 0 543.5 394.5" style="enable-background:new 0 0 543.5 394.5;" xml:space="preserve">
<style type="text/css">
	.st0{fill:#8E479B;}
	.st1{fill:#873E96;}
	.st2{fill:#683270;}
	.st3{fill:#C3D62D;}
	.st4{fill:#F69522;}
	.st5{fill:#4C2153;}
	.st6{fill:#FEFEFE;}
	.st7{fill:#45224D;}
	.st8{fill:#ED6278;}
	.st9{fill:#E0EEF2;}
	.st10{fill:#8B3C98;}
	.st11{fill:#35083E;}
	.st12{fill:#F8A61A;}
	.st13{fill:#F8A301;}
	.st14{fill:#F89F00;}
	.st15{fill:#2A0135;}
	.st16{fill:#34023E;}
	.st17{fill:#34013E;}
	.st18{fill:#050708;}
	.st19{font-family:'Humanist521BT-Light';}
	.st20{font-size:109.145px;}
</style>
<g>
	<path class="st0" d="M354.6,158.4c-0.4,0.1-0.3,0.5-0.3,0.8c-0.3,4.4-0.8,8.7-1.4,13c-0.8,5.9-1.8,11.7-2.9,17.5
		c-1.6,8.1-3.5,16.1-5.7,24c-1.9,7.1-4.1,14.1-6.3,21.1c-2.8,8.7-5.9,17.2-8.7,25.9c-0.4,1.3-0.8,2.7-1,4.1c-0.1,1.2-0.9,2-1.8,2.6
		c-0.2,0.2-0.7,0.2-0.6,0.7c-0.4,0-0.4-0.4-0.6-0.6c-1.2-2.4-3.3-3.5-6.4-3.1c-2.6,0.3-4.8,1.4-6.7,3.2c-0.7,0.7-1.3,1.5-1.3,2.5
		c-1.5,0-3,0-4.5-0.1c-0.5,0-0.9,0-0.8,0.7c-0.4,0-0.4-0.4-0.4-0.7c0-1.5-0.5-2.9-1.1-4.2c-1.3-3.1-3.4-3.9-6.3-3.7
		c-2.7,0.1-5.1,1.4-7.1,3.2c-0.7,0.7-1.2,1.6-1.2,2.6c-1.9-0.4-3.8-1-5.6-1.7c-2.3-0.8-3.5-2.4-3.7-4.9c-0.1-2.4-0.1-4.7-0.1-7
		c0-5.3,0-10.6-2.1-15.6c-2.1-5-5.9-8.2-11-10c-8-2.8-15.7-1.5-23,2.3c-7.1,3.7-13,9-18.4,14.9c-4.3,4.7-8.1,9.6-11.6,14.9
		c-0.3,0.4-0.6,0.6-1.2,0.6c-0.9,0-1.9,0-2.8,0c-1.7-3.8-4.9-5.2-8.7-5.7c-2.6-0.3-4.8,0.8-5.9,3.3c-0.1,0.3-0.3,0.8-0.7,0.9
		c-1.2-0.2-2.4-0.4-3.5-0.6c0.5-0.8,0.5-1.3-0.4-2.2c-2-2.1-4.3-3.4-7.2-3.7c-1.8-0.2-3.5,0-5,1.3c-0.2,0.2-0.4,0.4-0.7,0.3
		c-1.3-0.7-2.1-1.8-2.4-3.3c-0.8-3.3-1.2-6.7-1.6-10c-1-8.3-1.7-16.7-2.4-25c-0.3-4.6-0.6-9.2-0.9-13.7c-0.5-8.9-1-17.9-1.3-26.8
		c-0.2-5.6-0.4-11.3-0.4-16.9c0-0.2,0.1-0.5-0.2-0.7c-0.1-0.3-0.1-0.6-0.1-0.9c0-5.9,0-11.9,0-17.8c0-4.3,0.2-8.6,0.2-12.9
		c0-0.5,0-1-0.1-1.6c0.5,0.1,0.5-0.2,0.5-0.6c0-3,0.2-6.1,0.4-9.2c0.5-7.3,1.1-14.7,2.4-22c0.7-4.4,1.5-8.8,3.2-12.9
		c3.6-9,8.6-17.3,14.5-24.9c1-1.3,2.1-2.6,3.2-3.9c0.4-1.1,1.3-1.7,2.1-2.5c4.6-4.8,9.6-9.3,15.1-12.9c0.3-0.2,0.5-0.4,0.9-0.4
		c3.4-2.1,6.8-3.9,10.5-5.4c4.9-2,9.9-3,15.2-3.2c4-0.1,7.9-0.3,11.9-0.5c0.4,0,0.6,0,0.7-0.5c1.1-4.9,2.3-9.8,2.2-14.9
		c0-0.6-0.1-1.2-0.2-1.9c1.2,0.7,2.2,1.3,3.2,2c3.7,2.4,7.5,4.8,10.7,7.9c1.2,1.1,1.1,1.1,2.7,0.4c3.1-1.4,6.2-2.6,9.6-3
		c1-0.1,1.9-0.1,2.9,0c0.6,0,0.8,0.2,0.4,0.9c-1.9,2.9-3.6,5.9-5.2,9c-0.1,0.2-0.2,0.5-0.4,0.9c11.5,1.2,22.6,3.4,32.9,8.7
		c1.5,0.3,2.6,1.2,3.8,1.9c5.7,3.4,10.5,7.8,14.7,13c0.2,0.2,0.4,0.4,0.4,0.7c1.9,2.6,3.8,5.2,5.5,8c3.8,6.4,6.8,13.1,9.4,20.1
		c3.7,9.9,6.5,20,9.2,30.2c1.2,4.8,2.1,9.6,2.6,14.5c0,0.3,0,0.7,0.4,0.9c0.3,2.2,0.5,4.3,0.7,6.5c0.5,6,0.4,12,0.3,18.1
		C355,152.8,354.8,155.6,354.6,158.4z"/>
	<path class="st1" d="M381.9,233c-0.1-0.4-0.3-0.6-0.8-0.6c-1.5,0-3,0-4.5-0.1c-0.3,0-0.7-0.1-0.8,0.3c-0.6-0.2-1.2-0.3-1.8-0.4
		c-2.4-0.3-4.6-1-6.8-1.9c-0.1-0.3-0.5-0.5-0.8-0.7c-4.4-2.4-6.6-6.3-6.9-11.3c-0.3-4.7,0.9-9,2.3-13.4c1.3-4.2,2-8.5,2.3-12.8
		c0-0.2,0.1-0.4,0.1-0.6c0.3,0.7,0.8,1,1.5,1.2c1,0.3,2,0.6,2.9,1.1c0.8,0.4,1.4,0.1,1.9-0.6c1.4-1.9,2.8-3.7,4.3-5.6
		c1-1.4,2.1-2.7,3.1-4.1c0.8-1.1,1.1-1.1,2.3-0.4c2.5,1.5,5.1,3,7.7,4.5c0.9,0.5,0.9,0.5,1.5-0.4c1.5-2.6,2.9-5.2,4.4-7.8
		c0.5-0.8,0.9-0.9,1.5-0.2c1.5,1.8,3.1,3.5,4.7,5.2c0.4,0.5,0.7,0.6,1.2,0.1c0.8-0.9,1.7-1.7,2.6-2.6c1.1-1.1,1.4-1.1,2.4,0
		c0.1,0.1,0.2,0.3,0.4,0.4c0.9,3.6,1.5,7.2,2,10.9c0.6,4.3,0.9,8.7,0.7,13c-0.2,5.6-1.1,11-4,16c-0.9,1.6-2.1,2.9-3.3,4.3
		c-0.6,0.9-1.6,1.5-2.4,2.1c-1.1,0.7-2.3,1.3-3.5,1.7c-0.4,0.1-0.8,0.3-1.2,0.7c-0.2-0.3-0.4-0.4-0.7-0.3c-0.9,0.3-1.8,0.4-2.7,0.5
		c-0.6,0-1,0.2-0.9,1c0,0.2,0,0.5-0.1,0.8c-0.4-0.4-0.2-1-0.3-1.4c-1.2,0.4-2.5,0.4-3.9,0.5c-1,0.1-2.1,0.3-3.1,0.2
		C382.5,232.5,382.2,232.8,381.9,233z"/>
	<path class="st1" d="M159.2,191.5c0.2,1.9,0.4,3.8,0.7,5.6c0.4,3.1,1.2,6.2,2.2,9.3c1.4,4.4,2.4,8.9,1.6,13.5
		c-0.6,4.2-2.7,7.3-6.4,9.5c-0.4,0.2-0.9,0.4-1.1,0.9c-2.5,1-5,1.7-7.7,2c-0.3,0-0.6,0.2-0.9,0.3c-0.1-0.4-0.5-0.4-0.8-0.3
		c-1.5,0.2-3,0.1-4.5,0.1c-0.5,0-0.7,0.2-0.8,0.6c-0.4-0.4-1-0.5-1.6-0.5c-2.2-0.1-4.3-0.3-6.5-0.6c-0.1,0.4,0.1,1-0.3,1.4
		c-0.3-0.5,0.2-1.3-0.4-1.7c-0.5-0.2-1.1-0.2-1.7-0.3c-0.5-0.1-1.1-0.2-1.6-0.4c-0.4-0.1-0.6,0-0.7,0.3c-0.7-0.6-1.6-0.8-2.4-1.2
		c-1.6-0.7-3.1-1.7-4.4-2.8c-0.1-0.1-0.2-0.2-0.3-0.4c-1.3-1.5-2.6-3.1-3.6-4.8c-2-3.7-2.9-7.6-3.3-11.7c-1-8.6,0-16.9,1.8-25.2
		c0.2-0.9,0.4-1.8,0.6-2.6c1.6-1.6,1.6-1.6,3.2,0c0.7,0.7,1.5,1.4,2.2,2.2c0.4,0.5,0.8,0.4,1.2-0.1c1.5-1.8,3.1-3.5,4.7-5.2
		c0.6-0.7,1-0.7,1.5,0.2c1.5,2.6,2.9,5.3,4.4,7.9c0.5,0.8,0.5,0.9,1.4,0.4c2.5-1.5,5.1-2.9,7.6-4.4c1.4-0.8,1.6-0.8,2.5,0.5
		c2.4,3.1,4.8,6.3,7.2,9.5c0.8,1,0.8,1.1,2.1,0.6c0.9-0.3,1.9-0.7,2.8-1C158.4,192.5,158.9,192.2,159.2,191.5z"/>
	<path class="st1" d="M168.7,125.2c0.2,0.2,0.5,0.2,0.4,0.7c-0.1,0.4,0,0.9,0,1.3c-0.3,10-0.1,20.1-0.2,30.2c0,0.3,0,0.7-0.2,1
		c-0.6,0.3-1.1,0.7-1.7,1.1c0,0-0.1-0.1-0.1-0.1c-0.2-0.4,0-1-0.3-1.2c-0.4-0.1-0.8,0.3-1.3,0.4c-2.9,1.3-5.8,2.5-8.7,3.7
		c-1.3,0.5-1.4,0.5-2-0.8c-1.8-4-3.8-7.8-5.7-11.7c-0.5-1-0.5-1-1.4-0.2c-2.7,2.7-5.4,5.3-8,8.2c-0.2,0.2-0.4,0.4-0.6,0.6
		c-0.7,0.6-0.9,0.5-1.4-0.2c-0.7-1.4-1.4-2.7-2.2-4.2c-1.6-3-3.2-6.1-4.7-9.2c2.2-4.3,4.6-8.4,7.7-12c5.8-6.8,13.4-9.5,22.2-9
		C163.4,124,166.1,124.4,168.7,125.2z"/>
	<path class="st1" d="M354.6,158.4c-0.4-0.9-0.2-1.9-0.1-2.8c0.2-1.7,0.2-3.3,0.3-5c0.1-4.1,0.2-8.2,0-12.3
		c-0.1-3.7-0.3-7.4-0.9-11.1c-0.1-0.5-0.1-1.1,0.1-1.7c4.1-1.3,8.2-1.8,12.4-1.5c9,0.5,15.8,4.8,20.8,12c2,2.9,3.8,5.9,5.3,9
		c-2.2,4.5-4.6,8.8-6.8,13.2c-0.5,0.9-0.8,1-1.5,0.2c-2.7-2.8-5.4-5.6-8.2-8.4c-0.1-0.1-0.3-0.3-0.4-0.4c-0.4-0.5-0.7-0.5-1,0.1
		c-1.9,3.9-4,7.7-5.7,11.7c-0.1,0.1-0.1,0.3-0.2,0.5c-0.5,0.9-0.6,1-1.6,0.6c-3.1-1.3-6.2-2.6-9.3-4c-1-0.4-1-0.4-1.2,0.6
		c0,0.1,0,0.3-0.2,0.4C355.7,159.1,355.2,158.7,354.6,158.4z"/>
	<path class="st2" d="M159.2,191.5c0.1,0.7-0.2,1-0.8,1.2c-1.4,0.5-2.8,1-4.2,1.6c-0.4,0.2-0.6,0.1-0.9-0.2
		c-2.6-3.5-5.3-6.9-7.9-10.4c-0.5-0.7-1-0.9-1.8-0.4c-2.7,1.6-5.4,3.2-8.1,4.8c-0.5,0.3-0.9,0.4-1.3-0.3c-1.5-2.8-3.1-5.6-4.7-8.4
		c-0.3-0.5-0.5-0.6-0.9-0.1c-1.6,1.9-3.3,3.7-4.9,5.6c-0.4,0.5-0.7,0.6-1.2,0c-0.9-1-2-2-2.9-3c-0.6-0.7-1-0.5-1.6,0
		c-0.2,0.2-0.3,0.7-0.8,0.5c0.7-3.5,1.7-7.1,2.8-10.5c0.5-0.1,0.7,0.3,0.9,0.6c0.6,0.8,1.2,1.7,1.8,2.5c0.5,0.7,0.6,0.7,1,0
		c0.7-1.4,1.4-2.7,2.1-4.1c0.7-1.5,1.6-2.9,2.3-4.5c0.1-0.3,0.3-0.7,0.7-0.7c0.4,0,0.5,0.4,0.7,0.7c2.1,4,4.1,7.9,6.2,11.9
		c1.3,2.5,1,2.1,2.6,0.4c2.5-2.5,5-5,7.4-7.6c0.1-0.2,0.3-0.3,0.5-0.5c0.4-0.4,0.8-0.5,1.2,0.1c0.8,1.7,1.8,3.4,2.5,5.2
		c1.2,2.5,2.5,5,3.7,7.5c0.2,0.5,0.5,0.5,1,0.3c1.2-0.5,2.4-1,3.5-1.5c0.9-0.4,1-0.3,1,0.7c0,0.3,0.1,0.6,0,0.9
		C159.1,186.4,159.1,189,159.2,191.5z"/>
	<path class="st2" d="M406.3,182.4c-0.6,0.1-0.7-0.4-1-0.6c-0.5-0.4-0.9-0.4-1.4,0.1c-1,1.1-2.1,2-3,3.1c-0.5,0.5-0.8,0.5-1.2,0
		c-1.6-1.9-3.3-3.8-4.9-5.6c-0.4-0.5-0.7-0.3-0.9,0.1c-1.5,2.8-3.1,5.6-4.7,8.4c-0.3,0.6-0.6,0.7-1.2,0.3c-2.7-1.6-5.3-3.2-8-4.8
		c-1.2-0.7-1.2-0.7-2,0.4c-2.6,3.4-5.3,6.9-7.9,10.3c-0.3,0.4-0.5,0.4-0.9,0.2c-1.4-0.5-2.8-1.1-4.2-1.6c-0.6-0.2-0.9-0.5-0.8-1.2
		c0-2.5,0.1-5.1,0.2-7.6c-0.2-2.1-0.2-2.1,1.6-1.3c0.9,0.4,1.9,0.7,2.7,1.2c0.6,0.3,0.9,0.1,1.2-0.4c1.7-3.3,3.3-6.7,4.9-10.1
		c0.4-0.8,0.8-1.7,1.3-2.5c0.3-0.6,0.7-0.6,1.2-0.2c1,0.9,1.9,2,2.8,2.9c2,2.1,4.1,4.1,6.1,6.1c0.6,0.6,0.7,0.6,1.1-0.1
		c1.3-2.2,2.3-4.5,3.5-6.7c1.1-2,2.1-4,3.1-6.1c0.2-0.4,0.3-0.9,0.8-0.9c0.6,0,0.7,0.6,0.9,1c1.3,2.6,2.7,5.2,4,7.8
		c0.1,0.2,0.2,0.4,0.3,0.6c0.2,0.5,0.5,0.5,0.8,0c0.6-0.9,1.3-1.8,2-2.6c0.2-0.3,0.4-0.7,0.9-0.6
		C404.7,175.3,405.6,178.8,406.3,182.4z"/>
	<path class="st1" d="M159,183.9c-0.1-1.7-0.1-1.7-1.7-1.1c-0.9,0.4-1.9,0.7-2.8,1.2c-0.6,0.3-0.9,0.2-1.2-0.4
		c-2-4.2-4.1-8.3-6.1-12.5c-0.1-0.3-0.3-0.5-0.5-1c-0.8,0.9-1.6,1.7-2.4,2.5c-2.3,2.6-4.8,4.9-7.2,7.4c-0.5,0.5-0.7,0.4-1-0.1
		c-2.3-4.5-4.6-8.9-7-13.4c-0.1-0.2-0.2-0.7-0.5-0.7c-0.4,0-0.4,0.4-0.5,0.7c-1.5,2.9-2.9,5.8-4.4,8.7c-0.5,1-0.5,1-1.2,0.1
		c-0.9-1.1-1.6-2.4-2.7-3.4c1-3.4,2.1-6.7,3.4-9.9c0.3,0.1,0.6,0.4,0.7,0.7c0.4,0.6,0.9,0.6,1.3,0c1.2-1.4,2.4-2.7,3.7-4.1
		c0.3-0.4,0.7-0.8,1.1-1.2c0.6-0.6,0.8-0.6,1.2,0.1c1.4,2.4,2.7,4.8,4.1,7.2c0.9,1.8,0.9,1.8,2.5,0.8c2.4-1.4,4.8-2.8,7.2-4.2
		c1-0.6,1.3-0.5,2,0.4c2.5,3.3,5,6.6,7.6,9.9c0.5,0.6,0.9,0.8,1.7,0.5c1.1-0.5,2.3-0.9,3.4-1.3c0.3-0.1,0.5-0.3,0.9-0.1
		c-0.9,4.2-1.6,8.3-1.6,12.6C159.1,183.4,159.2,183.6,159,183.9z"/>
	<path class="st1" d="M403.5,171.9c-1.2,1-1.9,2.4-2.8,3.5c-0.6,0.8-0.6,0.8-1.1,0c-1.5-3-3-6-4.6-9c-0.1-0.2-0.1-0.5-0.3-0.5
		c-0.3,0-0.3,0.3-0.4,0.5c-2.1,4-4.1,7.9-6.1,11.9c-0.2,0.5-0.5,0.9-0.8,1.4c-0.6,1-0.6,1-1.5,0.1c-2-2-4.1-4-6-6
		c-1.1-1.1-2.1-2.3-3.3-3.4c-1,2-1.9,3.8-2.8,5.7c-1.3,2.6-2.6,5.3-3.9,8c-0.2,0.4-0.4,0.4-0.8,0.2c-1.3-0.6-2.6-1.1-3.9-1.7
		c-0.7-0.3-0.9-0.2-0.8,0.5c0,0.3,0,0.5,0,0.8c-0.2-1.7-0.1-3.4-0.3-5.1c-0.3-2.8-0.7-5.5-1.4-8.2c1,0,1.8,0.5,2.6,0.8
		c0.6,0.2,1.2,0.4,1.8,0.6c0.7,0.3,1.1,0,1.6-0.5c2.5-3.3,5-6.6,7.5-9.8c0.8-1.1,1-1.1,2.3-0.4c2.5,1.5,5.2,2.9,7.7,4.6
		c0.7,0.4,1,0.2,1.4-0.4c1.3-2.5,2.7-4.9,4.1-7.4c0.9-1.6,0.9-1.6,2.2-0.2c1.3,1.5,2.6,2.9,3.9,4.4c1.1,1.3,1.3,1.1,2,0.1
		c0.1-0.2,0.3-0.3,0.5-0.4C401.4,165.2,402.5,168.5,403.5,171.9z"/>
	<path class="st2" d="M160.7,170.6c-1.6,0.6-3.2,1.2-4.8,1.9c-0.5,0.2-0.8,0-1-0.3c-2.3-3-4.6-6-6.9-9c-0.1-0.2-0.3-0.4-0.5-0.6
		c-1.3-1.5-1.3-1.5-3-0.5c-2.4,1.4-4.9,2.8-7.3,4.3c-0.6,0.3-0.9,0.3-1.3-0.3c-1.6-2.9-3.2-5.8-4.8-8.6c0-0.1-0.1-0.2-0.2-0.4
		c-1.6,1.8-3.2,3.4-4.7,5.2c-1.4,1.7-1.7,1.7-2.8-0.2c1.3-3.7,2.8-7.3,4.5-10.9c0.9-2.1,1.9-4.1,3-6.1c0.4,0,0.5,0.4,0.6,0.7
		c2.2,4.2,4.3,8.3,6.4,12.5c0.3,0.6,0.5,0.7,1,0.1c2.9-3.1,5.9-6.1,8.9-9.1c0.2-0.2,0.4-0.4,0.7-0.7c0.8,1.6,1.6,3.1,2.4,4.7
		c1.4,2.9,2.8,5.8,4.2,8.7c0.3,0.6,0.5,0.8,1.2,0.5c3.1-1.4,6.3-2.7,9.4-4.1c1.4-0.6,1.5-0.5,1.5,1c0,0.1,0,0.2,0,0.3
		c-3.2,2.6-4.8,6.1-6,9.9C161,169.7,160.8,170.2,160.7,170.6z"/>
	<path class="st2" d="M400.1,161.9c-1.2,1.9-1.5,1.9-2.8,0.2c-1.5-1.8-3-3.4-4.7-5.2c-1,1.5-1.8,3.1-2.6,4.6c-0.9,1.5-1.8,3-2.5,4.6
		c-0.3,0.5-0.5,0.5-1,0.2c-2.7-1.6-5.4-3.2-8.1-4.8c-1.2-0.7-1.2-0.7-2,0.3c-2.6,3.4-5.1,6.8-7.7,10.1c-0.3,0.3-0.5,0.6-1.1,0.4
		c-1.6-0.7-3.2-1.3-4.8-1.9c-0.7-2-1.3-4.1-2.3-6c-1-2-2.4-3.7-4.1-5.1c0-1.9,0-1.9,1.7-1.1c3.1,1.4,6.2,2.6,9.4,4.1
		c0.7,0.3,0.8-0.1,1-0.5c2.1-4.2,4.1-8.3,6.1-12.4c0.1-0.3,0.3-0.5,0.5-0.9c1.8,1.8,3.6,3.6,5.3,5.3c1.4,1.5,2.9,2.9,4.3,4.5
		c0.5,0.5,0.7,0.5,1-0.1c2.1-4.2,4.3-8.3,6.4-12.5c0.1-0.3,0.2-0.7,0.6-0.7c2.1,3.7,3.8,7.6,5.4,11.6
		C398.8,158.3,399.6,160,400.1,161.9z"/>
	<path class="st3" d="M327,51.7c-1.9-2.2-3.7-4.3-5.8-6.2c-3.8-3.6-7.9-6.6-12.5-9c-0.2-0.1-0.4-0.2-0.6-0.4c2.1-0.5,4.2-1,6.3-1.5
		c2.5-0.6,4.8-1.6,7.2-2.4c1,0.3,1.7,1.2,2.4,1.9c3.1,2.6,6.2,5.3,9.3,8c1,0.8,2,1.6,2.9,2.5c0.2,0.2,0.5,0.3,0.4,0.6
		C334,48.3,330.7,50.3,327,51.7z"/>
	<path class="st3" d="M211.1,35.9c-3,2.1-5.9,4.1-8.7,6.5c-3.1,2.7-6,5.5-8.8,8.6c-0.2,0.2-0.4,0.4-0.6,0.6
		c-3.2-1.3-6.2-3.1-8.6-5.6c-0.2-0.2-0.4-0.5-0.7-0.8c-0.1-0.4,0.2-0.5,0.5-0.7c4.2-3.7,8.4-7.3,12.6-10.9c0.6-0.5,1.1-1.2,1.9-1.5
		C202.7,33.8,206.9,34.9,211.1,35.9z"/>
	<path class="st4" d="M336.6,45.2c-2.7-2.4-5.4-4.7-8.1-7c-2.2-1.9-4.3-3.7-6.5-5.6c-0.1-0.1-0.3-0.3-0.4-0.5
		c4.1-1.9,7.9-4.1,11.4-7c0.3-0.1,0.6,0.1,0.8,0.3c2.7,1.9,5.4,3.7,8.2,5.5c0.3,0.2,0.6,0.4,0.7,0.7c-0.7,5-2.6,9.5-5.9,13.3
		C336.8,45.1,336.7,45.2,336.6,45.2z"/>
	<path class="st4" d="M198.7,32.1c-1.6,1.4-3.1,2.8-4.7,4.2c-2.1,1.8-4.3,3.6-6.4,5.5c-1.3,1.1-2.6,2.3-3.9,3.4
		c-2.4-2.5-3.9-5.5-5-8.8c-0.5-1.5-1-3.1-1.1-4.7c0.1-0.4,0.4-0.6,0.7-0.8c2.7-1.8,5.3-3.6,8-5.4c0.3-0.2,0.6-0.5,1-0.4
		c2.4,2,5,3.8,7.8,5.2C196.3,31,197.5,31.5,198.7,32.1z"/>
	<path class="st5" d="M177.9,254.8c2.9-3.1,8.2-2,11.4,0.4c1,0.7,1.9,1.5,2.4,2.6c0.3,0.7,0.3,1.1-0.5,1.3c-0.9,0.1-1.4,0.7-2,1.3
		c-2.8,2.8-5,6-7.2,9.3c-1.1,1.6-2.1,3.2-3.1,4.8c-0.3,0.5-0.6,0.5-1,0.1c-0.7-0.7-1.1-1.6-1.4-2.5c-1.5-5-1.7-10,0-14.9
		C176.9,256.4,177.5,255.6,177.9,254.8z"/>
	<path class="st5" d="M310.9,270c-0.5-0.8,0-1.4,0.4-2c2.2-2.5,4.9-4,8.2-4.2c3-0.2,5.2,1.2,6.3,4.1c1.2,2.8,1.4,5.9,1.3,8.9
		c-0.1,2.3-0.4,4.6-1.3,6.8c-0.2,0.7-0.6,1.4-1.1,2c-0.4,0.5-0.7,0.5-1.1-0.1c-2.2-3.6-4.5-7.1-7.1-10.3c-1-1.4-2.1-2.7-3.4-3.9
		C312.6,270.6,311.9,270.1,310.9,270z"/>
	<path class="st5" d="M194.7,259.8c0.4-0.8,0.7-1.6,1.3-2.4c1.5-1.9,3.5-2.4,5.7-2.1c2.9,0.3,5.4,1.6,7.4,3.8
		c0.5,0.6,1.1,1.2,0.9,2.2c-3.6,1.3-5.2,4.5-7.3,7.2c-2.1,2.6-3.8,5.5-5.6,8.3c-0.5,0.8-0.6,0.8-1.2,0c-1.1-1.4-1.5-3.1-1.8-4.8
		C193.4,267.8,193.4,263.8,194.7,259.8z"/>
	<path class="st5" d="M289.6,267.8c-0.3-0.5-0.2-1.1,0.1-1.6c1.8-2.4,4.2-3.8,7.1-4.4c1.3-0.2,2.5-0.2,3.7,0.1
		c2.1,0.5,3.3,2,4.1,3.9c0.6,1.5,0.9,3.1,1.1,4.8c0.3,3.8,0.1,7.5-1.3,11.1c0,0.1-0.1,0.2-0.1,0.3c-0.3,0.6-0.7,1.6-1.4,1.6
		c-0.5,0-0.7-0.9-1.1-1.4c-2.7-4.1-5.3-8.3-8.6-12C292.2,269.1,291.2,268,289.6,267.8z"/>
	<path class="st3" d="M342.7,31.7c-3.2-2.2-6.5-4.4-9.7-6.6c2.3-2.2,4.4-4.5,5.9-7.2c1.1-2,2-4,2.7-6.4c0.5,1.1,0.6,2.1,0.8,3.1
		c0.7,3.8,1.1,7.7,0.9,11.6C343.3,28.1,343.1,29.9,342.7,31.7z"/>
	<path class="st3" d="M187.4,25.1c-3.2,2.2-6.5,4.4-9.7,6.6c-0.9-4.6-0.7-9.2-0.1-13.8c0.2-2,0.6-3.9,1.1-5.8c0-0.1,0.1-0.3,0.2-0.6
		c0.3,0.9,0.5,1.6,0.8,2.3c1.6,4.3,4.2,7.9,7.5,11C187.2,24.9,187.2,25,187.4,25.1z"/>
	<path class="st5" d="M394.7,231c0-0.3,0.1-0.5,0.4-0.6c2.5-0.7,4.7-2.2,6.7-3.9c0.6,0.7,0.9,1.6,0.9,2.5c0.2,3.9-0.9,7.3-3,10.5
		c-0.1,0.1-0.2,0.3-0.3,0.4c-0.4,0.4-0.8,1-1.3,0.9c-0.5-0.1-0.4-0.9-0.5-1.3C396.6,236.7,395.8,233.8,394.7,231z"/>
	<path class="st5" d="M121.5,226.5c2.1,1.6,4.2,3.1,6.7,3.9c0.3,0.1,0.4,0.3,0.4,0.6c-1.1,3-2.2,6.1-3,9.2c-0.2,0.8-0.5,0.7-1,0.3
		c-0.7-0.5-1.2-1.2-1.6-2c-1.7-2.9-2.7-6-2.5-9.4C120.6,228.3,120.9,227.3,121.5,226.5z"/>
	<path class="st5" d="M133.1,233.1c0,0,0-0.1,0-0.2c0-1.6,0-1.5,1.6-1.3c1.9,0.3,3.9,0.5,5.8,0.5c0.6,0,0.9,0.1,0.8,0.8
		c-0.6,3.2-1,6.5-1.3,9.8c0,0.9-0.4,0.9-1,0.5c-1.1-0.6-2-1.6-2.7-2.6C134.7,238.4,133.5,236,133.1,233.1z"/>
	<path class="st5" d="M381.9,233c0-0.3,0-0.8,0.5-0.8c2.3,0,4.5-0.3,6.7-0.6c0.8-0.1,1.2,0.1,1,1c0,0.2,0,0.4,0,0.5
		c-0.6,3.9-2.4,7.1-5.3,9.7l0,0c-0.4,0.3-0.9,0.8-1.4,0.6c-0.4-0.2-0.2-0.8-0.3-1.3C382.9,239.1,382.5,236,381.9,233z"/>
	<path class="st5" d="M367.2,230.3c0.1-0.3,0.3-0.2,0.5-0.1c2.4,1,4.8,1.6,7.4,1.8c0.3,0,0.7,0.1,0.8,0.5c-0.7,3.5-2.4,6.6-5.1,9.1
		c-0.2,0.2-0.4,0.3-0.7,0.5c-1,0.6-1.1,0.5-1.2-0.6C368.4,237.7,368.1,234,367.2,230.3z"/>
	<path class="st5" d="M147.6,232.6c0.1-0.5,0.5-0.5,0.9-0.5c2.5-0.2,4.9-0.8,7.2-1.8c0.2-0.1,0.4-0.4,0.6,0.1
		c-1,3.7-1.3,7.5-1.7,11.3c-0.1,0.9-0.2,1-1.1,0.5c-0.9-0.5-1.7-1.3-2.3-2.2C149.4,237.8,148.1,235.4,147.6,232.6z"/>
	<path class="st6" d="M229.2,83.8c0-5.1,1.4-9.9,3.9-14.3c5.4-9.6,13.6-15.5,24.5-17c18.8-2.6,34.6,10.6,37.2,27.5
		c0.2,1.6,0.4,3.2,0.3,4.8c-0.2,1.1-0.1,2.2-0.3,3.3c-1.3,5.8-3.8,11-7.8,15.4c-5.1,5.6-11.3,9.3-18.8,10.6
		c-10.3,1.8-19.5-0.6-27.5-7.3c-5.6-4.7-9.2-10.7-10.9-17.9C229.4,87.2,229.1,85.5,229.2,83.8z"/>
	<path class="st7" d="M215.6,154.1c-1.5-0.4-2.7-1.4-4-2.2c-4.9-3.1-9.3-6.7-12.6-11.6c-2.2-3.2-3.8-6.7-3.7-10.7
		c0-4.3,2.1-7.2,5.6-9.4c4.2-2.4,8.6-2.3,13-1c1.3,0.3,2.5,0.8,3.8,1.2c0.7,0.2,1.3,0.4,1.3,1.3c0.4,0.4,0.4,1,0.5,1.5
		c0.7,4.2,1.6,8.3,2.9,12.3c1,2.8,2.1,5.6,3.9,8c0.8,1.1,2,1.6,3.1,2.2c0.3,0.3,0.8,0.3,1.2,0c2.5-1,3.6-3.1,4.3-5.5
		c0.8-2.7,1.3-5.5,1.4-8.3c0-0.3,0-0.7,0.3-0.9c0.1,0,0.2,0.1,0.1,0.2c0.1,0,0.1,0,0.1-0.1c-0.2-0.5-0.1-1.1-0.2-1.6
		c0-0.2,0-0.4,0.2-0.5c0,0,0.1,0,0.1,0c0.3-0.4,0-0.9,0.2-1.3c4.2,1.2,8.4,2.1,12.7,2.7c2.2,0.3,4.3,0.5,6.5,0.6
		c3.4,0.2,6.8,0.2,10.2,0.1c4.8-0.1,9.6-0.6,14.4-1.6c0.3,0,0.6,0,0.9-0.1c0.5,0.4,0.5,1.1,0.6,1.6c0.7,3.3,1.7,6.5,3.1,9.6
		c1.1,2.3,2.5,4.2,5,5.1c0.4,0.3,0.8,0.4,1.2,0c2.5-0.9,3.6-3.1,4.4-5.4c1.1-3,1.6-6.2,2-9.4c0.2-1.9,0.4-3.8,0.4-5.7
		c0-0.6,0-1.2,0.4-1.7c0.5-0.6,1.3-0.7,1.9-1.1c2.3-1.1,4.7-2.3,7.2-2.6c4.6-0.5,8.8,0.2,11.8,4.3c1.2,1.7,1.8,3.6,2,5.7
		c0.3,4.2-0.9,8.1-3,11.7c-3.6,6.1-8.8,10.5-14.9,14c-0.1,0.1-0.3,0.1-0.4,0.1c-0.4,0-0.8-0.2-1.1-0.5c-5-3.5-10.7-5.6-16.6-7.2
		c-5.7-1.6-11.5-2.5-17.4-3c-4.7-0.4-9.5-0.6-14.2-0.4c-8.2,0.3-16.4,1.4-24.3,3.7c-4.8,1.4-9.4,3.2-13.7,5.7
		C216.3,153.9,216,154.2,215.6,154.1z"/>
	<path class="st8" d="M215.6,154.1c4.5-2.8,9.4-4.8,14.5-6.2c6.5-1.9,13.2-2.9,19.9-3.4c12.9-0.9,25.5,0,38,3.6
		c5.4,1.6,10.5,3.7,15.2,6.9c0.2,0.2,0.5,0.4,0.7,0.5c-1.4,1-3,1.7-4.6,2.4c-5,2.3-10.3,3.8-15.7,4.8c-3.7,0.7-7.4,1.1-11.2,1.5
		c-4.7,0.4-9.3,0.4-13.9,0.3c-3.6-0.1-7.2-0.4-10.8-0.8c-4.9-0.6-9.7-1.5-14.4-2.7c-5.9-1.5-11.6-3.6-17-6.4
		C216,154.4,215.7,154.4,215.6,154.1z"/>
	<path class="st6" d="M237,129c0,0.2,0,0.4,0,0.6c0,0.5,0.1,1,0,1.5c-0.3,2.3-0.4,4.6-0.9,6.8c-0.4,1.6-0.8,3.2-1.6,4.8
		c-0.8,1.6-1.9,2.9-3.7,3.4c-0.3,0.2-0.7,0.2-1,0c-2.2-0.6-3.6-2.2-4.7-4.1c-2.1-3.5-3.2-7.4-4.2-11.4c-0.7-2.9-1.2-5.8-1.8-8.8
		c-0.1-0.7,0.2-0.7,0.8-0.5c5,2,9.9,4,15,5.6c0.2,0,0.3,0.1,0.5,0.2C236.9,127.5,236.9,127.5,237,129z"/>
	<path class="st9" d="M229.2,83.8c0.5,6.6,2.8,12.6,6.9,17.8c4.8,6.1,10.9,10,18.4,11.9c3.4,0.8,6.8,1.1,10.3,0.8
		c6.8-0.6,12.9-2.9,18.2-7.3c6.4-5.2,10.2-11.9,11.8-19.8c0.1-0.8,0.1-1.7,0.4-2.4c0.2,5.7-1.1,11.2-3.9,16.2
		c-5.2,9.4-13.2,15-23.7,16.9c-1.2,0.2-2.4,0.3-3.5,0.4c-1.3,0.2-2.5,0.2-3.8,0c-2.4-0.3-4.8-0.5-7.1-1.3
		c-12.7-4.1-20.6-12.6-23.5-25.7C229.2,88.9,228.9,86.3,229.2,83.8z"/>
	<path class="st6" d="M299.3,123.5c-0.2,4.4-0.5,8.9-1.5,13.2c-0.4,2.1-1,4.1-2,5.9c-0.8,1.6-2,2.9-3.8,3.3c-0.3,0.1-0.7,0.2-1,0
		c-2.1-0.5-3.4-2-4.5-3.7c-2.1-3.4-3-7.2-4-10.9c-0.1-0.6-0.2-1.2-0.4-1.8c2.4-0.7,4.8-1.2,7.1-2c3.1-1,6.2-2.3,9.2-3.7
		C298.6,123.7,298.9,123.4,299.3,123.5z"/>
	<path class="st10" d="M260.2,118.2c1.3,0,2.5,0,3.8,0c0.2,0.1,0.5-0.1,0.8,0.2c-1.8,0-3.5,0-5.3,0
		C259.8,118.2,260,118.3,260.2,118.2z"/>
	<path class="st11" d="M237.3,127.6c0,0.4,0.2,0.9-0.2,1.3C237.2,128.5,237,128,237.3,127.6z"/>
	<path class="st12" d="M245.8,84c0.5-6.1,3.4-10.6,8.7-13.4c8.5-4.6,19.1-0.8,22.9,7.9c3.9,8.9-0.5,19.1-9.7,22.3
		c-1.3,0.4-2.5,0.8-3.9,0.8c-1-0.1-2-0.1-3,0c-4.5-0.3-8.2-2.3-11.1-5.7c-2.4-2.7-3.7-6-3.9-9.7C245.9,85.5,245.9,84.7,245.8,84z"/>
	<path class="st13" d="M260.7,101.6c1-0.3,2-0.3,3,0C262.7,101.7,261.8,101.7,260.7,101.6z"/>
	<path class="st14" d="M245.8,84c0.2,0.7,0.3,1.5,0,2.3C245.8,85.5,245.8,84.7,245.8,84z"/>
	<path class="st15" d="M236.9,131c0-0.5,0-1,0-1.5c0.3,0.6,0.1,1.2,0.1,1.9c0,0-0.2,0-0.1-0.1C237,131.3,237,131.1,236.9,131z"/>
	<path class="st16" d="M229.7,146c0.3,0,0.7,0,1,0c-0.3,0.4-0.7,0.1-1.1,0.2C229.6,146.2,229.6,146.2,229.7,146
		C229.6,146.1,229.7,146,229.7,146z"/>
	<path class="st17" d="M290.9,146c0.3,0,0.7,0,1,0c-0.3,0.4-0.7,0.1-1.1,0.1C290.9,146.1,290.9,146.1,290.9,146
		C290.9,146,290.9,146,290.9,146z"/>
	<path class="st18" d="M270.9,78.7c2.4,3.3,2.9,7,1.3,10.8c-1.7,4-4.8,6.2-9.2,6.6c-5.3,0.4-9.7-2.8-11.3-7.8
		c-1.4-4.8,0.7-9.9,5.1-12.5c2.4-1.3,4.9-1.6,7.5-1.1c0.1,0.3,0,0.7-0.1,1c-0.3,1.5,0.3,2.9,1.5,3.7c1.2,0.8,2.9,0.7,4.1-0.2
		C270.3,78.9,270.5,78.6,270.9,78.7z"/>
	<path class="st6" d="M270.9,78.7c-1.9,2.2-4.8,1.7-6,0c-1-1.3-1.1-2.7-0.4-4.2c1.3-2,3.4-2.6,5.3-1.5
		C271.6,74.2,272.1,76.4,270.9,78.7z"/>
</g>
<text transform="matrix(1 0 0 1 0 377.7396)" class="st0 st19 st20">Monstriki</text>
</svg>
