<?xml version="1.0" encoding="utf-8"?>
<!-- Generator: Adobe Illustrator 21.1.0, SVG Export Plug-In . SVG Version: 6.00 Build 0)  -->
<svg version="1.1" id="Слой_1" xmlns="http://www.w3.org/2000/svg" xmlns:xlink="http://www.w3.org/1999/xlink" x="0px" y="0px"
	 viewBox="0 0 471 472" style="enable-background:new 0 0 471 472;" xml:space="preserve">
<style type="text/css">
	.st0{fill:none;stroke:#572F5D;stroke-width:6;stroke-miterlimit:10;}
	.st1{fill:#572F5D;}
</style>
<g>
	<circle class="st0" cx="247.9" cy="242.7" r="206.3"/>
	<path class="st1" d="M262.7,316.5c-23.7-2.8-47.3-5.6-71-8.2c-3-0.3-4.1-1.8-4.9-4.4c-8.7-27.3-15.3-55.2-19.4-83.6
		c-0.3-1.8,0.8-4.6,2.3-5.6c23.5-16.8,48.1-31.6,73.8-44.8c2.4-1.2,4.1-1.3,6.2,0.5c21.7,18.9,43.4,37.8,65.2,56.6
		c2.1,1.8,2.4,3.6,1.3,6.1c-11.2,26.3-22.3,52.7-33.4,79.1c-1.2,2.9-3.1,3.8-6.2,3.6c-4.6-0.2-9.3-0.1-13.9-0.1
		C262.7,316,262.7,316.2,262.7,316.5z M263.3,217.8c1.5,3.4,2.1,6.2,3.7,7.8c2.4,2.4,6.3,3.5,8.4,6.1c4.1,5.3,9.9,6.9,15.7,8.2
		c8,1.9,11.2,0.4,14.9-5.6c3.3-5.4,2.9-8.9-1.7-12.9c-14.4-12.6-28.9-25.3-43.5-37.7c-2.5-2.1-5.5-3.6-8.5-4.9
		c-1-0.4-2.8,0.2-3.8,0.9c-0.6,0.4-0.7,2-0.5,2.9c0.2,1.3,0.9,2.5,1.5,3.9c2.2-0.2,4.1,0.4,3.1,3.9c-0.2,0.9-0.2,2.3,0.3,2.9
		c3.7,4,1.8,8.7,2.3,13.2c0.3,3.3,1.7,6.5,2.8,9.6c0.5,1.5,1.3,2.9,1.9,4.1C261,219.3,262.6,218.3,263.3,217.8z"/>
	<path class="st1" d="M188.3,420.5c2.2-0.2,4.5-0.9,6.6-0.5c25.4,5.4,50.9,8.4,76.9,6.8c2.2-0.1,4.6-1,6.3-2.2
		c15.8-11.7,29.2-25.8,40.5-42c2.5-3.5,2.9-6.2-0.1-9.5c-1.6-1.8-2.7-4-3.3-6.7c1,1.3,2,2.6,2.9,4c3.1,5,7.3,7.4,13.3,5.7
		c16.8-4.8,33.7-9.4,50.5-14.4c4.2-1.2,8.1-3.6,12.4-5.6c2.7,8.5,1.8,17,0.1,25.4c-0.5,2.7-0.5,5.6-1.5,8c-0.7,1.7-2.9,2.7-4.4,4.2
		c-19.2,19.4-42.3,32.7-67.4,42.4c-26.6,10.3-54.3,13-82.7,11.1c-24.6-1.7-48.5-5.7-71.3-15.1c-1.5-0.6-2.9-1.3-4.4-2
		c0.1-0.5,0.3-1,0.4-1.4c6,1.6,12.2,2.7,18,4.9c13.3,5,27.2,7.1,41.2,8.5c7.6,0.7,15.2,0.8,22.8,1c1.7,0.1,3.5-0.2,5.2-0.3
		c0.1-0.5,0.3-1,0.4-1.5c-1.8-0.7-3.5-1.6-5.3-2c-15.1-2.8-30.2-5.5-45.3-8.2c-1.3-0.2-2.6-0.8-3.7-2.4c1.3,0.1,2.7,0.2,4,0.4
		c16,2.3,32.1,6.3,48.1,6.4c14.9,0.1,29.2,2.3,43.7,4.2c4.2,0.5,8.6,0.1,12.9,0c-10.9-1.3-21.6-3.4-31.2-9.3
		c-1.1-0.7-2.9-0.5-4.3-0.3c-24.1,3-47.9,0.3-71.5-4.5c-2.1-0.4-4.1-1.2-6.1-1.9c-1.2-0.4-2.4-1.1-3.5-1.6
		C188.3,421.5,188.3,421,188.3,420.5z"/>
	<path class="st1" d="M429.5,275c-7.9-24.3-21-44.8-36.7-64.1c2.4-2.1,6.4-3.6,2.3-7.4c-0.5-0.5,0.1-2.2,0.3-3.3
		c3.3-21.1,5.6-42.3,2.1-63.6c0.3-0.2,0.6-0.6,0.8-0.6c17.4,0.3,35.9,13.4,42.2,29.6c7.8,20,12.2,40.7,14.3,62.1
		c0.8,8.2-0.5,15.8-4.4,23C445.4,260.2,438.8,268.6,429.5,275z"/>
	<path class="st1" d="M187.3,65.2c11.7-17,25.1-29.7,46.6-30.5c21.9-0.8,43.6,0.8,64.9,6c7.8,1.9,13.9,5.9,18.7,12.1
		c5.7,7.2,10.2,15,12.1,24.5c-18.2-0.7-35.5,2.7-52.6,7c-2.9,0.7-5.7,1.8-8.6,2.3c-2.1,0.4-4.3-0.1-6.4,0.1c-1.5,0.2-4,0.7-4.3,1.7
		c-1.5,4.3-3.6,2.6-6,1.1c-16.4-10.3-34.1-17.4-52.8-22.2C195.5,66.5,191.9,66.1,187.3,65.2z"/>
	<path class="st1" d="M110.5,190.5c-0.6-0.3-1.1-0.5-1.7-0.8c-9.1-4.1-9.5-4.5-15.9,2.9c-9.7,11.4-18.5,23.7-28.1,35.3
		c-6.7,8.1-5.7,17.2-4,26.3c2,10.6,4.4,21.1,6.9,31.5c1.4,5.8,3.4,11.5-0.5,18.3c-2.6-11.8-5.3-22.8-7.2-34
		c-1.4-7.9-1.5-16.1-2.3-24.2c-0.1-1.4-0.4-3-1.3-4c-6.5-7.6-10.1-16.6-12.6-26.2c0.5,45.6,6.7,89.9,29.1,131
		c-0.7,0.2-1.5,0.4-2.2,0.7c-0.8-1.1-1.6-2.2-2.3-3.4c-11.2-20.5-17.8-42.5-22.6-65.3C42,259.9,41,241,42.1,222
		c2.2-34.9,14-66.7,33.4-95.6c7.1-10.6,23.2-16.7,36-14.9c-2.4,9.3-5.5,18.6-7.1,28.1c-2,11.5-2.9,23.3-4.3,34.9
		c-0.8,6.9,1.7,11.8,8.5,14.1c0.8,0.3,1.4,0.7,2.2,1.1C110.7,190,110.6,190.2,110.5,190.5z"/>
	<path class="st1" d="M77.3,327.9c15.5,14.1,32.8,22.5,50.9,29.5c11.1,4.3,11.9,4.1,20-4.5c0.6-0.7,1.4-1.2,2.8-1.3
		c-2.1,2.8-4.1,5.7-6.5,8.3c-1.9,2-2.1,3.7-0.9,6.1c10.3,20.8,22.4,40.1,41,54.6c0.2,0.2,0.3,0.5,0.5,0.8c-9.2,6.2-27,7.7-37.8,1.8
		c-26.3-14.4-48.9-33.4-65.9-58.3C74.1,354,73.9,341.4,77.3,327.9z"/>
	<path class="st1" d="M51.2,242.3c1.1,5.7,2.3,11.5,3.4,17.2c-0.4,0.1-0.8,0.2-1.2,0.3c-2-5.6-5-10.9-4.3-17.1
		C49.8,242.5,50.5,242.4,51.2,242.3z"/>
	<path class="st1" d="M61,295.5c-1.7-7.1-3.5-14.2-5.2-21.3c0.4-0.1,0.8-0.2,1.2-0.3c1.7,7.2,3.4,14.3,5.1,21.5
		C61.7,295.4,61.3,295.4,61,295.5z"/>
</g>
</svg>
