<?xml version="1.0" encoding="utf-8"?>
<!-- Generator: Adobe Illustrator 21.1.0, SVG Export Plug-In . SVG Version: 6.00 Build 0)  -->
<svg version="1.1" id="Слой_1" xmlns="http://www.w3.org/2000/svg" xmlns:xlink="http://www.w3.org/1999/xlink" x="0px" y="0px"
	 viewBox="0 0 612 115" style="enable-background:new 0 0 612 115;" xml:space="preserve">
<style type="text/css">
	.st0{fill:#A05F3F;}
	.st1{fill:#F8A61A;}
</style>
<g>
	<path class="st0" d="M430.1,115c-142.3,0-284.6,0-426.9,0.1c-2.3,0-2.7-0.5-2.7-2.8c0.1-36.3,0.1-72.7,0-109c0-2.2,0.4-2.8,2.7-2.8
		c125.7,0.1,251.3,0.1,377,0.1c-0.1,6.2,0.3,12.4,1.1,18.5c1.4,10.1,3.7,20,7.2,29.5c8,22,20.1,41.5,35.4,59.1
		C426,110.1,428.5,112.2,430.1,115z"/>
	<path class="st1" d="M430.1,115c-1.6-2.8-4.1-4.9-6.2-7.3c-15.3-17.6-27.5-37.1-35.4-59.1c-3.5-9.5-5.7-19.5-7.2-29.5
		c-0.9-6.2-1.2-12.3-1.1-18.5c76.6,0,153.2,0,229.8-0.1c2.1,0,2.6,0.5,2.6,2.6c-0.1,36.5-0.1,73.1,0,109.6c0,1.9-0.4,2.3-2.3,2.3
		C550.2,115,490.2,115,430.1,115z"/>
</g>
</svg>
